<svg width="318" height="120" viewBox="0 0 318 120" fill="none" xmlns="http://www.w3.org/2000/svg">
<path d="M0 20.0001C0 8.95436 8.9919 0 20.0839 0H226.925C238.017 0 247.009 8.95436 247.009 20.0001C247.009 31.0457 238.017 40 226.925 40L187.35 40.0001C176.258 40.0001 167.266 48.9545 167.266 60.0002C167.266 71.0239 176.222 79.9646 187.284 80L187.35 80.0001L297.916 80C309.008 80 318 88.9544 318 100C318 111.046 309.008 120 297.916 120H91.0747C79.9827 120 70.9908 111.046 70.9908 100C70.9908 88.9544 79.9827 80 91.0747 80L105.662 80.0001L105.514 79.9996C116.538 79.9203 125.45 70.9967 125.45 60.0002C125.45 49.0037 116.538 40.0799 105.514 40.0006L105.662 40.0001L20.0839 40C8.9919 40 0 31.0457 0 20.0001Z" fill="#F2F5FC"/>
</svg>
