<svg width="140" height="36" viewBox="0 0 140 36" fill="none" xmlns="http://www.w3.org/2000/svg">
<path d="M8.81836 20.5391L10.3496 13.0469H12.0654L9.76855 23H8.11426L6.2207 15.7334L4.28613 23H2.625L0.328125 13.0469H2.04395L3.58887 20.5254L5.48926 13.0469H6.93848L8.81836 20.5391ZM18.6006 20.6826H14.7451L13.9385 23H12.1406L15.9004 13.0469H17.4521L21.2188 23H19.4141L18.6006 20.6826ZM15.2305 19.2881H18.1152L16.6729 15.1592L15.2305 19.2881ZM28.7246 14.4414H25.6211V23H23.9053V14.4414H20.8291V13.0469H28.7246V14.4414ZM37.4404 19.7598C37.3402 20.8216 36.9482 21.651 36.2646 22.248C35.5811 22.8405 34.6719 23.1367 33.5371 23.1367C32.7441 23.1367 32.0446 22.9499 31.4385 22.5762C30.8369 22.1979 30.3721 21.6624 30.0439 20.9697C29.7158 20.277 29.5449 19.4727 29.5312 18.5566V17.627C29.5312 16.6882 29.6976 15.861 30.0303 15.1455C30.363 14.43 30.8392 13.8786 31.459 13.4912C32.0833 13.1038 32.8034 12.9102 33.6191 12.9102C34.7174 12.9102 35.6016 13.2087 36.2715 13.8057C36.9414 14.4027 37.3311 15.2458 37.4404 16.335H35.7178C35.6357 15.6195 35.4261 15.1045 35.0889 14.79C34.7562 14.471 34.2663 14.3115 33.6191 14.3115C32.8672 14.3115 32.2884 14.5872 31.8828 15.1387C31.4818 15.6855 31.2767 16.4899 31.2676 17.5518V18.4336C31.2676 19.5091 31.459 20.3294 31.8418 20.8945C32.2292 21.4596 32.7943 21.7422 33.5371 21.7422C34.2161 21.7422 34.7266 21.5895 35.0684 21.2842C35.4102 20.9788 35.6266 20.4707 35.7178 19.7598H37.4404ZM46.8945 23H45.1719V18.5771H40.7217V23H38.9922V13.0469H40.7217V17.1895H45.1719V13.0469H46.8945V23ZM55.9385 20.833L58.4678 13.0469H60.3682L56.7861 23H55.1113L51.543 13.0469H53.4365L55.9385 20.833ZM63.3213 23H61.5986V13.0469H63.3213V23ZM65.4473 23V13.0469H68.3867C69.2663 13.0469 70.0456 13.2428 70.7246 13.6348C71.4082 14.0267 71.9368 14.5827 72.3105 15.3027C72.6842 16.0228 72.8711 16.8477 72.8711 17.7773V18.2764C72.8711 19.2197 72.682 20.0492 72.3037 20.7646C71.93 21.4801 71.3945 22.0316 70.6973 22.4189C70.0046 22.8063 69.2093 23 68.3115 23H65.4473ZM67.1768 14.4414V21.6191H68.3047C69.2116 21.6191 69.9066 21.3366 70.3896 20.7715C70.8773 20.2018 71.1257 19.3861 71.1348 18.3242V17.7705C71.1348 16.6904 70.9001 15.8656 70.4307 15.2959C69.9613 14.7262 69.2799 14.4414 68.3867 14.4414H67.1768ZM80.4111 18.5566H76.3232V21.6191H81.1016V23H74.5938V13.0469H81.0537V14.4414H76.3232V17.1895H80.4111V18.5566ZM90.4531 18.2832C90.4531 19.2585 90.2845 20.1152 89.9473 20.8535C89.61 21.5872 89.127 22.1523 88.498 22.5488C87.8737 22.9408 87.1536 23.1367 86.3379 23.1367C85.5312 23.1367 84.8112 22.9408 84.1777 22.5488C83.5488 22.1523 83.0612 21.5895 82.7148 20.8604C82.373 20.1312 82.1999 19.2904 82.1953 18.3379V17.7773C82.1953 16.8066 82.3662 15.9499 82.708 15.207C83.0544 14.4642 83.5397 13.8968 84.1641 13.5049C84.793 13.1084 85.513 12.9102 86.3242 12.9102C87.1354 12.9102 87.8532 13.1061 88.4775 13.498C89.1064 13.8854 89.5918 14.446 89.9336 15.1797C90.2754 15.9089 90.4486 16.7588 90.4531 17.7295V18.2832ZM88.7236 17.7637C88.7236 16.6608 88.514 15.8154 88.0947 15.2275C87.68 14.6396 87.0898 14.3457 86.3242 14.3457C85.5768 14.3457 84.9912 14.6396 84.5674 15.2275C84.1481 15.8109 83.9339 16.638 83.9248 17.709V18.2832C83.9248 19.377 84.1367 20.2223 84.5605 20.8193C84.9889 21.4163 85.5814 21.7148 86.3379 21.7148C87.1035 21.7148 87.6914 21.4232 88.1016 20.8398C88.5163 20.2565 88.7236 19.4043 88.7236 18.2832V17.7637Z" fill="#5D6678"/>
<circle cx="122" cy="18" r="17.5" stroke="#DCDFE5"/>
<path d="M126.194 16.6632L119.957 12.3456C118.881 11.6007 118 12.1005 118 13.4557V22.5421C118 23.8974 118.882 24.3988 119.96 23.6567L126.191 19.3675C127.269 18.6246 127.27 17.4081 126.194 16.6632ZM125.362 18.4615L119.824 22.2739C119.465 22.5216 119.171 22.3544 119.171 21.9027V14.0947C119.171 13.643 119.465 13.4767 119.824 13.7251L125.364 17.5601C125.722 17.8081 125.722 18.2139 125.362 18.4615Z" fill="#5D6678"/>
</svg>
