<svg width="280" height="267" viewBox="0 0 280 267" fill="none" xmlns="http://www.w3.org/2000/svg">
<path d="M125.084 244.664C118.822 244.629 112.291 244.637 106.68 246.679C103.841 247.713 101.059 249.898 102.11 252.092C102.481 252.869 103.283 253.489 104.062 254.082C105.638 255.281 107.258 256.506 109.299 257.238C112.045 258.221 115.231 258.203 118.287 258.163C136.786 257.926 155.285 257.688 173.787 257.451C176.279 257.418 178.883 257.366 181.079 256.501C183.275 255.636 184.893 253.682 184.041 251.962C183.496 250.86 182.109 250.115 180.74 249.51C164.907 242.535 142.601 244.762 125.084 244.664Z" fill="#F2F5FC"/>
<path d="M29.6709 250.082C21.9642 250.039 13.9308 250.049 7.02819 252.561C3.53542 253.833 0.113032 256.52 1.4046 259.22C1.86193 260.177 2.84692 260.939 3.80681 261.669C5.74416 263.146 7.7393 264.653 10.2496 265.55C13.6293 266.76 17.5492 266.737 21.3083 266.687C44.0691 266.395 66.8299 266.103 89.5907 265.81C92.6588 265.77 95.8601 265.708 98.5614 264.641C101.265 263.576 103.255 261.172 102.207 259.055C101.536 257.7 99.8303 256.78 98.1467 256.038C78.6651 247.463 51.223 250.202 29.6709 250.082Z" fill="#F2F5FC"/>
<path d="M275.129 254.112C271.159 250.615 265.284 250.64 259.982 250.788C242.837 251.268 225.675 251.028 208.55 250.065C205.236 249.88 201.794 249.686 198.71 250.915C198.11 251.155 197.507 251.468 197.135 251.993C196.22 253.295 197.165 255.094 198.303 256.206C202.138 259.958 207.859 260.913 213.207 261.507C230.148 263.387 247.288 263.492 264.251 261.82L267.716 261.135C270.061 260.72 272.802 261.392 274.951 260.375C275.468 260.13 275.991 259.86 276.373 259.436C277.743 257.931 276.659 255.459 275.129 254.112Z" fill="#F2F5FC"/>
<path d="M207.048 138.752C207.075 139.132 207.098 139.552 206.869 139.857C206.638 140.162 206.045 140.18 205.945 139.812C205.364 140.577 205.899 141.794 205.334 142.569C204.927 143.124 204.138 143.201 203.447 143.229C203.301 143.234 203.148 143.239 203.02 143.171C202.879 143.096 202.794 142.951 202.731 142.806C202.484 142.232 202.487 141.587 202.495 140.962C202.522 138.703 202.562 136.381 203.427 134.291C203.703 133.624 204.115 132.939 204.796 132.689C205.339 132.489 206.191 132.584 206.671 132.924C207.367 133.414 207.193 133.464 207.116 134.369C206.985 135.826 206.945 137.285 207.048 138.752Z" fill="#F2D6C9"/>
<path d="M169.414 244.311C167.831 240.1 162.041 241.242 158.481 241.247C153.224 241.255 147.965 241.287 142.708 241.337C142.183 241.342 141.657 241.35 141.132 241.357C141.18 224.882 141.499 208.413 141.74 191.938C141.788 188.689 141.841 185.442 141.891 182.193C142.258 177.652 142.507 173.113 142.077 168.599C142.087 167.782 142.097 166.964 142.105 166.147C142.15 161.456 142.102 156.762 142.07 152.068C142.64 148.474 142.999 144.893 142.075 141.361C142.082 140.699 142.087 140.039 142.1 139.377C142.12 138.267 140.921 138 140.235 138.515C138.258 137.63 135.375 139.097 136.3 141.651C137.775 145.723 136.83 149.797 136.205 153.941C135.571 158.132 135.652 161.988 136.32 166.17C136.702 168.557 136.863 170.948 136.896 173.343C136.642 177.844 136.431 182.345 136.245 186.849C136.107 188.809 135.986 190.771 135.928 192.73C135.853 195.252 135.81 197.771 135.783 200.293C135.408 213.997 135.328 227.716 135.33 241.422C127.603 241.53 119.877 241.685 112.152 241.887C110.77 241.922 109.722 242.792 109.285 244.059C107.652 248.78 112.23 251.662 116.326 251.932C117.344 251.999 118.366 252.017 119.389 252.017C119.746 252.164 120.158 252.244 120.63 252.229C130.712 251.952 140.795 251.589 150.879 251.409C153.435 251.364 155.995 251.365 158.543 251.577C160.631 251.752 162.795 252.287 164.883 251.804C168.177 251.047 170.685 247.696 169.414 244.311Z" fill="#BFBFBF"/>
<path d="M81.1655 56.1242C79.6151 77.3085 79.5724 98.6129 81.5901 119.76C82.5023 129.322 83.633 139.04 81.678 148.445C106.075 156.785 132.698 150.824 158.398 148.62C167.944 147.8 177.533 147.515 187.114 147.472C190.082 147.46 192.165 147.445 194.829 146.145C198.002 144.601 200.118 141.402 201.098 138.025C202.081 134.648 201.06 131.072 200.935 127.56C200.271 109.013 198.452 89.9977 198.452 71.4377C198.452 51.9303 197.698 37.4392 197.123 16.9072C197.06 14.6303 198.226 12.4383 198.073 10.1664C197.919 7.89454 196.867 5.53775 194.844 4.46804C193.354 3.68075 191.58 3.69313 189.894 3.73062C166.03 4.25798 142.191 3.93311 118.488 6.74236C111.736 7.54215 101.954 8.44448 95.1441 8.52945C90.7944 8.58444 84.3316 8.66936 82.3641 13.693C80.1578 19.324 81.1931 28.2842 80.7509 34.3351C80.2181 41.6007 81.6982 48.8636 81.1655 56.1242Z" fill="#F4F4F4"/>
<path d="M82.4053 12.3036C83.8903 13.1659 85.7347 13.1459 87.466 13.0784C93.0243 12.8634 98.5725 12.431 104.123 12.0586C132.895 10.1316 161.789 9.88924 190.591 11.3339C194.222 11.5163 198.574 11.3913 200.521 8.4321C201.654 6.70756 201.577 4.52054 201.458 2.48108C201.431 2.00621 201.393 2.00384 201.109 1.61645C200.674 1.0266 199.835 0.906548 199.089 0.839066C186.098 -0.345618 173.016 -0.113168 159.987 0.539158C147.471 1.16649 135.023 0.129276 122.534 1.07902C116.29 1.5539 110.031 1.90386 103.766 1.94885C97.5548 1.99383 91.4689 2.88348 85.2874 2.54607C80.1915 2.27114 78.0004 9.74678 82.4053 12.3036Z" fill="#BFBFBF"/>
<path d="M109.102 29.1615C108.725 29.1615 108.391 29.0565 108.114 28.8441C108.004 28.7591 107.984 28.6041 108.069 28.4941C108.155 28.3842 108.31 28.3641 108.421 28.4491C109.069 28.944 110.067 28.4717 110.605 28.1468C111.155 27.8144 111.675 27.437 112.165 27.0196C112.027 26.8322 111.916 26.6197 111.841 26.3823C111.652 25.7799 111.745 25.1425 111.848 24.5901C112.323 22.0483 113.235 19.629 114.56 17.4021C114.894 16.8423 115.535 16.1399 116.248 16.01C116.585 15.9475 116.902 16.0275 117.165 16.235C117.221 16.28 117.256 16.3448 117.258 16.4148C117.495 20.3538 115.793 24.3628 112.886 27.0471C113.253 27.357 113.751 27.5644 114.286 27.6069C115.045 27.6694 115.869 27.4569 116.874 26.9395C117.525 26.6071 118.168 26.1672 118.746 25.6448C118.721 25.3849 118.741 25.1276 118.769 24.9051C118.98 23.2106 119.739 21.5884 120.904 20.3338C120.967 20.2638 121.065 20.2389 121.156 20.2639C121.246 20.2889 121.317 20.3638 121.334 20.4563C121.744 22.5007 120.746 24.4177 119.286 25.8249C119.309 25.9073 119.341 25.9872 119.384 26.0622C119.646 26.5071 120.269 26.6246 120.718 26.5147C121.173 26.4022 121.616 26.0922 122.073 25.5674C122.173 25.4524 122.269 25.335 122.362 25.2125C122.523 23.9529 122.982 22.7306 123.704 21.6884C123.766 21.5959 123.885 21.556 123.995 21.5959C124.103 21.6334 124.171 21.7384 124.161 21.8508C124.058 23.1255 123.596 24.3652 122.844 25.4025C122.794 25.8648 122.787 26.3322 122.824 26.7946C124.741 26.4322 125.777 24.2153 126.47 22.2983C126.513 22.1783 126.641 22.1083 126.767 22.1408C126.892 22.1708 126.973 22.2883 126.958 22.4157C126.832 23.3855 126.804 24.3678 126.875 25.3425C127.43 24.8526 127.86 24.2227 128.109 23.5304C128.149 23.4154 128.269 23.3431 128.39 23.3681C128.511 23.3906 128.599 23.4955 128.596 23.618C128.589 24.0403 128.676 24.4578 128.85 24.8402L131.036 23.7179C131.149 23.6604 131.287 23.6955 131.358 23.798C131.82 24.4678 132.853 24.7077 133.566 24.3128C133.687 24.2453 133.84 24.2878 133.908 24.4103C133.976 24.5303 133.933 24.6827 133.813 24.7502C132.936 25.2375 131.737 25.0075 131.081 24.2577L128.855 25.4C128.734 25.4625 128.586 25.4174 128.521 25.2999C128.38 25.05 128.272 24.7852 128.202 24.5078C127.852 25.1051 127.375 25.6298 126.812 26.0297C126.739 26.0822 126.644 26.0897 126.563 26.0547C126.48 26.0173 126.425 25.9423 126.417 25.8523C126.352 25.2225 126.327 24.5876 126.34 23.9528C125.583 25.5649 124.442 27.1445 122.628 27.3294C122.495 27.3394 122.369 27.2469 122.354 27.1095C122.314 26.7645 122.297 26.4147 122.304 26.0648C121.827 26.5672 121.349 26.8745 120.847 26.9995C120.201 27.1594 119.344 26.977 118.955 26.3147C118.929 26.2747 118.909 26.2322 118.889 26.1897C118.331 26.6671 117.721 27.0745 117.108 27.3869C116.015 27.9468 115.107 28.1768 114.248 28.1068C113.655 28.0593 112.999 27.8218 112.507 27.3869C111.994 27.8243 111.446 28.2217 110.868 28.5716C110.218 28.964 109.617 29.1615 109.102 29.1615ZM116.467 16.4899C116.424 16.4899 116.381 16.4949 116.336 16.5024C115.829 16.5949 115.283 17.1646 114.992 17.657C113.698 19.8339 112.806 22.1958 112.341 24.6801C112.25 25.1725 112.165 25.7374 112.318 26.2323C112.369 26.3923 112.444 26.5422 112.544 26.6822C115.314 24.1278 116.949 20.3214 116.761 16.5674C116.67 16.5174 116.572 16.4899 116.467 16.4899ZM120.909 21.0912C120.017 22.2009 119.439 23.5605 119.264 24.9701C119.256 25.0326 119.248 25.095 119.243 25.1575C120.299 24.0278 121.017 22.6058 120.909 21.0912Z" fill="#606060"/>
<path d="M167.421 26.0477C167.194 26.0477 166.958 26.0103 166.75 25.8753C166.534 25.7353 166.388 25.5154 166.317 25.2305C165.807 25.4879 165.219 25.5804 164.646 25.4004C164.051 25.213 163.566 24.6606 163.41 23.9933C163.37 23.8184 163.352 23.6433 163.362 23.4783C162.294 24.2506 161.086 24.843 159.822 25.2079C159.741 25.2329 159.653 25.2129 159.588 25.1579C159.523 25.1029 159.493 25.0204 159.503 24.9355L159.812 22.5935C158.319 23.6208 156.598 24.2981 154.799 24.558C154.711 24.573 154.628 24.5382 154.573 24.4757C154.517 24.4107 154.497 24.3232 154.52 24.2432L155.073 22.3261C153.927 23.5983 152.351 24.4907 150.658 24.7881C150.58 24.8031 150.494 24.7756 150.437 24.7181C150.379 24.6606 150.354 24.5781 150.369 24.4957C150.507 23.7584 150.678 23.0235 150.879 22.2987C149.929 23.5258 148.745 24.5606 147.391 25.3429C146.906 25.6228 146.326 25.8903 145.728 25.7528C145.346 25.6653 145.027 25.4254 144.805 25.0555C144.75 24.963 144.702 24.863 144.662 24.758C144.109 25.2004 143.464 25.5278 142.773 25.6977C142.124 25.8577 141.604 25.7353 141.345 25.3629C141.278 25.2654 141.235 25.1604 141.207 25.0579C140.581 25.3529 139.893 25.5228 139.192 25.5278C139.049 25.5203 138.946 25.4254 138.938 25.2904C138.905 24.6206 138.963 23.9383 139.106 23.2785L138.28 24.1231C138.184 24.2231 138.023 24.2231 137.925 24.1282C137.827 24.0307 137.825 23.8733 137.923 23.7758L139.443 22.2262C139.526 22.1412 139.657 22.1262 139.755 22.1887C139.855 22.2512 139.898 22.3737 139.858 22.4862C139.566 23.2934 139.421 24.1632 139.433 25.023C140.039 24.978 140.632 24.798 141.172 24.5106C141.255 23.091 142.293 21.8063 143.675 21.4264C143.76 21.4014 143.853 21.4264 143.916 21.4864C143.979 21.5463 144.006 21.6389 143.986 21.7239C143.677 23.0185 142.805 24.1282 141.675 24.8105C141.687 24.928 141.715 25.0155 141.758 25.0805C141.953 25.3604 142.494 25.2554 142.652 25.2154C143.353 25.0429 143.999 24.6906 144.537 24.2157C144.511 23.9608 144.529 23.7008 144.597 23.4583C144.843 22.5811 145.542 21.9188 146.105 21.3864C146.182 21.3115 146.301 21.2965 146.394 21.3465C146.489 21.3965 146.542 21.4989 146.527 21.6064C146.366 22.6661 145.836 23.6484 145.074 24.3982C145.109 24.5431 145.165 24.6806 145.24 24.803C145.343 24.9755 145.534 25.198 145.843 25.2704C146.275 25.3679 146.743 25.1454 147.142 24.9155C148.941 23.8782 150.424 22.3711 151.432 20.5616C151.494 20.4491 151.635 20.4017 151.753 20.4542C151.871 20.5067 151.932 20.6416 151.886 20.764C151.492 21.8912 151.173 23.0535 150.937 24.2256C152.809 23.7908 154.49 22.5836 155.485 20.9441C155.55 20.8366 155.683 20.7941 155.801 20.8441C155.917 20.8941 155.977 21.0215 155.942 21.1414L155.115 24.0032C156.884 23.6833 158.56 22.9461 159.988 21.8538C160.068 21.7939 160.179 21.7838 160.267 21.8363C160.355 21.8863 160.402 21.9864 160.39 22.0863L160.056 24.6182C161.433 24.1658 162.727 23.4334 163.817 22.4862C163.92 22.3962 164.076 22.4062 164.169 22.5061C164.262 22.6061 164.257 22.7611 164.156 22.8561C163.9 23.0985 163.81 23.4734 163.905 23.8858C164.021 24.3831 164.375 24.793 164.805 24.928C165.312 25.0879 165.842 24.9655 166.282 24.6906C166.287 24.5981 166.297 24.503 166.312 24.4031C166.463 23.4583 166.853 22.5611 167.436 21.8038C167.496 21.7263 167.596 21.6913 167.692 21.7138C167.787 21.7363 167.863 21.8138 167.88 21.9088C168.021 22.6311 167.908 23.3859 167.561 24.0357C167.38 24.3756 167.109 24.693 166.782 24.9429C166.8 25.1479 166.863 25.3529 167.026 25.4604C167.184 25.5653 167.421 25.5603 167.629 25.5403C168.795 25.4378 169.918 24.9379 170.798 24.1681C170.692 23.7682 170.808 23.3309 171.021 23.006C171.346 22.5112 171.871 22.2887 172.358 22.4361C172.428 22.4586 172.486 22.5087 172.516 22.5762C172.547 22.6436 172.542 22.7211 172.509 22.7861C172.227 23.3384 171.853 23.8433 171.411 24.2807C171.413 24.2857 171.418 24.2882 171.418 24.2882C171.627 24.5256 171.971 24.6231 172.341 24.5481C172.765 24.4632 173.117 24.1808 173.235 23.8309C173.278 23.7009 173.421 23.6283 173.552 23.6733C173.682 23.7158 173.755 23.8583 173.71 23.9883C173.537 24.5056 173.037 24.918 172.436 25.038C171.888 25.1454 171.366 24.9906 171.041 24.6182C170.094 25.4129 168.908 25.9277 167.677 26.0352C167.591 26.0427 167.506 26.0477 167.421 26.0477ZM167.426 22.7086C167.164 23.1659 166.973 23.6609 166.86 24.1758C166.958 24.0558 167.044 23.9308 167.114 23.7984C167.295 23.461 167.4 23.0885 167.426 22.7086ZM143.346 22.0813C142.524 22.4762 141.896 23.2809 141.715 24.1681C142.446 23.6433 143.034 22.9136 143.346 22.0813ZM171.853 22.9235C171.68 22.9885 171.536 23.1284 171.438 23.2759C171.361 23.3959 171.3 23.5434 171.275 23.6959C171.489 23.4559 171.685 23.1959 171.853 22.9235ZM145.796 22.3987C145.476 22.7511 145.2 23.1435 145.074 23.5933C145.067 23.6183 145.062 23.6458 145.054 23.6708C145.368 23.2884 145.62 22.8586 145.796 22.3987Z" fill="#606060"/>
<path d="M150.337 45.7249C150.246 45.7249 150.156 45.675 150.113 45.5875C150.05 45.465 150.1 45.3151 150.221 45.2526C150.349 45.1877 150.465 45.1026 150.57 45.0026C150.525 44.8527 150.5 44.6803 150.497 44.4829C150.487 43.888 150.62 43.2906 150.882 42.7557C150.922 42.6733 151.005 42.6184 151.098 42.6159C151.193 42.6059 151.276 42.6608 151.324 42.7408C151.603 43.2182 151.663 43.8204 151.495 44.3978C151.422 44.6452 151.309 44.8727 151.166 45.0726C151.171 45.0801 151.176 45.0851 151.176 45.0851C151.414 45.3176 151.867 45.2176 152.214 45.0476C152.972 44.6777 153.611 44.0654 154.043 43.3331C154.003 42.7083 154.221 42.0684 154.666 41.6161C154.741 41.5386 154.86 41.5185 154.955 41.566C155.053 41.6135 155.108 41.7161 155.093 41.8235C155.018 42.3959 154.832 42.9457 154.561 43.4456C154.576 43.543 154.598 43.6405 154.628 43.733C155.206 43.3306 155.593 42.6408 155.621 41.941C155.626 41.8085 155.734 41.7035 155.867 41.701C156.008 41.706 156.113 41.801 156.123 41.9309C156.149 42.2758 156.176 42.6334 156.335 42.9208C156.458 43.1457 156.732 43.3556 156.985 43.3031C157.131 43.2731 157.274 43.1607 157.412 43.0532L159.101 41.7236C159.184 41.6586 159.297 41.6511 159.388 41.7061C159.478 41.7611 159.523 41.8635 159.503 41.966C159.425 42.3684 159.498 42.7183 159.697 42.9033C159.797 42.9957 159.973 43.0332 160.124 42.9907C160.194 42.9707 160.282 42.9257 160.307 42.8332C160.342 42.7008 160.478 42.6208 160.614 42.6558C160.747 42.6908 160.827 42.8283 160.792 42.9608C160.727 43.2082 160.533 43.3956 160.262 43.4706C159.938 43.5631 159.584 43.4831 159.352 43.2682C159.139 43.0707 159.013 42.7883 158.98 42.4584L157.724 43.4482C157.558 43.5781 157.35 43.7405 157.088 43.7955C156.566 43.9055 156.101 43.5431 155.892 43.1632C155.875 43.1307 155.857 43.0981 155.842 43.0631C155.583 43.593 155.159 44.043 154.628 44.3204C154.508 44.3829 154.354 44.3378 154.289 44.2153C154.254 44.1503 154.224 44.0854 154.196 44.0179C153.739 44.6378 153.136 45.1526 152.432 45.495C151.781 45.81 151.183 45.7924 150.829 45.445L150.824 45.4401C150.708 45.5401 150.58 45.6249 150.447 45.6924C150.412 45.7174 150.374 45.7249 150.337 45.7249ZM151.085 43.6706C151.038 43.8755 151.007 44.0879 151 44.2978L151.012 44.2579C151.073 44.0629 151.095 43.863 151.085 43.6706Z" fill="#606060"/>
<path d="M165.792 44.3181C165.609 44.3181 165.423 44.2607 165.249 44.1457C165.129 44.0657 165.021 43.9633 164.933 43.8458C164.373 44.1357 163.732 44.1882 163.209 44.1982C163.139 44.1957 163.076 44.1732 163.026 44.1257C162.978 44.0782 162.95 44.0132 162.953 43.9457C162.968 43.1034 163.4 42.2686 164.081 41.7663C164.418 41.5163 164.785 41.5039 164.996 41.7313C165.028 41.7688 165.056 41.8088 165.076 41.8488C165.154 41.7188 165.234 41.5988 165.307 41.4864C165.352 41.4189 165.428 41.3764 165.508 41.3739C165.586 41.3689 165.667 41.4089 165.717 41.4738C166.214 42.1312 165.933 43.0685 165.352 43.5683C165.403 43.6333 165.463 43.6883 165.528 43.7308C165.621 43.7908 165.765 43.8533 165.92 43.7958C166.066 43.7433 166.187 43.6083 166.332 43.4383L168.205 41.224C168.265 41.1515 168.363 41.119 168.456 41.1414C168.549 41.1639 168.619 41.2365 168.642 41.3289L169.096 43.3108C169.941 42.7935 170.659 42.0862 171.19 41.2514C171.25 41.159 171.366 41.1165 171.469 41.144C171.574 41.174 171.649 41.269 171.652 41.379L171.677 42.5685C172.504 42.1136 173.243 41.4938 173.833 40.764C173.896 40.6866 174.001 40.6541 174.097 40.6791C174.195 40.7066 174.265 40.789 174.278 40.889L174.346 41.4488C174.748 41.2164 175.064 40.8316 175.198 40.3892C175.233 40.2793 175.333 40.2117 175.449 40.2117C175.564 40.2167 175.66 40.2992 175.683 40.4117C175.75 40.7341 176.188 40.894 176.577 40.869C176.783 40.854 176.987 40.8041 177.203 40.7541C177.464 40.6916 177.738 40.6266 178.024 40.6216C178.675 40.6066 179.303 40.919 179.7 41.4163C180.075 41.0164 180.535 40.7041 181.047 40.5067C181.12 40.4792 181.201 40.4866 181.268 40.5241C181.336 40.5641 181.379 40.6316 181.389 40.7091C181.439 41.119 181.49 41.5463 181.696 41.8837C181.866 42.1662 182.211 42.4087 182.535 42.3287C182.741 42.2787 182.917 42.1087 183.105 41.9287C183.178 41.8588 183.251 41.7888 183.326 41.7263C183.698 41.4064 184.279 41.2214 184.671 41.5663C184.774 41.6588 184.784 41.8164 184.693 41.9188C184.6 42.0213 184.442 42.0312 184.339 41.9413C184.186 41.8063 183.872 41.9188 183.656 42.1037C183.588 42.1612 183.522 42.2261 183.457 42.2886C183.241 42.496 182.997 42.731 182.658 42.8135C182.07 42.9585 181.525 42.5661 181.268 42.1412C181.072 41.8163 180.99 41.4538 180.937 41.1039C180.525 41.3164 180.163 41.6164 179.879 41.9838C179.826 42.0513 179.746 42.0888 179.658 42.0813C179.572 42.0738 179.497 42.0237 179.457 41.9487C179.185 41.4414 178.61 41.1065 178.037 41.119C177.803 41.124 177.57 41.1789 177.321 41.2389C177.095 41.2914 176.861 41.349 176.615 41.3665C176.21 41.3964 175.763 41.2764 175.471 41.004C175.193 41.4839 174.745 41.8662 174.22 42.0537C174.147 42.0787 174.069 42.0712 174.004 42.0313C173.939 41.9913 173.896 41.9238 173.886 41.8488L173.843 41.5063C173.187 42.2037 172.401 42.7835 171.539 43.1984C171.464 43.2359 171.371 43.2309 171.298 43.1859C171.225 43.1409 171.18 43.0634 171.177 42.9784L171.16 42.1412C170.579 42.8635 169.858 43.4683 169.039 43.9157C168.971 43.9532 168.885 43.9558 168.815 43.9233C168.742 43.8908 168.689 43.8282 168.672 43.7508L168.255 41.9287L166.707 43.7608C166.564 43.9308 166.368 44.1631 166.086 44.2656C165.996 44.3006 165.895 44.3181 165.792 44.3181ZM164.614 42.0662C164.576 42.0662 164.481 42.0938 164.383 42.1663C163.898 42.5262 163.566 43.0934 163.48 43.6882C163.872 43.6657 164.302 43.6009 164.676 43.4159C164.646 43.3734 164.631 43.3234 164.631 43.2684L164.646 42.2337C164.646 42.1387 164.641 42.0812 164.629 42.0637L164.614 42.0662ZM165.466 42.1762C165.297 42.4686 165.179 42.7486 165.172 43.0385C165.37 42.7936 165.491 42.4711 165.466 42.1762Z" fill="#606060"/>
<path d="M151.911 54.2529C151.723 54.2529 151.555 54.1903 151.424 54.0628C151.288 53.9303 151.23 53.7554 151.2 53.6329C150.974 52.7257 151.469 51.716 152.323 51.3311C152.389 51.3012 152.464 51.3012 152.53 51.3311C152.595 51.3586 152.645 51.4161 152.668 51.4811C152.891 52.1659 152.721 52.9482 152.231 53.4781C152.138 53.5806 151.977 53.5855 151.876 53.493C151.773 53.4006 151.768 53.2406 151.861 53.1407C152.15 52.8282 152.293 52.3783 152.256 51.9534C151.796 52.3108 151.55 52.9482 151.69 53.513C151.705 53.573 151.731 53.6606 151.776 53.7055C151.886 53.8155 152.163 53.7155 152.371 53.578C152.625 53.4106 152.866 53.2206 153.087 53.0107C153.08 52.9982 153.07 52.9857 153.062 52.9732C152.952 52.7957 152.909 52.5733 152.924 52.2934C152.974 51.4961 153.429 50.7437 154.113 50.3263C154.196 50.2738 154.304 50.2764 154.384 50.3314C154.922 50.6938 154.824 51.4485 154.484 52.0384C154.311 52.3408 154.11 52.6283 153.884 52.8932C154.035 52.9007 154.203 52.8757 154.356 52.8282C155.052 52.6158 155.671 52.1559 156.098 51.5661C156.191 51.0762 156.399 50.6063 156.708 50.2114C156.781 50.119 156.907 50.089 157.012 50.139C157.118 50.1865 157.178 50.3014 157.153 50.4163C157.055 50.8962 156.854 51.351 156.575 51.7584C156.54 51.9909 156.535 52.2284 156.565 52.4634C156.575 52.5383 156.59 52.6432 156.635 52.6882C156.658 52.7107 156.676 52.7183 156.713 52.7183C156.842 52.7158 157.053 52.5783 157.218 52.3933L158.5 50.9512C158.583 50.8562 158.726 50.8412 158.829 50.9112C158.935 50.9812 158.97 51.1186 158.912 51.2311C158.862 51.331 158.857 51.4561 158.897 51.5786C158.937 51.701 159.02 51.7985 159.121 51.846C159.221 51.896 159.349 51.8985 159.47 51.8585C159.59 51.816 159.688 51.7361 159.739 51.6361C159.799 51.5111 159.947 51.4611 160.073 51.5186C160.199 51.5786 160.251 51.7286 160.191 51.851C160.086 52.071 159.882 52.2458 159.633 52.3308C159.387 52.4158 159.118 52.4033 158.899 52.2959C158.693 52.1934 158.525 52.0084 158.437 51.781L157.595 52.7282C157.495 52.8406 157.133 53.2105 156.728 53.223C156.55 53.2305 156.402 53.1656 156.281 53.0456C156.13 52.8932 156.088 52.6883 156.068 52.5283C156.062 52.4809 156.058 52.4333 156.052 52.3859C155.615 52.8107 155.085 53.1381 154.505 53.313C154.18 53.4105 153.798 53.443 153.489 53.3255C153.231 53.5755 152.949 53.803 152.65 54.0004C152.389 54.1654 152.135 54.2529 151.911 54.2529ZM154.208 50.8637C153.756 51.2111 153.462 51.7535 153.424 52.3233C153.417 52.4483 153.424 52.5508 153.449 52.6283C153.675 52.3683 153.876 52.0884 154.047 51.7885C154.196 51.5361 154.336 51.1112 154.208 50.8637Z" fill="#606060"/>
<path d="M164.267 52.7881C164.232 52.7881 164.194 52.7805 164.162 52.7655C164.101 52.738 164.054 52.6855 164.031 52.623C163.873 52.1932 163.78 51.7358 163.755 51.2759C163.33 51.6433 162.785 51.8733 162.222 51.9058C162.089 51.9133 161.966 51.8108 161.956 51.6708C161.948 51.5334 162.054 51.4134 162.192 51.4059C162.837 51.3659 163.458 51.0035 163.805 50.4611C163.868 50.3637 163.988 50.3211 164.099 50.3586C164.209 50.3961 164.28 50.5036 164.267 50.6186C164.217 51.1509 164.27 51.6933 164.421 52.2057C165.589 51.7333 166.667 51.021 167.557 50.1338C167.634 50.0563 167.752 50.0363 167.85 50.0888C167.948 50.1413 168.001 50.2487 167.981 50.3562C167.878 50.896 167.845 51.4459 167.883 51.9958C168.856 51.6034 169.718 50.9385 170.341 50.0987C170.404 50.0137 170.514 49.9763 170.617 50.0088C170.72 50.0388 170.79 50.1313 170.796 50.2363L170.856 51.5909C171.786 51.196 172.637 50.6136 173.343 49.8963C173.429 49.8063 173.57 49.7963 173.673 49.8688C173.773 49.9413 173.806 50.0787 173.745 50.1887C173.678 50.3137 173.69 50.4412 173.781 50.5762C173.969 50.8511 174.431 51.0459 174.791 51.0034C175.032 50.9735 175.273 50.9035 175.53 50.8311C176.002 50.6936 176.492 50.5537 177.002 50.6736C177.16 50.7111 177.309 50.7711 177.449 50.8286C177.658 50.9136 177.851 50.9935 178.04 50.976C178.193 50.9635 178.346 50.8811 178.512 50.7961C178.568 50.7686 178.62 50.7386 178.678 50.7136C179.806 50.1738 181.161 50.4312 182.146 50.6212C182.281 50.6462 182.372 50.7786 182.344 50.9136C182.317 51.0486 182.181 51.136 182.05 51.111C180.862 50.8836 179.801 50.7286 178.894 51.1635C178.844 51.1885 178.794 51.2135 178.743 51.241C178.552 51.3384 178.336 51.4509 178.085 51.4759C177.779 51.5034 177.505 51.3909 177.261 51.2934C177.13 51.241 177.007 51.191 176.886 51.1635C176.504 51.0735 176.097 51.191 175.668 51.3134C175.404 51.3884 175.13 51.4684 174.849 51.5033C174.298 51.5708 173.66 51.2934 173.363 50.8636C173.321 50.8011 173.286 50.7361 173.258 50.6686C172.509 51.3234 171.637 51.8458 170.708 52.1932C170.632 52.2207 170.549 52.2131 170.481 52.1681C170.414 52.1232 170.373 52.0507 170.368 51.9707L170.321 50.9136C169.619 51.6709 168.725 52.2557 167.745 52.5881C167.672 52.6131 167.594 52.6031 167.531 52.5631C167.469 52.5231 167.426 52.4556 167.416 52.3806C167.358 51.9133 167.35 51.4435 167.391 50.9786C166.496 51.7509 165.458 52.3657 164.353 52.7756C164.325 52.7831 164.297 52.7881 164.267 52.7881Z" fill="#606060"/>
<path d="M151.795 60.2888C151.704 60.2888 151.616 60.2389 151.574 60.1564C151.247 59.5466 151.315 58.7667 151.739 58.2193C151.807 58.1319 151.925 58.0969 152.031 58.1394L153.453 58.6892C155.081 58.2918 156.85 58.4742 158.366 59.1915L158.916 58.0119C158.951 57.9344 159.024 57.8819 159.109 57.8694C159.192 57.8569 159.28 57.8894 159.336 57.9544C160.024 58.7542 160.775 59.5364 161.72 59.5814C162.112 59.6039 162.494 59.3641 162.738 59.0641C162.567 58.8392 162.471 58.5518 162.482 58.2694C162.492 57.9745 162.617 57.722 162.836 57.5596C162.931 57.4871 163.067 57.4945 163.158 57.577C163.524 57.9169 163.615 58.4268 163.396 58.9417L163.384 58.9717C163.695 59.1542 164.105 59.1891 164.474 59.1966C165.401 59.2166 166.326 59.1042 167.223 58.8617C167.316 58.8367 167.414 58.8066 167.515 58.7742L167.482 58.7392C167.186 58.4118 167.118 57.8695 167.321 57.4496C167.472 57.1372 167.753 56.9597 168.07 56.9797C168.346 56.9947 168.588 57.1572 168.733 57.4221C168.912 57.7495 168.909 58.1768 168.728 58.4868C168.683 58.5667 168.628 58.6393 168.57 58.7043C168.57 58.7043 168.585 58.7043 168.59 58.7043C168.879 58.7043 169.14 58.5968 169.314 58.4119C169.414 58.3019 169.487 58.1643 169.522 58.0119C169.216 57.647 169.06 57.1996 169.088 56.7547C169.093 56.6623 169.15 56.5822 169.233 56.5422C169.319 56.5022 169.417 56.5149 169.49 56.5698C169.806 56.8098 170.01 57.192 170.048 57.6169C170.055 57.6919 170.055 57.767 170.053 57.8395C170.359 58.1219 170.746 58.2594 171.11 58.2169C171.482 58.1719 171.829 57.9444 172.06 57.5895C172.176 57.4145 172.249 57.2271 172.284 57.0371C172.186 56.8047 172.173 56.5573 172.254 56.3174C172.286 56.2149 172.384 56.1449 172.492 56.1449H172.495C172.606 56.1449 172.701 56.2174 172.734 56.3198C172.797 56.5223 172.819 56.7322 172.802 56.9447C172.822 56.9746 172.842 57.0022 172.862 57.0272C173.078 57.2946 173.455 57.4595 173.779 57.427C174.397 57.367 174.91 56.9297 175.468 56.4048C175.518 56.3573 175.586 56.3299 175.659 56.3374C175.729 56.3424 175.794 56.3773 175.837 56.4323C176.397 57.1396 177.392 57.4995 178.44 57.3671C179.486 57.2346 180.363 56.6398 180.727 55.815C180.762 55.7326 180.84 55.6775 180.93 55.6675C181.018 55.6575 181.106 55.6976 181.159 55.77C181.647 56.4374 182.481 56.8522 183.295 56.8347H183.297C183.436 56.8347 183.549 56.9446 183.549 57.0821C183.551 57.2196 183.438 57.3346 183.3 57.3346C182.425 57.3446 181.591 56.9822 181.001 56.3648C180.498 57.1771 179.591 57.7269 178.501 57.8644C177.362 58.0068 176.309 57.6671 175.618 56.9473C175.156 57.3721 174.56 57.8545 173.824 57.9245C173.417 57.9645 172.975 57.8095 172.656 57.5346C172.608 57.6445 172.55 57.7545 172.482 57.8595C172.168 58.3394 171.691 58.6493 171.171 58.7118C170.739 58.7618 170.301 58.6418 169.924 58.3794C169.864 58.5143 169.784 58.6392 169.683 58.7467C169.417 59.0341 169.017 59.2016 168.59 59.2016H168.583C168.389 59.2016 168.201 59.1666 168.027 59.0991C167.806 59.2091 167.572 59.2816 167.359 59.339C166.417 59.594 165.452 59.7114 164.467 59.6914C164.05 59.6839 163.539 59.6365 163.122 59.3891C162.791 59.789 162.288 60.1039 161.7 60.0789C160.682 60.0289 159.908 59.339 159.212 58.5667L158.715 59.6315C158.687 59.694 158.632 59.7414 158.567 59.7639C158.501 59.7864 158.431 59.7789 158.371 59.7489C156.893 58.9791 155.119 58.7741 153.503 59.1915C153.453 59.204 153.398 59.2016 153.35 59.1816L152.043 58.6767C152.008 58.7417 151.978 58.8091 151.955 58.8791C152.033 58.9241 152.084 59.0066 152.081 59.1041L152.056 60.0488C152.054 60.1613 151.973 60.2588 151.863 60.2838C151.835 60.2863 151.815 60.2888 151.795 60.2888ZM168.022 57.472C167.914 57.472 167.829 57.5345 167.771 57.6595C167.658 57.8919 167.696 58.2243 167.851 58.3968C167.897 58.4467 167.947 58.4892 168.002 58.5267C168.118 58.4442 168.218 58.3468 168.289 58.2268C168.382 58.0694 168.379 57.827 168.286 57.652C168.243 57.572 168.165 57.4771 168.037 57.4696C168.037 57.4721 168.027 57.472 168.022 57.472ZM162.987 58.2193C162.984 58.2418 162.982 58.2643 162.982 58.2843C162.979 58.3493 162.987 58.4167 163.004 58.4817C163.014 58.3967 163.012 58.3068 162.987 58.2193Z" fill="#606060"/>
<path d="M169.017 69.4135C168.941 69.4135 168.863 69.4061 168.783 69.3861C168.65 69.3561 168.567 69.2261 168.595 69.0937C168.683 68.6413 168.23 68.1964 167.753 68.064C167.346 67.9515 166.914 67.9815 166.454 68.0115C166.3 68.0215 166.147 68.0314 165.996 68.0363C165.127 68.0663 164.248 67.929 163.393 67.799C161.868 67.564 160.428 67.3441 159.172 68.0089C159.049 68.0739 158.923 68.1489 158.797 68.2214C158.179 68.5813 157.481 68.9887 156.787 68.6388C156.491 68.4888 156.285 68.2314 156.084 67.9814C155.822 67.659 155.646 67.4591 155.408 67.4591H155.393C155.139 67.4666 154.975 67.694 154.737 68.0664C154.561 68.3388 154.362 68.6487 154.061 68.8311C153.701 69.0511 153.294 69.0536 152.915 68.8436C152.598 68.6687 152.317 68.3464 152.118 67.9665C152.076 67.9915 152.03 68.0039 151.975 68.0014C151.837 67.9939 151.731 67.8739 151.739 67.7364L151.802 66.7467C151.809 66.6118 151.907 66.4893 152.061 66.5118C152.196 66.5168 152.304 66.6269 152.304 66.7618C152.304 67.3966 152.696 68.1489 153.161 68.4089C153.385 68.5338 153.593 68.5312 153.799 68.4063C154.003 68.2838 154.154 68.0489 154.314 67.799C154.561 67.4141 154.842 66.9791 155.377 66.9617C155.877 66.9367 156.202 67.3315 156.476 67.6715C156.649 67.8889 156.815 68.0939 157.016 68.1964C157.463 68.4238 157.988 68.1164 158.544 67.794C158.677 67.7165 158.81 67.639 158.938 67.5715C160.343 66.8292 161.933 67.0742 163.471 67.3092C164.303 67.4366 165.16 67.5665 165.981 67.5415C166.127 67.5365 166.273 67.5265 166.421 67.5165C166.901 67.484 167.399 67.4491 167.889 67.584C168.489 67.7515 169.062 68.2789 169.105 68.9037C169.379 68.8512 169.645 68.5913 169.921 68.3189C170.019 68.2239 170.115 68.129 170.213 68.044C170.595 67.7066 171.271 67.6091 171.69 67.8365C171.809 67.899 171.899 67.984 171.957 68.0839L174.738 66.3493C174.811 66.3043 174.904 66.2993 174.985 66.3368C175.063 66.3768 175.115 66.4518 175.123 66.5393C175.168 67.0391 175.349 67.5215 175.643 67.9264C176.09 67.3965 176.817 67.1117 177.628 67.1742C178.397 67.2316 179.05 67.5866 179.422 68.1289C179.927 67.5766 180.822 67.449 181.505 67.3516C183.292 67.0966 185.041 66.4518 186.561 65.4845C186.677 65.4121 186.832 65.4446 186.908 65.5596C186.983 65.6771 186.948 65.8295 186.832 65.9045C185.252 66.9092 183.435 67.5815 181.578 67.8464C180.832 67.9539 179.905 68.0865 179.631 68.7213C179.591 68.8138 179.505 68.8737 179.395 68.8712C179.292 68.8687 179.201 68.8038 179.166 68.7088C178.905 68.0115 178.181 67.7164 177.593 67.6715C177 67.6265 176.244 67.8115 175.882 68.4613C175.842 68.5313 175.771 68.5787 175.691 68.5887C175.61 68.5987 175.53 68.5688 175.477 68.5088C175.08 68.0789 174.806 67.544 174.686 66.9742L171.927 68.6963C171.844 68.7488 171.736 68.7462 171.655 68.6937C171.572 68.6412 171.53 68.5437 171.545 68.4462C171.555 68.3738 171.545 68.3214 171.457 68.2739C171.248 68.1614 170.798 68.1989 170.552 68.4163C170.462 68.4963 170.371 68.5837 170.281 68.6737C169.919 69.0236 169.524 69.4135 169.017 69.4135Z" fill="#606060"/>
<path d="M117.319 82.7044C115.625 82.7044 114.032 82.5469 112.519 82.2319C112.429 82.2119 103.473 80.1901 103.885 76.7985C104.021 75.6788 105.79 74.2967 107.212 73.187C107.662 72.8346 108.051 72.5321 108.298 72.3046C109.878 70.8375 111.461 69.3755 113.049 67.9158C120.716 60.8802 126.721 55.6291 132.529 50.8879C132.599 50.8304 132.692 50.8154 132.777 50.8479C137.353 52.585 140.434 57.851 140.102 63.367C139.753 69.1755 136.235 73.8867 133.345 76.8159C131.486 78.7004 129.797 79.9576 128.031 80.7699C126.365 81.5347 124.571 81.9121 123.191 82.152C121.095 82.5194 119.148 82.7044 117.319 82.7044Z" fill="#4A2400"/>
<path d="M101.19 75.8741C100.602 75.8741 99.9438 75.5192 99.0694 74.6144C97.8004 73.2972 96.8255 71.5353 96.2525 69.5158C95.4183 66.5766 95.466 63.5024 95.5087 60.5282C95.5163 60.1008 95.5464 59.6559 95.8505 59.331C96.1219 59.0411 96.5189 58.9611 96.8656 58.9086C101.137 58.2538 105.452 58.8785 109.623 59.4834L118.855 60.8231C118.94 60.8356 119.011 60.8881 119.048 60.9655C119.084 61.043 119.079 61.133 119.031 61.2055C118.149 62.5676 116.827 63.5524 115.546 64.5046L115.433 64.5896C111.543 67.4913 107.736 70.6029 104.12 73.842C103.866 74.0695 103.635 74.287 103.419 74.4895C102.597 75.2693 101.957 75.8741 101.19 75.8741Z" fill="#025A82"/>
<path d="M120.355 59.4704C120.274 59.4704 120.196 59.4655 120.119 59.4555C117.965 59.1731 117.857 53.5321 117.932 47.7786C117.945 46.7964 117.955 46.0215 117.932 45.5616C117.907 45.0368 117.877 44.4395 118.101 43.8922C118.402 43.1524 119.171 42.5825 120.101 42.4076C120.933 42.2501 121.762 42.3925 122.533 42.5675C124.106 42.9249 125.647 43.4697 127.134 43.9996C129.376 44.7969 131.841 45.8317 132.715 48.0486C132.806 48.2811 132.906 48.5885 132.863 48.9209C132.798 49.4208 132.444 49.7881 132.069 50.1155C131.896 50.8703 130.127 52.2975 127.014 54.5969C126.398 55.0517 125.91 55.4116 125.704 55.589C125.443 55.814 125.119 56.1414 124.745 56.5188C123.503 57.7735 121.825 59.4704 120.355 59.4704Z" fill="#363F4C"/>
<path d="M118.075 58.4736C118.013 58.4736 117.95 58.4486 117.902 58.4036C117.417 57.9362 116.94 57.4615 116.462 56.9866C115.545 56.0718 114.595 55.1246 113.585 54.2523C111.648 52.5778 109.821 50.7433 108.16 48.7988C108.059 48.6813 107.924 48.5213 107.868 48.3138C107.783 47.9964 107.911 47.6941 108.049 47.4391C109.293 45.1297 111.989 43.6376 114.628 43.8076C114.927 43.8276 115.301 43.885 115.54 44.1624C115.738 44.3923 115.774 44.6974 115.796 44.9198C116.181 48.4214 116.945 51.8779 117.681 55.2195C117.897 56.1992 118.113 57.184 118.322 58.1713C118.344 58.2788 118.294 58.3886 118.199 58.4411C118.158 58.4636 118.116 58.4736 118.075 58.4736Z" fill="#1FDE82"/>
<path d="M117.002 59.6986C114.914 59.6986 112.733 58.8613 110.61 58.0441C108.668 57.2993 106.66 56.527 104.798 56.4396C104.283 56.4171 103.745 56.427 103.225 56.437C101.853 56.4645 100.438 56.4896 99.1617 55.9122C98.9632 55.8222 98.7471 55.6998 98.634 55.4698C98.5059 55.2049 98.5687 54.93 98.6567 54.67C99.3753 52.5556 100.75 50.636 102.524 49.2714C102.775 49.0789 103.072 48.864 103.431 48.7616C103.835 48.6466 104.29 48.6716 104.866 48.8465C106.833 49.4439 108.278 50.966 109.678 52.4381C109.914 52.688 110.153 52.938 110.389 53.1804C112.623 55.4648 115.163 57.0644 117.852 58.7565L118.427 59.1188C118.515 59.1737 118.558 59.2763 118.54 59.3763C118.523 59.4762 118.442 59.5563 118.342 59.5762C117.905 59.6587 117.455 59.6986 117.002 59.6986Z" fill="#BFBFBF"/>
<path d="M110.281 102.412C110.281 102.412 110.238 102.41 110.218 102.405C110.15 102.387 110.095 102.344 110.062 102.284C109.63 101.515 109.429 100.622 109.476 99.7427C108.298 100.942 106.682 101.722 105.004 101.877C104.868 101.892 104.747 101.792 104.732 101.66C104.692 101.342 104.685 101.022 104.705 100.705C104.318 101.032 103.896 101.32 103.443 101.552C103.32 101.615 103.169 101.567 103.104 101.445C103.041 101.322 103.089 101.172 103.212 101.107C103.805 100.802 104.345 100.397 104.813 99.9201C105.049 98.8254 105.629 97.8057 106.476 97.0559C106.559 96.9834 106.682 96.9734 106.775 97.0309C106.871 97.0884 106.913 97.2009 106.886 97.3084C106.597 98.3681 106.031 99.3528 105.278 100.16C105.205 100.552 105.18 100.955 105.207 101.352C106.949 101.122 108.595 100.173 109.65 98.7754C109.723 98.6804 109.853 98.648 109.959 98.7005C110.067 98.7505 110.125 98.8703 110.095 98.9853C109.861 99.9201 109.964 100.935 110.379 101.805C111.982 100.78 113.404 99.5153 114.605 98.0432C114.67 97.9632 114.776 97.9306 114.874 97.9631C114.972 97.9931 115.042 98.0806 115.05 98.1831C115.077 98.558 115.276 100.423 116.369 100.438H116.382C116.804 100.438 117.196 100.133 117.527 99.8452C118.545 98.968 119.477 97.9832 120.299 96.9235C120.354 96.8535 120.442 96.8159 120.53 96.8284C120.618 96.8409 120.696 96.8984 120.729 96.9808C120.952 97.5157 120.857 98.0731 120.764 98.6105C120.729 98.8179 120.691 99.0254 120.679 99.2303C120.646 99.6402 120.809 100.105 121.065 100.337C121.199 100.457 121.339 100.5 121.495 100.472C121.674 100.44 121.842 100.305 121.968 100.19C122.289 99.9002 122.556 99.5477 122.757 99.1603C122.654 98.9153 122.593 98.648 122.588 98.3705C122.576 97.7457 122.837 97.2233 123.309 96.9334C123.385 96.8884 123.478 96.8835 123.556 96.9235C123.634 96.9635 123.686 97.0409 123.691 97.1284C123.739 97.8282 123.606 98.528 123.319 99.1578C123.445 99.3678 123.613 99.5427 123.812 99.6527C124.533 100.053 125.428 99.8476 126.086 99.4077C125.923 99.0978 125.845 98.7404 125.872 98.398C125.943 97.5432 126.491 96.8285 126.933 96.2536C126.981 96.1912 127.053 96.1562 127.131 96.1562C127.209 96.1562 127.282 96.1937 127.33 96.2536C128.049 97.1859 127.669 98.5805 126.885 99.3903C126.85 99.4278 126.81 99.4653 126.772 99.5028C126.9 99.6252 127.106 99.7602 127.368 99.7427C127.654 99.7277 127.928 99.5502 128.164 99.3853C129.121 98.718 129.958 97.9032 130.654 96.9685C130.725 96.876 130.848 96.8435 130.953 96.886C131.061 96.9309 131.122 97.0408 131.104 97.1558C131.026 97.6432 131.107 98.1556 131.32 98.6004L135.087 96.2036C135.426 95.9862 135.851 95.7163 136.341 95.6813C137.439 95.6113 138.009 96.546 138.562 97.4557C138.786 97.8231 139.019 98.2032 139.276 98.4981C140.175 99.5228 141.738 99.6528 142.884 99.3253C144.226 98.9429 145.351 98.0107 146.276 97.1509C146.377 97.0585 146.533 97.0609 146.628 97.1584C146.723 97.2559 146.721 97.4132 146.625 97.5082C146.359 97.7731 146.472 98.1056 146.563 98.2781C146.779 98.6905 147.304 99.0653 147.814 98.9778C148.734 98.8204 149.349 97.9432 149.902 97.0609C149.97 96.9535 150.103 96.9134 150.219 96.9659C150.334 97.0184 150.392 97.1458 150.357 97.2658C150.209 97.7607 150.319 98.3231 150.656 98.8105C151.02 99.3354 151.578 99.6728 152.151 99.7152C153.224 99.7952 154.297 98.9429 154.548 97.8482C154.516 97.7358 154.538 97.6008 154.656 97.4783C154.732 97.4008 154.85 97.3808 154.945 97.4258C155.036 97.4683 155.091 97.5608 155.089 97.6607C155.164 97.6657 155.262 97.6533 155.317 97.6133L158.066 95.5088C158.142 95.4513 158.242 95.4388 158.328 95.4813C158.413 95.5213 158.468 95.6063 158.471 95.7013C158.488 96.541 158.544 97.3358 159.031 97.8557C159.282 98.1231 159.747 98.2331 160.129 98.1207C160.308 98.0682 160.529 97.9507 160.579 97.6807C160.604 97.5458 160.737 97.4557 160.87 97.4807C161.006 97.5057 161.097 97.6357 161.071 97.7732C160.996 98.1731 160.705 98.4756 160.27 98.603C159.704 98.7705 159.044 98.603 158.664 98.2006C158.164 97.6707 158.026 96.9459 157.983 96.2036L155.621 98.0131C155.453 98.1406 155.199 98.188 154.985 98.158C154.604 99.3877 153.365 100.31 152.113 100.22C151.392 100.165 150.694 99.7477 150.244 99.1003C150.023 98.7829 149.882 98.4381 149.822 98.0882C149.327 98.7555 148.721 99.3353 147.9 99.4777C147.138 99.6077 146.412 99.0803 146.118 98.5155C146.045 98.378 145.997 98.2382 145.975 98.1007C145.138 98.813 144.16 99.4878 143.022 99.8127C141.723 100.183 139.944 100.023 138.896 98.8329C138.61 98.5055 138.366 98.1082 138.13 97.7233C137.63 96.906 137.175 96.1287 136.371 96.1887C136.009 96.2137 135.66 96.4361 135.353 96.631L131.363 99.1728C131.308 99.2103 131.237 99.2203 131.172 99.2053C131.107 99.1903 131.049 99.1503 131.014 99.0929C130.78 98.7205 130.634 98.2931 130.586 97.8557C129.961 98.5905 129.242 99.2428 128.448 99.7976C128.134 100.018 127.79 100.223 127.39 100.245C127.023 100.27 126.664 100.118 126.38 99.8277L126.37 99.8176C125.566 100.365 124.475 100.6 123.561 100.093C123.365 99.9852 123.191 99.8352 123.048 99.6577C122.842 99.9901 122.591 100.293 122.299 100.557C122.123 100.717 121.882 100.907 121.576 100.962C121.266 101.017 120.967 100.927 120.721 100.705C120.347 100.37 120.126 99.7602 120.168 99.1903C120.186 98.9704 120.224 98.748 120.261 98.5255C120.314 98.2206 120.364 97.9257 120.354 97.6482C119.598 98.5755 118.756 99.4403 117.847 100.223C117.409 100.598 116.927 100.94 116.351 100.937C115.467 100.925 114.836 100.14 114.61 98.8055C113.396 100.2 111.984 101.4 110.404 102.374C110.371 102.397 110.326 102.412 110.281 102.412ZM127.106 96.8535C126.764 97.3158 126.423 97.8556 126.372 98.438C126.355 98.6504 126.398 98.8778 126.486 99.0828C126.498 99.0703 126.511 99.0578 126.523 99.0428C127.079 98.468 127.395 97.5558 127.106 96.8535ZM123.169 97.8607C123.123 97.9857 123.096 98.1232 123.091 98.2706C123.123 98.1382 123.151 98.0007 123.169 97.8607Z" fill="#606060"/>
<path d="M178.935 98.5282C178.704 98.5282 178.485 98.4832 178.284 98.3957C177.566 98.0758 177.297 97.3135 177.204 96.6837L176.131 97.6135C176.003 97.7235 175.827 97.8759 175.593 97.9209C175.131 98.0108 174.721 97.6159 174.626 97.1986C174.588 97.0336 174.588 96.8686 174.608 96.7112C173.513 97.2935 172.339 97.7134 171.118 97.9558C170.603 98.0583 170.012 98.1184 169.547 97.7885C169.005 97.4061 168.877 96.7161 169.163 95.8413C168.208 96.5062 167.253 97.166 166.291 97.8208C166.05 97.9858 165.718 98.2107 165.326 98.2107H165.316C165.035 98.2082 164.781 98.0984 164.58 97.8934C164.067 97.366 164.05 96.3738 164.057 96.0839C164.062 95.9464 164.18 95.8463 164.313 95.8413C164.452 95.8438 164.562 95.9589 164.56 96.0964C164.544 96.7237 164.695 97.2935 164.942 97.5459C165.047 97.6559 165.173 97.7085 165.321 97.711H165.326C165.545 97.711 165.763 97.5735 166.01 97.406C167.216 96.5837 168.414 95.7539 169.61 94.9166C169.706 94.8491 169.834 94.8567 169.922 94.9341C170.01 95.0116 170.03 95.1391 169.975 95.2391C169.769 95.6165 169.148 96.8861 169.839 97.376C170.151 97.5959 170.61 97.5434 171.02 97.4609C172.377 97.191 173.668 96.6962 174.857 95.9939C174.945 95.9414 175.058 95.9488 175.141 96.0113C175.221 96.0738 175.257 96.1814 175.226 96.2788C175.149 96.5388 175.061 96.8312 175.118 97.0811C175.159 97.2635 175.339 97.4559 175.5 97.4234C175.601 97.4059 175.706 97.3135 175.802 97.231L177.244 95.9814C177.317 95.9189 177.423 95.9039 177.508 95.9414C177.596 95.9789 177.656 96.0664 177.659 96.1614C177.674 96.5913 177.782 97.6209 178.488 97.9358C178.882 98.1108 179.425 98.0208 179.94 97.6959C180.202 97.5309 180.435 97.331 180.682 97.1211C180.888 96.9461 181.099 96.7662 181.327 96.6062C182.395 95.8589 183.785 95.6165 185.046 95.9564C185.18 95.9914 185.26 96.1288 185.222 96.2613C185.187 96.3938 185.051 96.4763 184.913 96.4363C183.795 96.1339 182.564 96.3512 181.614 97.0135C181.405 97.161 181.212 97.326 181.006 97.5009C180.754 97.7133 180.496 97.9333 180.207 98.1183C179.785 98.3907 179.345 98.5282 178.935 98.5282Z" fill="#606060"/>
<path d="M184.582 108.61C184.494 108.61 184.411 108.565 184.363 108.485C183.866 107.623 183.396 106.733 182.971 105.838C182.489 105.921 182.109 106.331 181.707 106.763C181.297 107.205 180.875 107.66 180.29 107.848C179.38 108.14 178.488 107.643 178.038 107.32C177.759 107.121 177.503 106.896 177.254 106.676C176.96 106.416 176.681 106.168 176.37 105.966C175.498 105.396 174.372 105.199 173.36 105.444C172.99 105.534 172.608 105.681 172.236 105.823C171.38 106.156 170.49 106.498 169.583 106.203C169.176 106.071 168.837 105.826 168.51 105.588C168.241 105.394 167.987 105.211 167.703 105.091C167.085 104.831 166.311 104.934 165.779 105.343C165.706 105.401 165.608 105.411 165.522 105.376C165.437 105.338 165.381 105.259 165.374 105.166C165.366 105.061 165.351 104.961 165.329 104.859C164.806 105.404 164.173 105.841 163.472 106.131C163.346 106.183 163.198 106.123 163.143 105.996C163.09 105.868 163.15 105.723 163.276 105.668C164.035 105.353 164.711 104.849 165.228 104.211C165.284 104.144 165.366 104.109 165.454 104.121C165.54 104.131 165.615 104.186 165.65 104.266C165.718 104.416 165.774 104.571 165.811 104.729C166.447 104.394 167.226 104.349 167.897 104.629C168.233 104.769 168.522 104.979 168.801 105.181C169.11 105.406 169.402 105.616 169.734 105.723C170.472 105.963 171.239 105.668 172.048 105.354C172.435 105.204 172.832 105.051 173.234 104.954C174.382 104.679 175.654 104.899 176.639 105.543C176.98 105.768 177.287 106.038 177.581 106.298C177.832 106.518 178.066 106.728 178.325 106.913C178.961 107.368 179.619 107.533 180.129 107.371C180.589 107.223 180.948 106.836 181.33 106.423C181.825 105.888 182.338 105.333 183.112 105.323H183.117C183.215 105.323 183.303 105.379 183.345 105.469C183.785 106.403 184.273 107.335 184.793 108.238C184.863 108.358 184.82 108.51 184.7 108.578C184.667 108.598 184.624 108.61 184.582 108.61Z" fill="#606060"/>
<path d="M125.486 109.93C125.42 109.93 125.358 109.928 125.292 109.925C123.445 109.833 121.709 108.553 120.923 106.756C120.36 107.546 119.749 108.228 118.862 108.476C118.241 108.651 117.48 108.448 116.988 107.988C116.957 108.066 116.922 108.141 116.882 108.216C116.533 108.881 115.859 109.425 115.123 109.635C113.872 109.993 112.532 109.638 111.454 109.353C111.321 109.318 111.241 109.18 111.276 109.048C111.311 108.915 111.447 108.836 111.583 108.87C112.6 109.14 113.864 109.475 114.982 109.155C115.59 108.983 116.146 108.533 116.435 107.986C116.508 107.846 116.58 107.668 116.613 107.468C116.503 107.209 116.48 106.929 116.555 106.654C116.586 106.549 116.678 106.474 116.789 106.469C116.905 106.454 116.998 106.534 117.035 106.639C117.118 106.879 117.148 107.128 117.131 107.381C117.186 107.473 117.254 107.551 117.307 107.603C117.668 107.961 118.264 108.126 118.726 107.996C119.593 107.753 120.191 106.951 120.779 106.084C120.832 106.004 120.925 105.964 121.023 105.976C121.119 105.989 121.196 106.054 121.227 106.146C121.84 107.988 123.523 109.34 125.32 109.428C126.596 109.49 127.843 108.843 128.577 107.873C128.561 107.801 128.551 107.728 128.544 107.658C128.473 106.934 128.793 106.341 129.376 106.109C129.458 106.076 129.551 106.089 129.622 106.141C129.692 106.194 129.73 106.281 129.72 106.369C129.657 106.939 129.443 107.481 129.122 107.963C129.26 108.371 129.564 108.743 129.996 108.823C130.426 108.903 130.876 108.768 131.265 108.443C131.753 108.033 132.049 107.408 132.042 106.809C132.039 106.699 132.109 106.601 132.215 106.566C132.321 106.531 132.434 106.571 132.499 106.659C133.371 107.883 135.328 107.726 136.741 107.216C137.027 107.113 137.316 106.999 137.605 106.884C138.899 106.374 140.236 105.844 141.615 106.156C141.942 106.229 142.276 106.349 142.598 106.461C143.392 106.744 144.143 107.009 144.721 106.609C144.832 106.531 144.94 106.426 145.053 106.319C145.307 106.071 145.596 105.789 146.013 105.784C146.653 105.776 146.925 106.361 147.148 106.879C147.299 107.223 147.455 107.583 147.709 107.748C148.154 108.036 148.797 107.673 149.209 107.214C149.294 107.116 149.38 107.016 149.465 106.916C149.86 106.444 150.269 105.956 150.903 105.809C151.563 105.654 152.227 105.926 152.868 106.189C153.692 106.526 154.219 106.701 154.604 106.319C154.702 106.221 154.86 106.221 154.958 106.319C155.056 106.416 155.056 106.574 154.958 106.671C154.31 107.316 153.478 106.978 152.674 106.651C152.106 106.419 151.518 106.179 151.016 106.296C150.546 106.406 150.209 106.809 149.85 107.236C149.762 107.341 149.674 107.446 149.583 107.546C149.015 108.181 148.128 108.618 147.435 108.166C147.053 107.918 146.859 107.471 146.689 107.076C146.475 106.586 146.329 106.284 146.025 106.284H146.018C145.799 106.286 145.616 106.466 145.402 106.676C145.279 106.796 145.153 106.919 145.005 107.021C144.216 107.568 143.306 107.246 142.427 106.934C142.118 106.824 141.801 106.711 141.502 106.644C140.276 106.369 139.012 106.866 137.788 107.348C137.494 107.466 137.2 107.581 136.909 107.686C135.444 108.213 133.597 108.366 132.479 107.381C132.348 107.928 132.034 108.451 131.589 108.823C131.084 109.245 130.481 109.418 129.906 109.31C129.373 109.21 128.994 108.845 128.773 108.416C127.958 109.328 126.745 109.93 125.486 109.93Z" fill="#606060"/>
<path d="M105.931 122.199C104.944 122.199 104.089 121.512 103.386 120.152C103.461 120.509 103.627 120.847 103.871 121.119C103.964 121.222 103.956 121.379 103.851 121.472C103.748 121.564 103.589 121.554 103.496 121.452C102.908 120.802 102.69 119.84 102.939 119.002C102.969 118.9 103.062 118.827 103.17 118.822C103.258 118.812 103.376 118.882 103.413 118.982C104.132 120.844 105.022 121.754 106.032 121.694C106.695 121.654 107.23 121.197 107.796 120.714C108.178 120.389 108.57 120.052 109.027 119.827C110.507 119.095 112.07 119.697 113.583 120.279C114.605 120.672 115.663 121.079 116.693 121.079H116.701C117.329 121.079 117.988 120.922 118.621 120.772C119.664 120.524 120.742 120.267 121.777 120.664C122.066 120.774 122.33 120.929 122.583 121.079C122.852 121.239 123.109 121.389 123.382 121.484C124.375 121.826 125.468 121.394 126.523 120.977L126.888 120.834C130.001 119.63 133.504 119.402 136.751 120.189C136.886 120.222 136.969 120.357 136.934 120.492C136.901 120.627 136.763 120.709 136.63 120.674C133.484 119.91 130.089 120.134 127.069 121.299L126.709 121.442C125.621 121.872 124.388 122.361 123.219 121.959C122.895 121.849 122.606 121.676 122.327 121.511C122.081 121.367 121.847 121.229 121.598 121.132C120.709 120.792 119.754 121.019 118.739 121.259C118.076 121.417 117.392 121.579 116.704 121.582H116.693C115.57 121.582 114.467 121.157 113.402 120.747C111.927 120.179 110.532 119.642 109.253 120.277C108.854 120.474 108.484 120.789 108.125 121.097C107.522 121.612 106.899 122.144 106.067 122.196C106.022 122.196 105.976 122.199 105.931 122.199Z" fill="#606060"/>
<path d="M144.754 121.809C144.694 121.809 144.634 121.807 144.573 121.802C143.965 121.744 143.395 121.399 143.01 120.855C142.626 120.31 142.49 119.66 142.641 119.073C142.676 118.94 142.809 118.855 142.945 118.893C143.078 118.925 143.161 119.063 143.126 119.198C143.01 119.642 143.118 120.142 143.42 120.567C143.721 120.992 144.159 121.26 144.618 121.305C145.091 121.35 145.561 121.165 145.935 120.805C146.179 120.572 146.347 120.292 146.43 120C146.39 119.792 146.415 119.582 146.508 119.39C146.558 119.287 146.669 119.23 146.782 119.253C146.895 119.275 146.978 119.37 146.985 119.483C146.996 119.653 146.983 119.825 146.948 119.995C146.97 120.057 147.003 120.112 147.033 120.16C147.229 120.447 147.619 120.64 147.94 120.617C148.581 120.572 149.131 120.097 149.664 119.64C150.325 119.07 151.023 118.573 151.835 118.638C152.617 118.698 153.169 119.238 153.707 119.757C153.906 119.95 154.092 120.132 154.29 120.29C155.481 121.245 157.32 121.304 158.569 120.425L158.758 120.29C159.399 119.83 160.276 119.197 161.004 119.755C161.153 119.867 161.258 120.012 161.351 120.142C161.439 120.265 161.524 120.38 161.625 120.445C161.964 120.66 162.459 120.352 162.896 120.08C165.08 118.725 167.696 118.94 170.226 119.148C172.405 119.325 174.661 119.513 176.609 118.695C176.832 118.603 177.051 118.495 177.27 118.39C177.518 118.268 177.77 118.148 178.028 118.043C178.516 117.845 179.026 117.713 179.518 117.583L183.376 116.568C183.511 116.533 183.647 116.613 183.682 116.746C183.717 116.878 183.637 117.016 183.504 117.051L179.644 118.065C179.167 118.19 178.672 118.32 178.214 118.505C177.968 118.605 177.727 118.723 177.488 118.838C177.262 118.948 177.036 119.058 176.805 119.155C174.742 120.02 172.427 119.83 170.183 119.645C167.623 119.435 165.203 119.235 163.178 120.492C162.653 120.817 161.959 121.25 161.354 120.865C161.17 120.747 161.049 120.58 160.941 120.432C160.861 120.322 160.786 120.217 160.698 120.15C160.298 119.845 159.74 120.197 159.052 120.692L158.858 120.83C157.431 121.834 155.333 121.767 153.974 120.675C153.757 120.5 153.554 120.302 153.355 120.11C152.863 119.63 152.396 119.177 151.797 119.13C151.162 119.078 150.574 119.513 150.026 119.985C149.428 120.5 148.787 121.055 147.978 121.112C147.523 121.145 147.046 120.935 146.734 120.582C146.621 120.792 146.47 120.987 146.289 121.162C145.852 121.579 145.304 121.809 144.754 121.809Z" fill="#606060"/>
<path d="M179.441 128.273C179.368 128.273 179.295 128.24 179.245 128.18C178.752 127.57 178.287 126.926 177.863 126.258C176.775 127.083 175.516 127.873 174.166 127.61C173.666 127.513 173.224 127.283 172.794 127.058C172.518 126.913 172.257 126.778 171.983 126.673C170.814 126.236 169.565 126.448 168.246 126.673C167.487 126.803 166.703 126.936 165.929 126.938H165.907C165.429 126.938 164.929 126.893 164.444 126.851C163.065 126.728 161.761 126.611 160.851 127.428C160.808 127.465 160.768 127.505 160.725 127.545C160.537 127.728 160.323 127.933 160.017 127.993C159.625 128.07 159.261 127.868 159.019 127.733L155.848 125.956C153.798 127.343 151.23 127.945 148.772 127.615C148.634 127.598 148.538 127.47 148.559 127.333C148.576 127.195 148.699 127.103 148.84 127.118C151.227 127.44 153.722 126.833 155.69 125.456C155.77 125.401 155.873 125.396 155.959 125.443L159.266 127.295C159.499 127.425 159.728 127.54 159.916 127.5C160.077 127.468 160.22 127.33 160.374 127.183C160.419 127.138 160.464 127.096 160.512 127.053C161.585 126.091 163.06 126.221 164.485 126.348C164.957 126.391 165.447 126.433 165.902 126.433H165.922C166.656 126.431 167.417 126.301 168.156 126.176C169.485 125.951 170.859 125.716 172.154 126.201C172.458 126.313 172.744 126.466 173.023 126.611C173.438 126.828 173.83 127.033 174.257 127.115C175.491 127.355 176.719 126.506 177.77 125.691C177.825 125.646 177.898 125.628 177.968 125.641C178.038 125.653 178.099 125.696 178.137 125.756C178.589 126.488 179.091 127.195 179.629 127.86C179.717 127.968 179.7 128.125 179.591 128.213C179.551 128.253 179.496 128.273 179.441 128.273Z" fill="#606060"/>
<path d="M142.261 129.698C142.241 129.698 142.223 129.695 142.203 129.69C142.068 129.658 141.985 129.523 142.018 129.39C142.073 129.158 142 128.953 141.801 128.786C141.404 128.448 140.62 128.346 140.09 128.563C139.811 128.676 139.527 128.833 139.251 128.983C138.57 129.355 137.869 129.743 137.062 129.618C136.502 129.533 136.022 129.211 135.557 128.901C135.014 128.536 134.499 128.191 133.954 128.316C133.657 128.383 133.399 128.586 133.122 128.801C132.798 129.053 132.461 129.315 132.022 129.39C131.439 129.488 130.934 129.225 130.444 128.968C130.29 128.888 130.137 128.808 129.984 128.743C128.969 128.303 127.788 128.446 126.644 128.581C126.403 128.611 126.162 128.638 125.923 128.663C123.717 128.881 121.465 128.621 119.289 128.371C116.558 128.056 113.731 127.733 111.055 128.378C110.919 128.411 110.784 128.328 110.751 128.196C110.718 128.061 110.801 127.926 110.937 127.893C113.698 127.226 116.571 127.556 119.347 127.873C121.498 128.121 123.722 128.376 125.873 128.163C126.109 128.141 126.345 128.111 126.584 128.083C127.793 127.938 129.044 127.788 130.182 128.283C130.348 128.353 130.511 128.441 130.675 128.526C131.112 128.753 131.527 128.968 131.936 128.896C132.25 128.843 132.522 128.631 132.811 128.406C133.117 128.168 133.434 127.921 133.838 127.828C134.597 127.653 135.228 128.076 135.836 128.486C136.253 128.766 136.685 129.056 137.135 129.123C137.771 129.221 138.371 128.891 139.007 128.543C139.294 128.386 139.593 128.223 139.897 128.098C140.608 127.811 141.585 127.943 142.126 128.403C142.47 128.696 142.603 129.085 142.502 129.503C142.477 129.62 142.374 129.698 142.261 129.698Z" fill="#606060"/>
<path d="M121.247 88.2106C121.141 88.2106 121.028 88.1957 120.917 88.1557C120.407 87.9733 120.234 87.3834 120.289 86.9135C120.4 85.9888 121.216 85.2215 122.151 85.169C122.282 85.164 122.38 85.2414 122.41 85.3563C122.543 85.8762 122.445 86.4586 122.144 86.9559C121.958 87.2609 121.709 87.5133 121.42 87.6908C121.445 87.6858 121.468 87.6807 121.49 87.6783C122.254 87.5158 122.97 87.0235 123.548 86.2837C123.644 85.8488 123.888 85.4439 124.252 85.184C124.347 85.1165 124.473 85.124 124.561 85.1965C124.649 85.2689 124.677 85.3939 124.624 85.4964C124.445 85.8613 124.239 86.1987 124.013 86.4986C123.986 86.6985 124.001 86.906 124.063 87.096C124.672 86.7436 125.154 86.1637 125.38 85.5038C125.413 85.4089 125.498 85.3438 125.599 85.3363C125.752 85.3263 125.85 85.3838 125.905 85.4338C126.064 85.5763 126.069 85.8113 126.071 86.0162C126.071 86.0812 126.074 86.1462 126.081 86.2037C126.086 86.2487 126.104 86.3037 126.194 86.3486C126.363 86.4336 126.657 86.4111 126.855 86.3036C126.963 86.2437 127.066 86.1736 127.172 86.1037C127.471 85.9012 127.81 85.6739 128.225 85.6889C128.554 85.7014 128.828 85.8638 129.066 86.0088C129.2 86.0888 129.323 86.1637 129.451 86.2112C129.622 86.2762 129.86 86.2187 129.963 86.1212C130.016 86.0712 130.006 86.0412 129.999 86.0187C129.956 85.8887 130.029 85.7463 130.159 85.7038C130.293 85.6613 130.433 85.7337 130.476 85.8637C130.549 86.0886 130.489 86.3136 130.308 86.4811C130.054 86.721 129.607 86.8035 129.27 86.6736C129.102 86.6086 128.953 86.5187 128.808 86.4312C128.602 86.3062 128.406 86.1887 128.207 86.1812C127.956 86.1712 127.712 86.3362 127.456 86.5111C127.338 86.5911 127.222 86.6685 127.101 86.736C126.755 86.9259 126.29 86.951 125.971 86.791C125.752 86.6811 125.616 86.4961 125.586 86.2661V86.2586C125.232 86.866 124.689 87.3684 124.053 87.6633C123.935 87.7183 123.792 87.6733 123.729 87.5608C123.639 87.4008 123.576 87.2283 123.543 87.0484C122.973 87.6257 122.307 88.0106 121.603 88.1606C121.495 88.1906 121.375 88.2106 121.247 88.2106ZM121.963 85.7012C121.367 85.8362 120.865 86.3661 120.792 86.9735C120.774 87.1184 120.792 87.2833 120.845 87.4183C121.194 87.3033 121.505 87.0459 121.717 86.701C121.905 86.3886 121.99 86.0336 121.963 85.7012Z" fill="#606060"/>
<path d="M87.8897 63.945C87.847 63.945 87.8018 63.9324 87.7641 63.9099C87.6912 63.8674 87.646 63.795 87.641 63.7125C87.5932 63.0277 87.7113 62.3329 87.9852 61.7005C88.033 61.5906 88.151 61.5281 88.2691 61.5556C88.3872 61.5806 88.4702 61.6855 88.4677 61.8055L88.4526 62.4303C88.4501 62.5653 88.3395 62.6728 88.2063 62.6753C88.1687 62.8703 88.146 63.0652 88.1385 63.2626C88.6536 62.8927 89.0155 62.3154 89.116 61.6931C89.121 61.6506 89.126 61.608 89.1336 61.5655C89.1537 61.4306 89.2818 61.3381 89.415 61.3556C89.5507 61.3731 89.6462 61.4931 89.6311 61.6281C89.6261 61.6706 89.621 61.713 89.6135 61.7555C89.5884 62.0029 89.6034 62.2554 89.6562 62.5004C89.9904 62.4729 90.3095 62.5678 90.6211 62.6628C90.7744 62.7078 90.9277 62.7553 91.0835 62.7853C91.3423 62.8328 91.6815 62.7378 91.8348 62.5728C91.9253 62.4753 91.9177 62.3953 91.9026 62.3403C91.8675 62.2079 91.9479 62.0704 92.081 62.0354C92.2167 62.0004 92.3524 62.0804 92.3876 62.2154C92.453 62.4653 92.3876 62.7127 92.2017 62.9127C91.9303 63.2026 91.4227 63.3576 90.9905 63.2776C90.8171 63.2451 90.6462 63.1951 90.4729 63.1426C90.1387 63.0426 89.8246 62.9477 89.5431 63.0302C89.41 63.0701 89.2743 62.9952 89.2316 62.8677C89.2265 62.8502 89.2215 62.8353 89.214 62.8178C88.9225 63.2927 88.5003 63.6851 87.9953 63.925C87.9626 63.9375 87.9249 63.945 87.8897 63.945Z" fill="#606060"/>
<path d="M95.3783 50.5712C95.3205 50.5712 95.2627 50.5511 95.2174 50.5137C94.8958 50.2512 94.745 49.8688 94.8355 49.5439C94.8983 49.3165 95.1043 49.1291 95.3531 49.0741C95.5692 49.0266 95.7753 49.0916 95.9059 49.249C95.926 49.2715 95.9386 49.2964 95.9486 49.3239C96.0793 49.2665 96.2275 49.2366 96.3909 49.2541C96.7 49.2866 96.9262 49.479 97.1247 49.6464C97.195 49.7064 97.2628 49.7639 97.3357 49.8164C97.4463 49.8938 97.6297 49.9288 97.7327 49.8888C97.7754 49.8738 97.778 49.8563 97.783 49.8438C97.8157 49.7114 97.9539 49.6289 98.0871 49.6614C98.2227 49.6939 98.3031 49.8314 98.2705 49.9639C98.2227 50.1488 98.0946 50.2862 97.9086 50.3562C97.6498 50.4512 97.2981 50.3988 97.0493 50.2238C96.9639 50.1638 96.8809 50.0938 96.798 50.0238C96.6347 49.8839 96.4939 49.7639 96.3381 49.7489C96.1095 49.7239 95.8532 49.9538 95.5994 50.4337C95.5642 50.5012 95.5014 50.5487 95.426 50.5637C95.426 50.5687 95.3933 50.5712 95.3783 50.5712ZM95.4888 49.5615C95.4788 49.5615 95.4662 49.5639 95.4662 49.5639C95.3958 49.5789 95.333 49.629 95.3204 49.6765C95.3029 49.7415 95.3129 49.8138 95.3431 49.8838C95.4034 49.7938 95.4762 49.699 95.5592 49.6115C95.5441 49.599 95.529 49.5864 95.519 49.5714L95.4888 49.5615Z" fill="#606060"/>
<path d="M110.987 41.7556C110.598 41.7556 110.203 41.5181 109.994 41.1532C109.909 41.0008 109.864 40.8408 109.864 40.6858C109.816 40.5209 109.879 40.3384 110.037 40.1859C110.13 40.0959 110.276 40.0935 110.374 40.176C110.442 40.2335 110.472 40.3184 110.459 40.4009C110.505 40.4334 110.537 40.4784 110.555 40.5359C110.593 40.6733 110.537 40.8084 110.422 40.8834C110.422 40.8834 110.429 40.8984 110.434 40.9034C110.557 41.1183 110.814 41.2606 111.017 41.2531C111.623 41.2157 111.985 40.5409 112.08 40.3334C112.138 40.2085 112.286 40.1535 112.414 40.2109C112.54 40.2684 112.595 40.4184 112.535 40.5433C112.198 41.2631 111.643 41.7156 111.047 41.7506C111.027 41.7531 111.007 41.7556 110.987 41.7556Z" fill="#606060"/>
<path d="M130.383 41.383C129.936 41.383 129.586 41.0057 129.358 40.5383C129.039 40.8508 128.652 41.0982 128.234 41.2481C128.162 41.2731 128.084 41.2682 128.018 41.2282C127.953 41.1882 127.908 41.1231 127.9 41.0482C127.81 40.3883 127.767 39.7185 127.77 39.0487C127.27 39.4161 126.677 39.651 126.053 39.721C125.981 39.731 125.903 39.7035 125.85 39.651C125.797 39.5985 125.769 39.5235 125.774 39.4485C125.845 38.6937 126.171 37.9789 126.697 37.4316C126.78 37.3441 126.915 37.3292 127.016 37.3966C127.116 37.4641 127.156 37.5915 127.106 37.704L126.541 39.0112C126.501 39.1012 126.415 39.1561 126.322 39.1611V39.1662C126.898 39.0337 127.443 38.7312 127.853 38.3113C127.925 38.2363 128.036 38.2139 128.131 38.2564C128.227 38.2964 128.287 38.3939 128.282 38.4963C128.25 39.2137 128.275 39.9359 128.355 40.6482C128.697 40.4732 129.003 40.2184 129.237 39.916C129.295 39.8435 129.388 39.8084 129.478 39.8209C129.571 39.8359 129.647 39.9009 129.674 39.9884C129.792 40.3408 130.106 40.9757 130.486 40.8633C130.607 40.8258 130.717 40.7108 130.833 40.5858C130.885 40.5283 130.938 40.4733 130.993 40.4233C131.28 40.1559 131.747 40.021 132.049 40.3034C132.149 40.3984 132.154 40.5558 132.059 40.6558C131.963 40.7558 131.805 40.7607 131.705 40.6657C131.644 40.6082 131.463 40.6683 131.338 40.7858C131.29 40.8308 131.245 40.8782 131.2 40.9257C131.051 41.0831 130.883 41.263 130.632 41.338C130.546 41.373 130.463 41.383 130.383 41.383Z" fill="#606060"/>
<path d="M33.4052 146.336C32.8499 145.091 32.1136 143.829 30.8271 143.067C29.1611 142.079 26.9549 142.139 24.9296 142.287C21.869 142.509 18.821 142.844 15.7956 143.292C13.313 143.659 10.6268 144.216 9.10912 145.921C7.68939 147.518 7.68686 149.687 7.74717 151.684C8.19696 166.388 8.90305 181.086 9.87048 195.773C10.755 209.234 13.1145 222.685 14.4337 236.124C14.9463 241.345 15.278 241.665 15.6474 248.521C15.6901 249.306 16.4917 249.698 16.8862 250.121C17.1048 250.018 17.3485 249.936 17.6501 249.921C18.6778 249.868 23.1279 250.273 24.1607 250.22C24.3969 250.208 24.6004 250.241 24.7864 250.288C25.2336 249.313 25.5176 248.056 25.6231 246.754C27.7364 220.338 26.6961 199.202 32.6991 173.181C34.7496 164.276 37.1844 154.828 33.4052 146.336Z" fill="#5D82A4"/>
<path d="M60.8438 216.007C62.4268 227.893 63.6882 238.078 65.9774 249.9C64.0878 249.732 58.6577 249.203 56.768 249.035C54.1799 242.219 54.5593 236.726 52.6119 229.773C51.2324 224.847 49.2221 220.2 47.516 215.339C42.7417 201.748 40.4576 188.419 35.6858 174.827C33.57 168.807 31.4467 162.761 28.4038 157.012C25.1447 150.859 21.1167 142.061 30.6653 138.84C36.0577 137.02 43.6187 137.667 47.6994 141.591C52.338 146.05 52.4837 153.231 53.215 158.709C54.4161 167.724 55.6172 176.74 56.8158 185.755C58.1576 195.837 59.4994 205.922 60.8438 216.007Z" fill="#5D82A4"/>
<path d="M44.0441 56.5541C43.9963 57.7063 43.9385 58.8635 43.6445 59.9907C42.9485 62.6525 40.8553 65.0419 38.0209 66.3266C35.184 67.6087 31.651 67.7461 28.7161 66.6364C25.8213 65.5392 23.6754 63.3798 21.9743 61.1079C18.4137 56.3567 16.3406 50.7006 16.8381 45.0871C16.9135 44.2523 17.0643 43.3752 17.6774 42.7203C18.5594 41.7781 20.1148 41.5631 21.522 41.4132C26.1355 40.9283 38.9506 37.5693 42.755 40.1411C46.5116 42.6804 44.235 53 44.0441 56.5541Z" fill="#F2D6C9"/>
<path d="M32.5271 41.0034C35.9043 40.651 39.3393 40.6686 42.6762 40.0912C46.0107 39.5139 49.3552 38.2392 51.3227 35.8823C53.2927 33.5254 53.431 29.9339 50.9684 27.9419C51.0589 29.0666 50.2121 30.1363 49.0939 30.7486C47.9782 31.3609 45.2619 30.9211 43.9402 31.0511C39.8368 31.4535 35.6907 31.0061 31.5748 30.6961C27.4588 30.3862 23.2424 30.2188 19.2596 31.1561C15.2794 32.0933 12.8872 34.9801 11.3594 38.2367C10.4599 40.1562 10.3895 42.2731 10.392 44.3375C10.3945 47.5192 12.3947 50.241 13.5028 53.2801C14.611 56.3193 16.7745 59.1912 20.0135 60.7932C21.0387 61.3006 20.8904 61.9704 21.2221 61.0032C21.3176 60.7207 21.2497 60.4207 21.1819 60.1333C20.8427 58.7237 20.506 57.314 20.1668 55.9044C19.6089 53.5775 19.0561 51.1358 19.8677 48.8639C21.4659 44.4026 27.3809 41.5408 32.5271 41.0034Z" fill="#EDDDB2"/>
<path d="M37.013 68.4085C38.2468 68.2561 39.5233 68.1285 40.7244 68.411C43.9231 69.1658 45.2222 72.3548 45.9132 75.1116C48.8004 86.6235 49.6473 98.423 50.4891 110.17C51.2328 120.565 51.9766 134.296 52.7179 144.691C52.7656 145.373 52.7907 146.123 52.2932 146.66C51.8107 147.18 50.979 147.342 50.2151 147.47C37.5959 149.552 20.6472 150.589 7.79183 150.566C7.17117 150.566 6.51531 150.554 5.99014 150.274C5.20364 149.857 4.96242 148.994 4.81166 148.217C3.55778 141.831 3.61054 135.318 3.80403 128.845C4.20356 115.413 9.28443 98.6579 10.8524 85.2889C11.36 80.9551 10.4704 75.539 15.4734 73.2371C21.6674 70.3878 30.1204 69.2533 37.013 68.4085Z" fill="#F45C5C"/>
<path d="M44.2857 70.4255C45.3084 71.1378 45.9065 72.1876 46.4744 73.2023C51.0602 81.4051 55.646 89.6055 60.2319 97.8083C61.2244 99.5853 61.9732 102.145 59.9806 103.149C58.1965 104.049 56.043 102.707 54.5932 101.45C47.5197 95.3164 40.69 88.8531 35.8026 81.3401C34.2296 78.9232 32.9581 75.2518 34.6944 72.6C36.388 70.0107 41.396 68.411 44.2857 70.4255Z" fill="#F45C5C"/>
<path d="M63.3767 94.0991C71.8926 90.0276 78.373 86.3511 85.7556 80.9126C88.487 80.3627 89.0021 82.5246 88.3488 83.9467C87.6954 85.3689 86.3511 86.466 85.0495 87.5157C79.7601 91.7796 74.4707 96.0435 69.1787 100.31C67.6108 101.575 66.0076 102.859 64.0577 103.651C62.1078 104.444 59.7156 104.679 57.8084 103.809C50.1846 100.332 60.1327 95.6486 63.3767 94.0991Z" fill="#D14A4A"/>
<path d="M36.8223 101.152C31.259 91.9398 30.5202 81.1877 26.2887 71.4777C29.2236 70.508 32.4274 70.1282 35.5609 70.3806C35.792 70.4006 36.0383 70.4255 36.2192 70.553C36.4303 70.703 36.4956 70.9503 36.5459 71.1803C37.7369 76.5988 38.1038 82.1448 37.6339 87.6409C37.4254 90.0952 37.7445 92.4571 37.6766 94.884C37.6314 96.4261 36.0282 99.8351 36.8223 101.152Z" fill="white"/>
<path d="M36.6847 88.488C36.0464 82.3522 35.8177 76.1862 35.9987 70.0278C38.2325 70.2703 40.4413 70.6877 42.5847 71.2751C41.5821 73.0771 40.2101 74.7317 38.5491 76.1413C39.1924 77.2785 41.0694 77.6933 41.5167 78.898C41.7228 79.4528 41.567 80.0528 41.4162 80.6201C39.7075 87.0034 39.0768 93.4216 37.8933 99.8574C36.8103 99.0301 37.4083 96.016 37.3179 94.7888C37.1721 92.6819 36.9033 90.5875 36.6847 88.488Z" fill="#D14A4A"/>
<path d="M32.1792 87.3634C31.0459 83.347 29.9126 79.3306 28.7793 75.3141C28.4627 74.1919 28.317 71.2152 26.754 71.0652C25.96 70.9878 21.9823 74.4718 21.5576 74.1569C23.3442 75.4816 25.1308 76.8061 26.9174 78.1308C27.1837 78.3282 27.4652 78.5458 27.5481 78.8357C27.7139 79.408 24.6483 81.2875 24.2362 81.7599C22.7185 83.5044 26.4777 84.5341 27.7441 86.4161C31.8801 92.5694 35.202 99.1377 37.4258 105.961C35.677 99.7625 33.9281 93.5617 32.1792 87.3634Z" fill="#D14A4A"/>
<path d="M37.4254 105.961C37.943 107.795 38.4607 109.627 38.9783 111.462C38.5486 109.61 38.0184 107.78 37.4254 105.961Z" fill="#444444"/>
<path d="M27.8339 246.819C29.0024 249.305 30.505 251.687 32.4097 253.822C33.6083 255.164 35.0155 256.494 35.3497 258.153C35.3848 258.328 35.4075 258.511 35.3396 258.678C35.1939 259.048 34.6938 259.213 34.2516 259.315C32.0981 259.825 29.8643 260.09 27.6279 260.1C26.379 260.105 25.0975 260.025 23.9592 259.59C22.1425 258.895 20.9439 257.403 20.0066 255.911C18.2828 253.164 14.6544 246.976 17.8733 244.157C21.3886 241.083 26.3589 243.679 27.8339 246.819Z" fill="#025A82"/>
<path d="M81.329 249.758C80.1229 248.838 78.3765 248.691 76.7608 248.586C74.3611 248.431 71.9589 248.276 69.5592 248.121C68.5314 248.056 67.4434 247.971 66.6041 247.461C66.2649 247.254 66.0061 246.989 65.7825 246.696C65.0311 246.701 64.2723 246.669 63.5335 246.656C60.7619 246.606 57.9953 247.479 55.3142 248.181C55.867 250.173 56.4198 252.167 56.9726 254.159C57.0832 254.557 57.2139 254.982 57.5833 255.239C57.9602 255.501 58.4853 255.526 58.9728 255.536C66.971 255.704 74.9792 255.461 82.9447 254.814C82.9875 253.012 82.9121 250.963 81.329 249.758Z" fill="#025A82"/>
<path d="M9.56097 80.8627C11.036 77.7935 13.2598 74.352 17.1295 73.9096C17.6145 73.8546 18.1421 73.8595 18.5492 74.0894C18.9311 74.3044 19.1397 74.6794 19.3131 75.0418C21.0896 78.7558 20.9338 82.9746 19.7704 86.8586C18.6045 90.745 16.4912 94.3692 14.3905 97.9582C11.7898 102.407 9.18659 106.856 6.58586 111.305C4.058 110.835 0.311437 111 0.0325183 108.463C-0.276554 105.646 1.69846 101.617 2.53019 98.8878C4.39719 92.742 6.80194 86.7586 9.56097 80.8627Z" fill="#D14A4A"/>
<path d="M89.0078 78.0886C89.7843 77.8311 90.6336 77.7886 91.4679 77.7461C91.6614 78.3084 91.0256 78.9533 90.3371 78.8858C90.1989 79.1532 90.4929 79.4657 90.8296 79.5282C91.1663 79.5906 91.5106 79.4806 91.8347 79.3806C94.0812 78.6733 96.4306 78.1961 98.8102 77.9636C99.0615 77.9386 99.348 77.9261 99.5389 78.0686C99.8128 78.2735 99.6972 78.6834 99.4133 78.8759C99.1268 79.0683 98.7424 79.1083 98.3806 79.1507C97.687 79.2357 96.9859 79.3757 96.3929 79.6906C95.7974 80.0055 95.3175 80.5203 95.2471 81.1127C95.1818 81.6425 95.433 82.2199 95.1415 82.6923C94.845 83.1697 94.1314 83.3146 93.5032 83.4071C92.2267 83.5946 90.9 83.7819 89.6511 83.482C86.7715 82.7897 85.9247 79.1058 89.0078 78.0886Z" fill="#F2D6C9"/>
<path d="M36.5553 105.369C35.7462 101.622 35.3065 97.8056 34.8667 93.9991C34.3592 89.6053 33.8516 85.2091 33.344 80.8152C33.3113 80.5378 33.2837 80.2429 33.4093 79.9955C33.5752 79.668 33.9571 79.5181 34.3064 79.3981C41.1914 77.0462 48.378 75.569 55.6374 75.0142C56.0018 74.9867 56.3787 74.9618 56.7179 75.0993C57.4793 75.4042 57.718 76.3413 57.8461 77.1486C59.3714 86.806 59.5523 96.6834 61.9219 106.171C62.2837 107.616 62.6983 109.068 62.7234 110.557C62.7285 110.822 62.7159 111.107 62.5652 111.327C62.4069 111.56 62.1254 111.675 61.8591 111.777C57.2607 113.517 52.4009 114.561 47.491 114.876C45.0134 115.034 39.7465 116.028 38.4072 113.167C37.3494 110.905 37.0805 107.808 36.5553 105.369Z" fill="#F4F4F4"/>
<path d="M39.3557 87.2033C39.911 87.1334 40.5091 87.0708 41.0016 87.2958C41.8334 87.6757 41.9288 88.638 41.9213 89.4403C41.9163 89.9052 41.9137 90.37 41.9087 90.8349C41.9062 91.0598 41.9012 91.2947 41.7881 91.4997C41.582 91.8696 41.0795 92.042 40.6172 92.157C38.7074 92.6294 31.8752 93.8541 31.061 91.5372C29.9906 88.4905 37.3078 87.4633 39.3557 87.2033Z" fill="#F2D6C9"/>
<path d="M2.74599 106.856C1.4695 107.606 0.0271565 108.733 0.48197 109.993C0.657865 110.475 1.09257 110.855 1.51471 111.212C3.13546 112.592 5.08538 114.079 7.3695 113.887C8.87717 113.762 10.1537 112.915 11.2693 112.045C15.5637 108.701 18.8981 104.524 23.3533 101.335C27.0772 98.6733 31.7736 96.4738 33.3843 92.5749C32.6079 92.12 31.1329 90.8779 30.1554 90.8779C29.0925 90.8779 27.2154 92.4525 26.3636 92.9549C23.69 94.5294 21.0164 96.1015 18.3428 97.676C13.1439 100.735 7.94494 103.797 2.74599 106.856Z" fill="#D14A4A"/>
<path d="M221.677 213.163C220.964 211.183 220.24 209.164 220.167 207.062C220.074 204.383 218.966 201.791 219.923 199.287C227.592 179.189 233.367 159.162 238.49 138.278C238.583 137.898 238.676 137.495 238.556 137.123C238.41 136.663 237.983 136.361 237.576 136.098C234.904 134.389 231.964 133.097 228.896 132.282C228.238 132.107 227.55 131.954 226.881 132.082C225.564 132.337 222.969 131.687 222.29 132.837C212.129 150.077 209.777 172.006 206.528 191.729C206.153 193.998 205.789 196.307 206.065 198.589C206.334 200.799 207.191 202.891 208.05 204.945C213.654 218.351 219.685 234.672 226.125 247.701C226.444 248.346 226.821 249.046 227.497 249.306C230.394 250.42 230.693 243.782 230.442 243.087C229.366 240.106 228.291 234.032 227.215 231.051C225.062 225.087 223.831 219.126 221.677 213.163Z" fill="#025A82"/>
<path d="M249.251 220.928C251.633 193.541 252.56 166.053 253.485 138.58C250.005 137.368 246.489 136.148 242.826 135.731C239.162 135.314 235.287 135.758 232.149 137.683C232.458 143.961 233.842 150.132 235.071 156.298C241.665 189.382 241.763 217.884 239.501 251.538C243.185 252.655 246.64 254.822 246.773 251.045C246.909 247.241 247.092 251.69 247.364 247.894C247.881 240.613 248.618 228.199 249.251 220.928Z" fill="#025A82"/>
<path d="M225.509 72.5502C224.643 73.2575 224.137 74.2972 223.657 75.3044C219.775 83.4398 215.895 91.5776 212.013 99.7129C211.171 101.475 210.541 104.014 212.227 105.011C213.737 105.904 215.559 104.572 216.788 103.324C222.773 97.2411 228.555 90.8278 232.691 83.3748C234.02 80.9779 235.101 77.3339 233.628 74.7046C232.193 72.1378 227.954 70.5532 225.509 72.5502Z" fill="#404954"/>
<path d="M208.911 110.288C207.699 118.428 206.234 124.829 203.405 132.559C203.719 134.904 207.443 134.846 208.569 133.829C209.695 132.809 210.31 131.365 210.896 129.968C213.265 124.297 214.082 118.318 216.451 112.645C217.155 110.963 217.866 109.248 218.012 107.431C218.16 105.617 217.653 103.652 216.265 102.462C210.72 97.7062 209.373 107.189 208.911 110.288Z" fill="#404954"/>
<path d="M219.497 131.969C220.975 117.508 222.45 103.046 223.927 88.5828C224.274 85.1962 224.663 81.6722 226.478 78.7855C229.171 74.5016 235.016 72.4896 239.795 74.1991C240.396 74.4141 240.984 74.6841 241.489 75.074C243.529 76.6486 243.678 79.5878 243.886 82.1496C245.291 99.3975 257.234 114.878 256.706 132.174C256.661 133.658 256.478 135.25 255.493 136.368C252.492 139.769 245.826 140.414 241.733 140.139C235.064 139.692 228.458 138.365 222.143 136.183C221.264 135.878 220.324 135.51 219.826 134.726C219.324 133.928 219.402 132.909 219.497 131.969Z" fill="#5D82A4"/>
<path d="M219.914 181.344C214.006 178.507 207.661 176.572 201.171 175.628C203.583 165.9 205.993 156.175 208.405 146.448C213.893 124.311 219.384 102.172 225.115 80.0956C225.696 77.8612 226.419 75.4219 228.362 74.1572C236.43 68.8986 232.186 83.6047 231.661 85.5617C229.633 93.1247 227.862 100.755 226.351 108.436C223.359 123.664 221.391 139.092 220.469 154.581C219.936 163.488 219.75 172.419 219.914 181.344Z" fill="#363F4C"/>
<path d="M240.015 103.862C241.762 126.823 243.282 149.887 241.714 172.863C241.277 179.267 240.561 185.802 237.774 191.588C249.581 188.312 261.565 185.655 273.656 183.636C269.782 150.537 263.022 117.773 253.479 85.8315C252.68 83.1597 251.838 80.4406 250.217 78.1662C247.164 73.8773 235.339 68.5687 236.688 77.2964C238.063 86.1715 239.334 94.8892 240.015 103.862Z" fill="#363F4C"/>
<path d="M225.716 58.7888C225.756 59.931 225.806 61.0807 226.055 62.1954C226.646 64.8372 228.415 67.2065 230.817 68.4786C233.217 69.7508 236.209 69.8884 238.694 68.7862C241.144 67.699 242.961 65.5545 244.401 63.3026C247.414 58.5888 249.17 52.9803 248.748 47.4093C248.685 46.582 248.557 45.7123 248.037 45.0625C247.291 44.1277 245.974 43.9153 244.783 43.7678C240.878 43.2854 230.03 39.9538 226.811 42.5056C223.625 45.025 225.553 55.2648 225.716 58.7888Z" fill="#F2D6C9"/>
<path d="M239.621 244.971C238.731 247.188 237.588 249.315 236.138 251.217C235.226 252.414 234.156 253.599 233.899 255.081C233.872 255.236 233.857 255.399 233.907 255.549C234.017 255.879 234.397 256.024 234.736 256.119C236.374 256.573 238.076 256.808 239.777 256.818C240.727 256.823 241.701 256.751 242.568 256.363C243.95 255.744 246.28 254.509 246.991 253.177C248.303 250.725 249.647 245.111 247.197 242.597C244.523 239.855 240.742 242.172 239.621 244.971Z" fill="black"/>
<path d="M210.398 247.754C211.408 246.854 212.865 246.707 214.22 246.607C216.227 246.454 218.235 246.304 220.24 246.152C221.1 246.087 222.009 246.004 222.71 245.507C222.994 245.305 223.21 245.042 223.396 244.76C224.025 244.765 224.66 244.735 225.276 244.72C227.593 244.672 229.907 245.527 232.148 246.214C231.686 248.169 231.224 250.121 230.761 252.075C230.671 252.463 230.56 252.88 230.251 253.135C229.937 253.392 229.497 253.415 229.09 253.425C222.401 253.587 215.705 253.352 209.046 252.718C209.011 250.946 209.074 248.936 210.398 247.754Z" fill="black"/>
<path d="M254.902 82.9024C253.653 79.8582 251.771 76.4442 248.497 76.0068C248.087 75.9518 247.64 75.9568 247.296 76.1842C246.972 76.3992 246.796 76.7691 246.65 77.129C245.145 80.813 245.278 84.9995 246.263 88.8534C247.248 92.7074 249.04 96.304 250.816 99.8655C253.017 104.279 255.221 108.691 257.422 113.104C259.561 112.64 262.734 112.802 262.97 110.285C263.232 107.491 261.561 103.495 260.857 100.785C259.272 94.6869 257.236 88.7509 254.902 82.9024Z" fill="#404954"/>
<path d="M231.558 83.2797C231.643 82.2375 231.924 77.9512 231.331 77.0865C231.1 76.7515 230.786 76.4841 230.47 76.2267C228.143 74.3422 225.74 74.8545 223.16 73.3324C221.004 72.0628 218.448 71.9028 216.292 70.6331C215.755 70.3157 215.106 69.9884 214.533 70.2383C214.141 70.4083 213.903 70.8056 213.719 71.1905C212.87 72.985 212.682 75.0094 212.533 76.9864C211.93 85.1217 211.855 93.2971 212.305 101.442C212.35 102.255 212.41 103.097 212.812 103.804C213.584 105.156 215.312 105.569 216.85 105.851C221.104 106.634 225.356 107.416 229.61 108.201C230.856 108.431 233.012 108.276 232.482 106.466C232.289 105.809 231.977 105.361 231.889 104.632C231.766 103.639 231.678 102.64 231.595 101.645C231.264 97.7509 231.14 93.8369 231.221 89.9305C231.266 87.7111 231.379 85.4916 231.558 83.2797Z" fill="#F4F4F4"/>
<path d="M233.297 89.0808C232.955 88.8009 232.591 88.5159 232.159 88.4259C231.724 88.336 231.204 88.5059 231.038 88.9133C230.166 88.8933 229.417 88.3335 228.689 87.8586C227.96 87.3812 227.075 86.9538 226.246 87.2237C225.854 87.3512 225.53 87.6212 225.224 87.8961C224.565 88.491 223.912 89.2208 223.879 90.1031C223.852 90.8678 224.314 91.5851 224.914 92.0599C225.518 92.5348 226.251 92.8098 226.97 93.0797C228.613 93.692 230.257 94.3044 231.9 94.9142C233.222 95.4066 235.37 96.8163 236.586 95.7465C239.242 93.4072 234.981 90.463 233.297 89.0808Z" fill="#F2D6C9"/>
<path d="M260.669 108.688C261.749 109.433 262.971 110.55 262.584 111.8C262.435 112.28 262.066 112.654 261.709 113.012C260.337 114.381 258.686 115.856 256.754 115.666C255.477 115.541 254.397 114.701 253.452 113.839C249.819 110.52 246.411 107.981 242.64 104.819C239.489 102.177 234.606 99.373 233.242 95.5065C233.9 95.0566 236.639 92.8423 237.468 92.8423C238.368 92.8398 239.956 94.4043 240.677 94.9017C242.941 96.4638 245.203 98.0234 247.467 99.5855C251.869 102.617 256.269 105.651 260.669 108.688Z" fill="#404954"/>
<path d="M278.535 81.5952C278.316 81.2228 278.037 80.8753 277.934 80.4579C277.761 79.7656 278.097 79.0633 278.258 78.3685C278.781 76.0991 277.052 73.5748 274.738 73.2249C276.419 71.8878 278.288 69.8483 277.379 67.9088C276.788 66.6491 275.293 66.1542 274.024 65.5744C272.755 64.992 271.418 63.8449 271.715 62.4853C271.898 61.648 272.66 61.0506 272.946 60.2408C273.542 58.5538 271.828 56.8891 270.107 56.3718C268.385 55.8544 266.468 55.9194 264.91 55.0246C262.606 53.7 261.875 50.7709 261.588 48.1416C261.302 45.5123 261.161 42.6505 259.442 40.631C256.435 37.1045 251.004 38.1891 246.929 37.6918C246.522 37.6418 245.909 37.4394 245.225 37.2019C241.866 35.0325 238.006 34.3352 233.965 35.3325C231.616 35.9123 229.266 36.692 226.907 37.0619C226.701 37.1669 226.457 37.2395 226.173 37.2594C224.655 37.3669 222.369 37.7093 221.625 39.2389C221.605 39.2789 221.597 39.3238 221.58 39.3638C221.633 39.4238 221.688 39.4813 221.743 39.5412C221.653 39.6237 221.542 39.6838 221.442 39.7537C221.125 40.9859 221.527 42.5855 222.401 43.4127C222.954 43.9351 223.118 44.6099 223.007 45.2223C228.716 46.8393 234.232 45.3298 239.8 43.0204C239.282 46.6319 241.26 52.4754 242.599 55.817C244.426 54.3149 246.409 56.1993 246.313 58.4088C246.25 59.8384 244.705 59.9459 244.542 61.238C244.444 62.0128 245.18 63.7274 245.733 64.8871C245.557 65.7544 245.504 66.6315 245.677 67.5213C245.894 68.626 246.449 69.6832 246.391 70.8079C246.296 72.7024 244.501 74.6044 245.444 76.2565C245.803 76.8888 246.514 77.3012 246.745 77.9885C246.881 78.3884 246.831 78.8233 246.786 79.2432C246.464 82.1299 246.323 85.0342 246.363 87.9384C246.373 88.7057 246.401 89.4905 246.698 90.1978C247.703 92.5821 250.959 92.7996 253.552 92.6321C253.037 93.8943 253.874 95.3889 255.073 96.0437C256.271 96.6985 257.716 96.7111 259.081 96.6136C261.518 96.4411 263.935 95.9763 266.262 95.2315C266.272 94.6442 266.285 94.0543 266.295 93.4644C268.051 94.2867 270.252 94.0643 271.808 92.9096C273.363 91.7549 274.2 89.718 273.908 87.811C275.509 88.1859 277.308 87.5311 278.286 86.2164C279.258 84.9118 279.364 83.0098 278.535 81.5952Z" fill="#4A2400"/>
</svg>
