<svg width="255" height="268" viewBox="0 0 255 268" fill="none" xmlns="http://www.w3.org/2000/svg">
<path d="M97.3789 263.252C102.125 262.799 108.205 260.924 108.283 256.102C108.324 253.544 106.377 251.299 104.083 250.228C101.788 249.157 99.1894 249.019 96.6638 248.906C69.3495 247.671 41.8666 247.109 14.7791 250.866C9.79503 251.557 -5.33448 256.6 1.94617 264.095C6.59326 268.882 22.978 266.303 28.837 266.334C51.716 266.449 74.5993 265.422 97.3789 263.252Z" fill="#F2F5FC"/>
<path d="M246.076 267.013C248.565 266.906 251.267 266.696 253.115 265.005C255.359 262.952 255.498 259.236 254.067 256.539C252.637 253.841 249.98 252.025 247.227 250.755C240.439 247.625 232.768 247.251 225.31 247.076C214.493 246.825 203.647 246.903 192.864 247.898C183.758 248.737 167.961 249.076 160.207 254.48C150.11 261.518 165.254 264.694 170.258 265.155C182.028 266.242 193.832 266.957 205.648 267.3C219.122 267.689 232.61 267.595 246.076 267.013Z" fill="#F2F5FC"/>
<path d="M90.1251 151.495C89.9307 155.574 89.6261 159.646 89.3193 163.719C88.8613 169.811 88.4033 175.903 87.9453 181.995C87.7983 183.942 87.604 186.019 86.4071 187.551C86.2839 187.708 86.1435 187.866 85.9555 187.936C85.3268 188.172 84.8408 187.363 84.6355 186.718C82.2007 179.024 78.5388 171.73 73.8312 165.205C72.63 163.539 71.3186 161.887 69.5622 160.838C68.2421 160.051 66.7385 159.646 65.2564 159.253C62.288 158.464 59.3196 157.672 56.3511 156.883C54.6098 156.42 52.8037 155.922 51.4448 154.728C50.3732 153.788 49.6776 152.494 49.0035 151.233C45.5922 144.837 42.1485 138.354 40.4482 131.293C39.2081 126.144 38.9316 120.799 39.0677 115.501C39.0806 114.974 39.1023 114.434 39.2945 113.942C39.5603 113.267 40.1241 112.757 40.7269 112.364C42.9845 110.882 45.8212 110.727 48.5109 110.635C58.7211 110.281 69.1365 110.174 79.1177 112.701C82.1899 113.479 87.4224 114.285 88.8764 117.603C90.6652 121.682 90.0409 127.96 90.2116 132.345C90.4557 138.725 90.4276 145.117 90.1251 151.495Z" fill="#025A82"/>
<path d="M32.0526 244.41C28.8659 244.696 27.7339 242.563 25.0765 240.943C29.7668 231.179 30.2465 221.417 34.9368 211.652C36.421 208.564 39.2058 204.013 40.1067 200.743C41.2128 196.721 42.2153 193.96 42.3946 189.824C43.0946 173.789 43.7945 157.753 44.4945 141.718C44.5528 140.374 44.6241 138.986 45.2485 137.766C47.0481 134.26 52.1424 133.899 56.271 134.052C57.1763 134.085 58.1636 134.148 58.8203 134.721C59.5722 135.375 59.6348 136.454 59.6456 137.423C59.7882 150.068 67.7429 138.269 67.8855 150.914C67.9352 155.36 63.4199 184.539 62.411 188.902C60.6308 196.611 55.5624 205.473 51.0687 212.186C44.1488 222.52 38.9076 232.213 32.0526 244.41Z" fill="#025A82"/>
<path d="M69.3551 144.207C75.0716 143.49 80.7903 142.776 86.5068 142.059C86.7963 141.331 85.3704 142.076 85.4568 142.843C88.2006 167.017 86.807 191.505 84.1756 215.768C83.0414 226.225 82.8578 236.726 83.8365 247.164C81.4838 247.395 77.4329 247.728 75.0802 247.959C71.0834 215.401 68.7869 182.742 64.7901 150.181C64.587 148.535 64.4747 146.634 65.7364 145.447C66.6654 144.577 68.061 144.369 69.3551 144.207Z" fill="#025A82"/>
<path d="M83.2241 246.252C83.3624 246.25 83.5072 246.25 83.6368 246.285C83.8139 246.333 83.9371 246.445 84.0473 246.552C84.5485 247.05 84.9093 247.616 85.1038 248.211C85.2852 248.764 85.3306 249.356 85.7346 249.848C86.1839 250.394 87.007 250.733 87.815 251.011C89.9042 251.73 92.1511 252.22 94.4519 252.46C94.9618 252.513 95.4867 252.556 95.9469 252.72C97.2497 253.179 97.5673 254.364 97.7293 255.383C97.7768 255.678 97.7833 256.036 97.429 256.2C97.2389 256.288 96.9947 256.288 96.7657 256.285C90.1829 256.204 87.3722 256.17 80.7915 256.089C79.1842 256.069 77.5271 256.001 75.9759 255.708C75.7664 255.669 75.5503 255.621 75.3947 255.514C75.2241 255.398 75.1549 255.227 75.0966 255.066C74.2519 252.76 74.1719 250.27 74.3923 247.903C74.4614 247.166 74.5932 246.563 75.7512 246.41C77.3975 246.193 75.5913 246.355 77.2678 246.333C79.2511 246.305 81.2387 246.278 83.2241 246.252Z" fill="#4D4D4D"/>
<path d="M32.0263 243.893C32.2791 244.027 32.5383 244.173 32.7068 244.405C32.8451 244.599 32.9099 244.838 32.9445 245.074C33.1432 246.449 32.4303 247.867 32.7717 249.216C32.9963 250.106 33.6466 250.812 34.2904 251.457C35.3447 252.51 36.4552 253.509 37.611 254.449C38.0993 254.845 38.6199 255.264 38.8252 255.863C39.186 256.917 38.1576 258.176 37.0666 258.012C36.6626 257.951 36.2975 257.739 35.9431 257.531C31.1232 254.674 26.4178 251.616 21.8442 248.372C21.2803 247.972 20.6646 247.472 20.6365 246.777C20.6214 246.409 20.7791 246.062 20.939 245.732C21.505 244.56 22.1315 243.421 22.8164 242.317C23.175 241.74 23.5315 241.146 23.9441 240.606C24.495 239.887 24.5037 239.83 25.2728 240.243C27.5175 241.45 29.76 242.698 32.0263 243.893Z" fill="#4D4D4D"/>
<path d="M79.4647 27.5854C79.4193 28.8838 79.3653 30.1887 79.0867 31.4565C78.4277 34.4555 76.4509 37.1485 73.7719 38.5933C71.0908 40.0404 67.7509 40.1934 64.9769 38.9431C62.2396 37.7081 60.2131 35.273 58.6057 32.7134C55.2419 27.3602 53.2803 20.9884 53.7534 14.6625C53.8225 13.7226 53.9673 12.7346 54.5463 11.9958C55.3802 10.9335 56.8493 10.6908 58.178 10.5247C62.5377 9.97826 74.6491 6.19452 78.2441 9.09079C81.798 11.9543 79.6462 23.583 79.4647 27.5854Z" fill="#C2A091"/>
<path d="M74.2566 40.9432C75.6738 40.7727 77.1386 40.6262 78.517 40.9454C82.1897 41.7957 83.6804 45.3914 84.4755 48.4953C87.7896 61.4662 88.7639 74.7607 89.7275 87.996C90.5808 99.7079 91.4342 115.179 92.2876 126.891C92.3437 127.661 92.3719 128.504 91.7994 129.11C91.2441 129.696 90.2914 129.879 89.4121 130.021C74.9242 132.365 55.463 133.536 40.7051 133.51C39.9944 133.508 39.2403 133.495 38.6354 133.18C37.7324 132.71 37.458 131.737 37.2808 130.863C35.8398 123.669 35.9025 116.329 36.1229 109.037C36.583 93.9044 42.414 75.0273 44.2158 59.9623C44.7992 55.0791 43.7773 48.9784 49.5197 46.3838C56.6383 43.1706 66.3408 41.8962 74.2566 40.9432Z" fill="#F45C5C"/>
<path d="M80.9988 9.84061C80.7568 9.40781 80.4544 8.99907 80.3334 8.51818C80.1649 7.8493 80.3723 7.14107 80.3053 6.45252C80.2016 5.39019 79.4584 4.50273 78.6525 3.81419C76.2437 1.75292 72.9296 0.815192 69.8121 1.31357C69.0646 1.43379 68.263 1.62177 67.5847 1.28515C67.3427 1.16493 67.1353 0.985674 66.8998 0.854523C66.1069 0.415165 65.1326 0.594428 64.2468 0.782412C61.7213 1.32451 59.1957 1.86441 56.6723 2.4065C55.0433 2.75624 53.3215 3.15406 52.1268 4.32787C50.4308 5.99786 50.3228 8.67337 50.3444 11.0669C50.3682 13.4604 50.3142 16.1228 48.6809 17.854C48.413 18.1381 48.0868 18.4332 48.076 18.8245C48.063 19.2092 48.3568 19.5218 48.5945 19.8212C49.1346 20.5076 49.4262 21.371 49.4781 22.2454C49.4673 22.4181 49.463 22.5886 49.4802 22.7569C49.4651 23.0017 49.45 23.2465 49.3938 23.4869C49.5148 23.6946 49.733 23.723 49.9512 23.6531C50.1673 23.8301 50.42 23.9678 50.6663 24.1033C52.6453 25.1853 53.7384 27.7581 55.9421 28.2193C56.0458 26.7745 55.3782 25.3755 55.3501 23.9241C55.3372 23.2159 55.4776 22.5164 55.6007 21.8213C55.9702 19.736 56.197 17.6223 56.2791 15.5042L56.2143 15.4692C57.435 12.9511 60.0512 13.2199 62.4536 12.2844C63.1947 11.9959 63.9227 11.6549 64.707 11.5303C65.5193 11.4013 66.3489 11.5106 67.1655 11.6199C69.0041 11.8669 70.8404 12.1161 72.679 12.3631C71.8342 12.0745 73.0095 11.3401 73.2126 10.4614C75.0446 10.3936 75.5523 11.0953 76.8356 12.4177C77.6371 13.244 78.5424 14.2254 79.6809 14.1249C80.5581 14.0462 81.2731 13.2724 81.4741 12.4068C81.6728 11.539 81.4308 10.6166 80.9988 9.84061Z" fill="#EDCB91"/>
<path d="M27.515 127.626C27.2493 126.903 27.124 126.142 27.0095 125.383C26.7071 123.383 26.4694 121.375 26.3009 119.364C26.2793 119.101 26.2793 118.789 26.4953 118.642C26.6293 118.55 26.8086 118.555 26.9728 118.568C28.0012 118.644 29.0252 118.867 29.9996 119.228C30.7427 119.503 31.4903 119.886 31.9461 120.535C32.4754 121.289 32.5186 122.253 32.6806 123.149C32.9896 124.85 33.8019 126.468 34.988 127.749C34.9232 128.168 34.396 128.365 33.9834 128.245C33.5707 128.124 33.2575 127.79 32.9658 127.471C32.6677 128.31 33.2834 129.196 33.5103 130.07C33.7047 130.82 33.6075 131.604 33.5103 132.365C33.4822 132.575 33.4498 132.8 33.3093 132.957C32.9464 133.362 32.2723 133.016 31.8381 132.662C30.1011 131.246 28.282 129.72 27.515 127.626Z" fill="#EDD5BE"/>
<path d="M39.8341 53.3722C41.3788 51.6236 43.0531 49.8945 45.2719 48.9677C47.4928 48.0409 50.3943 48.0781 52.4705 49.6541C54.3198 51.0574 55.1623 53.4138 55.0802 55.545C54.9981 57.6762 54.121 59.6238 53.1207 61.4403C48.828 69.2372 42.0636 75.4975 38.2073 83.5328C32.5448 95.3299 33.7352 109.503 33.0266 122.9C33.0071 123.272 32.9769 123.67 32.7327 123.938C32.4584 124.244 31.9874 124.308 31.551 124.354C29.9458 124.524 28.3406 124.695 26.7354 124.865C24.6592 117.167 23 109.405 21.7707 101.625C20.4658 93.3648 19.6924 84.7131 22.8639 77.3774C24.0802 74.5642 25.841 72.0439 27.5909 69.5411C31.4646 63.9977 35.3469 58.4456 39.8341 53.3722Z" fill="#E25858"/>
<path d="M132.253 8.76285C132.074 9.44046 131.784 10.0525 131.49 10.6558C130.711 12.2471 129.885 13.8012 129.01 15.3117C128.896 15.5084 128.742 15.7248 128.529 15.6877C128.395 15.6636 128.278 15.5434 128.174 15.4253C127.528 14.6974 126.958 13.8712 126.487 12.9794C126.128 12.2996 125.819 11.5432 125.835 10.7913C125.852 9.91915 126.297 9.21968 126.627 8.48741C127.256 7.10158 127.509 5.44031 127.349 3.77031C127.597 3.52113 128.045 3.72881 128.261 4.0851C128.477 4.43921 128.52 4.87854 128.557 5.29167C129.166 4.90259 129.19 3.88181 129.468 3.12332C129.708 2.47412 130.155 1.99104 130.594 1.52545C130.715 1.39648 130.847 1.26095 131.017 1.24565C131.458 1.20193 131.737 1.88613 131.851 2.41729C132.309 4.54632 132.769 6.80213 132.253 8.76285Z" fill="#EDD5BE"/>
<path d="M80.463 61.466C78.5791 61.6693 76.6196 61.7764 74.6904 60.9654C72.7611 60.1545 78.0628 49.14 77.4557 46.6809C76.9156 44.4906 77.5097 42.2982 78.6094 40.8686C79.7069 39.4391 81.2451 38.6566 82.8006 38.0489C89.4764 35.4368 97.0379 35.5155 103.539 32.4509C113.083 27.9524 119.238 17.3029 126.275 8.4392C126.469 8.19219 126.685 7.93646 126.979 7.90804C127.312 7.87525 127.656 8.13974 127.967 8.3933C129.116 9.32885 130.267 10.2622 131.417 11.1978C129.025 17.9193 126.323 24.4113 123.326 30.6366C120.146 37.2445 110.037 50.1979 104.334 53.2231C102.147 54.3838 97.2064 57.5315 94.8148 58.126C89.5261 59.4441 85.9311 60.8758 80.463 61.466Z" fill="#E25858"/>
<path d="M72.7856 48.1962C73.1637 49.3263 72.3903 50.511 72.3622 51.7045C72.3471 52.3275 72.5393 52.9352 72.7295 53.5297C74.0927 57.8009 75.4559 62.0742 76.8192 66.3454C77.2988 67.8515 77.7849 69.3663 78.5238 70.7587C79.295 72.2101 80.3299 73.4997 81.3561 74.7785C82.661 76.4025 83.9659 78.0289 85.2708 79.6529C85.6359 80.1076 86.0097 80.5797 86.1717 81.1437C86.3121 81.6289 86.2819 82.1448 86.2495 82.6497C86.1156 84.8422 85.9794 87.0346 85.8455 89.227C84.6464 88.5428 83.3286 88.0729 81.9718 87.8477C81.1357 87.71 80.2694 87.6575 79.5024 87.2947C77.1735 86.193 76.9208 83.0388 76.5924 80.4595C75.4711 71.6483 69.7049 63.5759 70.4438 54.7254C70.5345 53.6477 70.6295 52.3428 69.7589 51.7132C66.2741 49.1886 69.7913 47.6978 72.7856 48.1962Z" fill="#1FDE82"/>
<path d="M244.27 126.255C244.253 125.47 244.088 124.686 243.913 123.908C243.453 121.853 242.926 119.809 242.33 117.778C242.252 117.514 242.133 117.206 241.872 117.116C241.708 117.061 241.537 117.114 241.384 117.169C240.418 117.516 239.515 118.006 238.711 118.62C238.098 119.088 237.521 119.663 237.324 120.426C237.097 121.309 237.417 122.273 237.598 123.202C237.94 124.961 237.765 126.775 237.102 128.351C237.322 128.747 237.905 128.804 238.26 128.577C238.612 128.349 238.789 127.936 238.951 127.543C239.554 128.295 239.292 129.329 239.405 130.253C239.5 131.044 239.889 131.794 240.269 132.52C240.375 132.721 240.491 132.933 240.686 133.051C241.189 133.355 241.71 132.835 241.995 132.371C243.138 130.511 244.32 128.524 244.27 126.255Z" fill="#EDD5BE"/>
<path d="M204.415 56.2051C202.265 54.887 199.997 53.6214 197.504 53.2935C195.01 52.9656 192.221 53.7678 190.811 55.8728C189.553 57.7461 189.627 60.2948 190.508 62.3757C191.39 64.4567 192.969 66.1485 194.619 67.6786C201.701 74.2428 210.591 78.6364 217.341 85.5502C227.251 95.7014 231.44 110.008 237.167 123.044C237.325 123.407 237.504 123.79 237.841 123.993C238.221 124.222 238.701 124.159 239.137 124.091C240.751 123.836 242.367 123.58 243.981 123.324C243.089 115.177 241.766 107.077 240.025 99.072C238.176 90.5733 235.665 81.8277 229.839 75.4231C227.605 72.9684 224.956 70.9443 222.325 68.9355C216.498 64.4851 210.658 60.0303 204.415 56.2051Z" fill="#1ED77E"/>
<path d="M230.44 244.626C233.253 244.593 236.047 243.577 238.235 241.787C233.292 232.965 228.347 224.142 223.404 215.32C221.84 212.531 220.269 209.725 219.202 206.704C217.888 202.992 217.368 199.049 216.855 195.14C214.868 179.984 212.878 164.829 210.891 149.672C210.724 148.402 210.543 147.091 209.89 145.991C208.015 142.835 203.523 142.977 199.924 143.515C199.136 143.633 198.276 143.786 197.749 144.393C197.146 145.086 197.185 146.118 197.258 147.036C198.22 159.054 195.124 148.413 196.085 160.431C196.422 164.656 200.825 191.586 202.08 195.63C204.301 202.78 207.3 210.17 211.809 216.116C218.752 225.268 223.395 233.699 230.44 244.626Z" fill="#025A82"/>
<path d="M187.579 150.077C182.513 149.941 177.446 149.806 172.378 149.67C172.063 149.008 173.374 149.578 173.363 150.315C173.035 173.524 175.085 196.767 179.469 219.55C181.359 229.369 183.69 239.192 183.729 249.197C185.807 249.192 187.888 249.19 189.966 249.186C190.673 217.895 191.379 186.607 192.086 155.316C192.12 153.734 192.057 151.919 190.85 150.912C189.966 150.171 188.726 150.107 187.579 150.077Z" fill="#025A82"/>
<path d="M185.142 253.927C184.278 254.661 185.453 255.243 186.017 255.297C187.043 255.398 188.11 255.339 189.115 255.094C189.381 255.028 189.653 254.948 189.867 254.775C190.035 254.639 190.156 254.456 190.277 254.274C190.608 253.774 191.392 252.982 191.517 252.403C191.619 251.925 191.336 251.459 191.113 251.022C190.642 250.095 189.837 249.142 189.875 248.038C187.648 248.285 185.514 247.509 183.669 248.117C183.513 248.901 182.934 249.544 183.204 250.158C183.025 249.752 177.647 251.122 177.01 251.249C175.984 251.452 174.953 251.625 173.912 251.719C173.102 251.791 171.546 251.413 171.091 252.233C170.929 252.523 170.877 252.862 170.851 253.197C170.833 253.45 170.829 253.71 170.911 253.951C171.052 254.366 171.428 254.663 171.834 254.814C176.252 256.456 180.655 253.861 185.142 253.927Z" fill="#022540"/>
<path d="M235.382 248.799C234.847 249.905 236.257 249.96 236.839 249.765C237.895 249.409 238.923 248.882 239.809 248.196C240.045 248.015 240.276 247.813 240.414 247.549C240.522 247.341 240.563 247.105 240.602 246.874C240.712 246.233 241.146 245.105 241.019 244.478C240.913 243.96 240.431 243.628 240.025 243.293C239.161 242.585 237.642 241.295 237.206 240.189C235.115 241.418 231.937 242.856 230.379 244.27C231.232 244.897 231.312 245.446 231.844 245.934C231.492 245.612 226.775 249.339 226.201 249.746C225.276 250.399 224.332 251.025 223.345 251.578C222.575 252.008 220.877 252.321 220.78 253.331C220.746 253.689 220.838 254.048 220.959 254.386C221.05 254.644 221.16 254.902 221.344 255.103C221.662 255.451 222.161 255.578 222.627 255.549C227.698 255.221 230.926 250.716 235.382 248.799Z" fill="#022540"/>
<path d="M202.607 31.1593C202.596 30.7614 202.458 30.3811 202.322 30.0073C200.816 25.9001 199.312 21.7929 197.806 17.6834C196.728 14.7413 195.421 11.5324 192.639 10.1466C188.91 8.28861 184.604 10.5663 180.657 11.8843C180.771 17.0954 180.534 22.3153 179.948 27.4936C179.618 30.4161 179.175 33.3648 179.536 36.2829C179.896 39.2011 181.195 42.1542 183.634 43.7542C187.767 46.4669 193.468 44.3138 197.001 40.8404C199.403 38.4797 201.255 35.5463 202.363 32.3484C202.495 31.9637 202.618 31.568 202.607 31.1593Z" fill="#EDD5BE"/>
<path d="M196.676 28.8466C196.897 27.7362 197.765 26.7416 198.865 26.5362C199.967 26.3307 201.205 27.0455 201.455 28.1493C201.76 29.4849 200.71 30.6937 200.042 31.8872C197.871 35.7561 199.569 40.5847 201.293 44.6766C202.875 41.835 205.014 39.3125 207.552 37.3016C209.54 35.7255 211.951 34.1932 212.443 31.6882C212.711 30.3286 212.34 28.9035 212.605 27.5439C212.973 25.6596 214.504 24.1492 214.77 22.2475C215.062 20.1688 213.783 18.2212 212.465 16.6014C209.397 12.8286 205.759 9.53016 201.717 6.85686C200.561 6.0918 199.28 5.25682 198.912 3.91033C198.727 3.22834 198.802 2.47204 198.485 1.83814C197.94 0.749582 196.536 0.511295 195.333 0.402002C191.621 0.0719366 187.797 -0.249362 184.241 0.876356C183.338 1.1627 182.437 1.54303 181.491 1.5474C179.644 1.55396 178.043 0.130971 176.2 0.00856261C174.139 -0.126961 172.261 1.46216 171.427 3.37261C170.594 5.28524 170.594 7.45361 170.715 9.53892C171.976 10.0963 173.238 10.6537 174.502 11.2111C173.383 12.9248 173.316 15.2834 174.338 17.0561C176.839 17.3752 179.428 16.9555 181.707 15.8648C183.277 15.1129 184.874 14.0177 186.587 14.3128C188.322 14.6123 189.476 16.2167 190.755 17.4386C192.036 18.6605 194.166 19.5414 195.456 18.3283C196.646 21.6814 197.067 25.3099 196.676 28.8466Z" fill="#685347"/>
<path d="M203.639 44.2023C209.168 44.9215 213.454 48.0975 215.606 51.643C217.758 55.1884 218.134 59.0968 218.484 62.9264C218.933 67.8446 219.385 72.7606 219.834 77.6788C220.91 89.4409 221.986 101.223 221.485 113.002C221.256 118.371 220.698 123.73 220.141 129.088C218.994 140.111 217.849 151.135 216.704 162.158C201.572 161.152 186.44 160.147 171.309 159.141C169.494 159.021 167.569 158.873 166.132 158.105C163.52 156.713 163.676 154.035 164.093 151.793C169.304 123.765 173.471 95.7187 175.956 67.4424C176.299 63.5406 175.288 51.6954 177.665 48.7642C180.445 45.3389 198.454 43.5269 203.639 44.2023Z" fill="#1FDE82"/>
<path d="M169.464 84.4483C173.744 76.4109 175.567 67.2302 176.084 58.1152C176.192 56.2113 176.179 54.1041 174.941 52.668C174.755 52.4538 174.533 52.2221 174.548 51.938C174.556 51.75 174.671 51.586 174.783 51.4352C175.287 50.7423 175.792 50.0472 176.295 49.3542C177.211 49.7171 178.13 50.0778 179.046 50.4406C179.415 51.656 178.413 52.8188 178.076 54.0451C177.909 54.6506 177.909 55.2867 177.909 55.914C177.907 61.2366 178.763 67.1515 178.03 72.4238C177.298 77.6939 177.045 82.8023 174.496 87.4582C173.122 89.9676 171.426 92.2955 169.464 94.3655C169.209 94.6343 168.946 94.9032 168.628 95.0912C167.613 95.6967 164.175 94.9273 163.138 95.4934C163.218 94.4049 163.108 92.8594 163.532 91.8408C163.882 91.0036 164.62 90.6495 165.29 90.0725C167.068 88.538 168.367 86.5117 169.464 84.4483Z" fill="#F45C5C"/>
<path d="M128.515 10.5553C128.725 11.3094 129.081 12.0286 129.442 12.7368C130.397 14.6079 131.414 16.455 132.493 18.2692C132.633 18.5075 132.825 18.7742 133.1 18.7938C133.272 18.8048 133.424 18.7129 133.56 18.619C134.409 18.0375 135.161 17.3337 135.789 16.5359C136.267 15.9282 136.684 15.2243 136.686 14.4374C136.688 13.5259 136.137 12.6734 135.733 11.8209C134.966 10.2034 134.687 8.40445 134.938 6.70822C134.627 6.38034 134.046 6.47434 133.763 6.78473C133.478 7.09513 133.409 7.53884 133.35 7.96072C132.579 7.38583 132.577 6.31914 132.242 5.45136C131.955 4.70816 131.393 4.08301 130.844 3.47752C130.693 3.30921 130.526 3.13213 130.308 3.06874C129.747 2.90262 129.371 3.53652 129.209 4.05894C128.558 6.14644 127.908 8.36946 128.515 10.5553Z" fill="#EDD5BE"/>
<path d="M185.436 71.272C187.845 72.0021 190.351 72.6535 192.847 72.3387C195.342 72.0261 196.852 67.5386 197.697 65.1429C198.451 63.0116 197.746 60.5613 196.379 58.7711C195.011 56.9787 193.063 55.7415 191.086 54.6791C182.604 50.1194 172.91 48.1194 164.666 43.1378C152.559 35.8217 144.961 23.0344 136.187 11.8625C135.943 11.5521 135.675 11.2264 135.299 11.1171C134.874 10.9925 134.426 11.1739 134.02 11.351C132.521 12.0089 131.022 12.6647 129.52 13.3227C132.402 20.9841 135.686 28.4903 139.354 35.7998C143.25 43.5596 147.845 51.3894 155.069 56.113C157.839 57.9229 164.085 62.5657 167.131 63.8423C173.876 66.6686 178.443 69.1517 185.436 71.272Z" fill="#1ED77E"/>
</svg>
