<svg width="234" height="264" viewBox="0 0 234 264" fill="none" xmlns="http://www.w3.org/2000/svg">
<path d="M70.5924 263.465C76.3885 263.468 82.29 263.454 87.8303 261.746C91.6764 260.558 95.8254 257.581 95.3564 253.582C94.7954 248.8 88.6111 247.401 83.8023 247.197C68.4449 246.544 53.0875 245.888 37.7301 245.235C31.0768 244.952 24.3518 244.673 17.813 245.931C13.1142 246.835 1.32241 250.39 0.135373 256.144C-1.19303 262.594 7.57844 263.138 12.2974 263.443C31.5481 264.687 51.2946 263.459 70.5924 263.465Z" fill="#F2F5FC"/>
<path d="M213.101 258.671C220.012 258.77 227.913 258.435 232.323 253.11C233.355 251.863 234.142 250.294 233.978 248.684C233.624 245.209 229.448 243.713 226.004 243.136C205.977 239.778 185.496 241.091 165.233 242.414C152.58 243.24 139.776 244.093 127.706 247.981C121.416 250.007 116.417 255.272 124.354 257.602C132.039 259.858 143.824 257.692 151.887 257.806C172.293 258.094 192.697 258.383 213.101 258.671Z" fill="#F2F5FC"/>
<path d="M138.46 152.046C138.646 155.916 138.94 159.782 139.234 163.646C139.674 169.428 140.114 175.209 140.554 180.99C140.695 182.838 140.882 184.809 142.03 186.264C142.149 186.415 142.284 186.563 142.464 186.628C143.067 186.852 143.534 186.085 143.729 185.472C146.065 178.17 149.581 171.246 154.098 165.054C155.252 163.473 156.51 161.904 158.193 160.91C159.461 160.162 160.904 159.778 162.327 159.405C165.176 158.655 168.024 157.905 170.874 157.156C172.543 156.716 174.278 156.244 175.581 155.11C176.609 154.217 177.278 152.991 177.924 151.792C181.198 145.723 184.503 139.569 186.135 132.87C187.324 127.982 187.591 122.91 187.459 117.883C187.445 117.382 187.425 116.871 187.241 116.406C186.987 115.766 186.444 115.283 185.868 114.908C183.702 113.501 180.98 113.355 178.4 113.267C168.601 112.93 158.606 112.829 149.029 115.227C146.083 115.966 141.061 116.729 139.663 119.881C137.946 123.752 138.545 129.711 138.382 133.871C138.144 139.926 138.171 145.993 138.46 152.046Z" fill="#022540"/>
<path d="M194.189 240.22C197.245 240.491 198.333 238.466 200.885 236.931C196.383 227.665 195.926 218.399 191.422 209.135C189.999 206.205 187.325 201.886 186.461 198.781C185.399 194.964 184.439 192.344 184.264 188.419C183.593 173.201 182.92 157.986 182.249 142.768C182.193 141.493 182.125 140.175 181.524 139.017C179.799 135.689 174.909 135.348 170.946 135.492C170.078 135.523 169.131 135.584 168.498 136.127C167.775 136.747 167.717 137.773 167.706 138.691C167.571 150.691 159.935 139.495 159.801 151.495C159.753 155.714 164.086 183.406 165.053 187.544C166.763 194.861 171.626 203.269 175.939 209.641C182.581 219.447 187.612 228.644 194.189 240.22Z" fill="#022540"/>
<path d="M158.394 145.13C152.907 144.45 147.421 143.772 141.934 143.091C141.656 142.402 143.025 143.107 142.942 143.835C140.31 166.773 141.645 190.013 144.172 213.037C145.26 222.961 145.437 232.927 144.497 242.833C146.754 243.053 150.643 243.367 152.901 243.587C156.735 212.689 158.941 181.697 162.776 150.799C162.969 149.236 163.079 147.434 161.867 146.306C160.976 145.48 159.635 145.283 158.394 145.13Z" fill="#022540"/>
<path d="M117.587 93.1434C117.024 92.8628 116.467 92.5283 116.079 92.0321C115.361 91.1116 115.363 89.8386 115.397 88.6733C115.411 88.2063 115.491 87.636 115.927 87.4654C116.514 87.2341 117.154 87.9818 117.746 87.7618C117.65 87.2499 117.553 86.7133 117.702 86.2126C117.852 85.7119 118.332 85.2696 118.846 85.3482C119.162 86.2261 118.967 87.2813 119.497 88.0492C120.145 88.9899 121.507 89.0191 122.504 89.5759C123.323 90.0339 123.877 90.8399 124.4 91.619C125.27 92.9144 124.514 94.3334 123.022 94.4838C121.265 94.6612 119.129 93.9113 117.587 93.1434Z" fill="#EADDD0"/>
<path d="M150.207 43.4828C153.566 42.5622 156.95 41.7225 160.354 40.9861C159.403 38.1393 160.48 35.0656 160.742 32.0751C161.097 28.0293 159.937 24.0194 158.718 20.1465C157.735 17.0257 156.638 13.8061 154.37 11.4465C153.919 10.9772 153.398 10.5327 152.767 10.3778C152.227 10.2453 151.659 10.3329 151.112 10.4227C145.919 11.2758 140.655 12.1492 135.875 14.3517C135.527 14.5134 135.159 14.6997 134.973 15.0343C134.805 15.3351 134.814 15.6988 134.829 16.0423C135.247 25.1824 137.94 34.2035 142.562 42.0953C144.963 43.0495 147.494 43.485 150.207 43.4828Z" fill="#EDD4B9"/>
<path d="M184.449 120.171L184.506 120.117C184.542 120.077 184.575 120.041 184.607 120.007C184.683 119.892 184.761 119.782 184.835 119.666C185.847 118.09 186.716 116.428 187.595 114.776C189.097 95.7052 186.736 76.5 180.579 57.8517C178.642 51.9873 176.724 45.5392 169.669 41.5719C169.307 41.3699 168.922 41.1678 168.468 41.1027C167.88 41.0174 167.281 41.17 166.72 41.3182C162.944 42.3285 159.165 43.3389 155.388 44.3492C154.637 44.5513 153.88 44.7533 153.115 44.9352C152.316 45.126 151.506 45.2944 150.683 45.4202C149.285 45.6312 143.751 47.012 143.576 48.3456C143.128 51.7538 142.721 55.1642 142.367 58.5791C141.487 67.0187 140.845 75.4381 140.962 83.8979C141.079 92.324 140.383 100.748 139.091 109.122C138.99 109.773 138.523 113.168 137.958 116.659C137.989 116.72 138.02 116.781 138.052 116.841C138.55 117.755 139.084 118.651 139.667 119.513C139.721 119.592 139.827 119.735 139.934 119.883C139.988 119.949 140.038 120.005 140.069 120.043C140.731 120.786 141.449 121.486 142.201 122.14C142.259 122.191 142.365 122.286 142.479 122.389C141.445 121.433 142.542 122.4 142.852 122.602C143.632 123.116 144.442 123.583 145.277 124.008C145.488 124.116 146.327 124.459 146.41 124.508C146.498 124.54 146.585 124.567 146.673 124.598C158.548 123.979 170.384 123.022 182.136 121.72C182.876 121.177 183.664 120.582 184.449 120.171Z" fill="#EBF2F6"/>
<path d="M161.212 97.9658C159.946 102.285 158.081 107.113 153.865 108.682C151.1 109.71 148.017 109.023 145.196 108.161C139.557 106.435 134.125 104.03 129.054 101.017C125.84 99.1063 122.392 96.1629 122.865 92.4539C122.937 91.8836 123.128 91.2931 123.57 90.9272C124.609 90.0673 126.13 90.9272 127.22 91.7175C132.579 95.5949 139.019 97.9545 145.612 98.4597C146.44 98.5226 147.295 98.554 148.076 98.2756C150.122 97.5459 150.876 95.0942 151.329 92.9703C153.12 84.5531 154.502 76.0484 155.469 67.4966C155.655 65.8486 155.842 64.1535 156.625 62.6919C157.846 60.4198 160.543 59.0435 163.099 59.387C171.419 60.5119 167.705 70.6735 166.662 75.8598C165.163 83.3026 163.346 90.6802 161.212 97.9658Z" fill="#DDDDDD"/>
<path d="M143.529 56.336C143.556 56.2978 143.581 56.2619 143.605 56.2237C144.061 55.4963 144.516 54.7688 144.974 54.0392C145.333 53.4666 145.706 52.8223 145.578 52.1577C145.56 52.0679 145.526 51.9691 145.446 51.9265C145.394 51.8995 145.333 51.8973 145.275 51.8973C144.326 51.886 143.377 51.8748 142.425 51.8614C141.824 51.8546 141.032 51.4976 140.733 52.27C140.581 52.6629 140.677 53.1074 140.812 53.5071C141.097 54.3625 141.548 55.164 142.129 55.8555C142.008 56.2215 142.012 56.8883 141.965 57.1689C141.775 58.3454 141.588 59.5219 141.411 60.7028C141.057 63.0602 140.729 65.4222 140.431 67.7863C139.834 72.5169 139.351 77.261 138.983 82.014C138.934 82.6583 138.886 83.3139 139.037 83.9426C139.4 85.4513 140.794 86.4504 142.084 87.3081C142.488 86.0643 143.238 84.9372 144.229 84.0863C144.716 83.6664 145.284 83.2847 145.533 82.692C145.697 82.3036 145.701 81.8703 145.699 81.4482C145.654 73.04 143.33 64.7329 143.529 56.336Z" fill="#2367E9"/>
<path d="M145.084 241.969C144.95 241.967 144.813 241.967 144.689 242C144.521 242.047 144.4 242.151 144.297 242.254C143.816 242.725 143.469 243.264 143.283 243.828C143.11 244.353 143.065 244.915 142.677 245.382C142.246 245.9 141.456 246.221 140.682 246.484C138.678 247.166 136.522 247.631 134.313 247.86C133.824 247.91 133.319 247.952 132.877 248.107C131.625 248.543 131.322 249.668 131.168 250.633C131.123 250.914 131.116 251.255 131.457 251.408C131.641 251.491 131.874 251.491 132.092 251.488C138.409 251.412 141.106 251.378 147.423 251.302C148.964 251.284 150.555 251.219 152.045 250.941C152.247 250.902 152.453 250.857 152.602 250.756C152.765 250.646 152.833 250.485 152.889 250.332C153.701 248.143 153.777 245.781 153.564 243.534C153.499 242.836 153.371 242.261 152.261 242.117C150.681 241.91 152.415 242.065 150.804 242.043C148.897 242.018 146.99 241.994 145.084 241.969Z" fill="#4D4D4D"/>
<path d="M194.212 239.73C193.97 239.858 193.721 239.995 193.56 240.218C193.425 240.402 193.364 240.628 193.331 240.853C193.14 242.157 193.822 243.505 193.497 244.782C193.281 245.626 192.657 246.295 192.038 246.908C191.026 247.91 189.963 248.857 188.852 249.748C188.383 250.126 187.882 250.523 187.687 251.091C187.339 252.092 188.329 253.284 189.375 253.132C189.763 253.073 190.113 252.874 190.452 252.674C195.077 249.962 199.591 247.061 203.982 243.983C204.523 243.603 205.116 243.127 205.143 242.469C205.156 242.121 205.006 241.791 204.853 241.479C204.31 240.368 203.709 239.286 203.051 238.24C202.708 237.692 202.365 237.128 201.968 236.616C201.44 235.934 201.431 235.88 200.693 236.273C198.541 237.411 196.389 238.594 194.212 239.73Z" fill="#4D4D4D"/>
<path d="M170.147 21.5876C170.149 19.6365 169.014 17.8943 168.04 16.2037C166.422 13.3905 165.143 10.3572 163.168 7.78203C161.191 5.20682 158.306 3.0672 155.061 3.00433C153.71 2.97739 152.382 3.31191 151.071 3.64195C145.491 5.04967 139.843 6.4821 134.776 9.21222C134.143 9.55349 133.495 9.93739 133.102 10.5391C132.754 11.0734 132.642 11.7223 132.536 12.3532C132.388 13.2446 132.24 14.1359 132.092 15.0272C132 15.584 131.908 16.1565 132.02 16.7111C132.366 18.4017 134.383 19.1403 136.107 19.2212C137.817 19.302 139.522 19.0416 141.214 18.7789C142.834 18.5297 146.657 17.1421 147.999 18.6015C148.663 19.3222 148.482 20.5391 148.931 21.3922C149.483 22.443 150.51 23.0761 151.199 24.0146C151.917 24.879 152.42 26.1116 151.913 27.1152C152.862 26.5404 154.04 26.3518 155.122 26.601C155.503 26.6886 155.887 26.839 156.14 27.1376C156.625 27.7124 156.425 28.6374 155.909 29.183C155.393 29.7286 154.65 29.9868 153.939 30.2247C157.038 33.1659 158.218 37.9683 156.831 42.0119C159.185 41.7492 161.128 40.0833 162.74 38.3455C164.194 36.7739 165.524 35.0609 166.431 33.121C166.85 32.2207 167.176 31.28 167.501 30.3392C168.148 28.469 168.794 26.5988 169.44 24.7286C169.788 23.7115 170.145 22.6675 170.147 21.5876Z" fill="#4A2400"/>
<path d="M112.116 131.693C111.387 129.855 110.341 127.948 108.519 127.18C107.105 126.586 105.499 126.799 103.982 127.026C99.8778 127.636 95.7782 128.274 91.6831 128.936C90.8887 129.064 90.0943 129.199 89.3 129.329C89.0554 127.412 88.5504 125.519 87.8077 123.754C87.3634 122.697 86.8159 121.66 86.0305 120.928C85.3641 120.306 84.5674 119.942 83.7685 119.675C80.8088 118.687 77.7301 118.941 74.804 119.592C71.8421 120.25 68.7681 121.471 67.0941 124.388C66.1449 126.038 65.7409 128.106 65.7095 130.173C65.6937 131.206 65.7388 132.344 65.8667 133.465C63.4051 133.929 60.9434 134.401 58.4841 134.884C55.9417 135.384 51.2204 135.328 50.1299 138.229C49.6878 139.405 49.7776 140.71 49.9168 141.96C50.8817 150.575 53.9557 158.817 55.4143 167.365C56.0964 171.359 56.4263 175.425 57.5169 179.325C57.7817 180.272 58.1497 181.285 58.9867 181.796C59.698 182.232 60.591 182.205 61.4235 182.16C79.505 181.163 97.3624 177.704 115.002 173.611C115.588 173.474 116.209 173.319 116.629 172.888C117.003 172.501 117.158 171.958 117.275 171.433C118.444 166.145 117.066 160.681 116.258 155.328C115.058 147.396 115.074 139.15 112.116 131.693ZM69.5265 132.778C69.347 132.811 69.1697 132.845 68.9902 132.879C68.8286 130.757 68.1644 127.67 69.4816 126.323C70.5923 125.182 71.9813 124.291 73.4197 123.842C75.6097 123.159 77.8603 122.706 80.1424 122.493C81.1746 122.396 82.2451 122.353 83.2459 122.789C84.4643 123.317 85.1306 126.224 85.7791 127.587C86.1089 128.283 86.1944 129.051 86.228 129.836C80.6519 130.768 75.0847 131.749 69.5265 132.778Z" fill="#1F61DE"/>
<path d="M27.5222 249.393C24.9036 249.625 22.2132 248.944 20.0164 247.501C23.8108 238.931 27.6051 230.363 31.3973 221.793C32.5978 219.084 33.803 216.358 34.5211 213.482C35.4029 209.948 35.5284 206.273 35.6496 202.631C36.1186 188.509 36.5853 174.387 37.0543 160.267C37.0947 159.084 37.1418 157.86 37.6489 156.789C39.1052 153.713 43.2947 153.43 46.692 153.592C47.437 153.628 48.2493 153.691 48.7946 154.198C49.4184 154.78 49.4766 155.732 49.4901 156.585C49.692 167.725 51.5995 157.654 51.8014 168.796C51.871 172.714 50.2328 197.885 49.4317 201.722C48.0181 208.502 45.9022 215.574 42.2513 221.459C36.6303 230.514 33.0804 238.695 27.5222 249.393Z" fill="#022540"/>
<path d="M58.7667 158.486C63.4655 157.894 68.1665 157.303 72.8652 156.71C73.0986 156.073 71.9296 156.719 72.0082 157.395C74.4271 178.709 74.6403 200.273 72.6387 221.629C71.7748 230.832 70.5025 240.085 71.3776 249.285C69.4433 249.474 67.5092 249.663 65.5771 249.851C62.0699 221.14 58.5627 192.431 55.0554 163.72C54.8782 162.267 54.7727 160.592 55.8027 159.555C56.5566 158.794 57.7031 158.621 58.7667 158.486Z" fill="#022540"/>
<path d="M66.4227 62.6561C64.8228 58.132 63.223 53.6103 61.6254 49.0862C57.3866 51.8007 51.4962 51.6367 47.4167 48.6888C51.0788 89.4185 50.0444 130.409 49.0055 171.289C57.0858 167.984 65.9202 166.538 74.6334 167.097C74.8511 150.968 75.0688 134.838 75.2864 118.709C75.4278 108.136 75.5644 97.4853 73.6481 87.088C72.1043 78.7292 69.2568 70.6713 66.4227 62.6561Z" fill="#EFEFEF"/>
<path d="M38.5313 43.361C37.6247 42.885 36.662 42.317 35.6499 42.4697C34.0814 42.7076 33.3096 44.4724 32.8428 45.9901C20.0166 87.6425 24.4372 132.398 28.9812 175.747C38.6615 174.07 48.6132 173.958 58.3294 175.417C60.1201 170.004 60.5486 164.245 60.847 158.552C62.8374 120.552 59.6287 82.2832 51.3396 45.1459C47.0335 46.0462 42.4222 45.4063 38.5313 43.361Z" fill="#025A82"/>
<path d="M67.9963 54.0323C66.1361 50.6421 64.1054 47.326 62.676 43.7314C61.3341 45.3076 59.2561 46.2303 57.1895 46.1674C68.6425 74.5037 69.0195 105.918 69.2371 136.484C69.3269 149.007 69.4145 161.531 69.5042 174.052C75.6548 172.595 82.0636 172.234 88.3398 172.986C84.4758 162.532 81.5181 151.592 81.4059 140.447C81.3363 133.617 82.335 126.825 82.7569 120.009C84.1683 97.2136 78.9871 74.048 67.9963 54.0323Z" fill="#025A82"/>
<path d="M48.5497 40.7614C46.869 39.5154 45.3946 37.6182 44.3355 35.1103C42.3833 30.4785 40.8978 25.51 41.2389 20.5773C41.6316 14.8993 45.3454 8.1593 51.4601 7.57331C58.6227 6.88629 61.3267 15.9366 62.958 22.003C64.255 26.8256 64.3156 32.131 62.0941 36.4148C58.7776 42.8135 52.9613 44.0326 48.5497 40.7614Z" fill="#EDD4B9"/>
<path d="M70.4954 253.77C71.366 254.365 70.3271 255.009 69.8065 255.11C68.8595 255.296 67.8633 255.341 66.9073 255.209C66.6538 255.173 66.3935 255.123 66.1804 254.984C66.0121 254.874 65.8796 254.717 65.7517 254.562C65.3994 254.133 64.5961 253.478 64.4279 252.955C64.2887 252.523 64.5108 252.07 64.6768 251.648C65.0314 250.752 65.6933 249.8 65.5564 248.79C67.65 248.812 69.5642 247.901 71.3369 248.289C71.5523 248.996 72.1514 249.533 71.9562 250.123C72.0841 249.735 77.2114 250.498 77.815 250.554C78.7866 250.647 79.7627 250.709 80.7388 250.7C81.4995 250.691 82.911 250.2 83.4092 250.911C83.5865 251.163 83.6671 251.471 83.7187 251.776C83.7591 252.007 83.786 252.247 83.7321 252.476C83.6401 252.869 83.3172 253.179 82.9537 253.354C78.9954 255.274 74.6624 253.296 70.4954 253.77Z" fill="#826F5F"/>
<path d="M23.306 253.686C23.9051 254.654 22.5992 254.836 22.0405 254.71C21.0262 254.481 20.0208 254.088 19.1367 253.54C18.9011 253.394 18.6677 253.233 18.5174 253.002C18.3985 252.82 18.338 252.606 18.2796 252.398C18.1181 251.818 17.6131 250.821 17.6737 250.233C17.7253 249.748 18.1405 249.396 18.4905 249.052C19.231 248.323 20.5235 246.996 20.8287 245.938C22.8864 246.874 25.9717 247.905 27.5514 249.064C26.8154 249.719 26.7909 250.231 26.3399 250.729C26.6361 250.402 31.3638 253.394 31.936 253.713C32.856 254.23 33.7896 254.717 34.759 255.134C35.513 255.46 37.1197 255.59 37.3037 256.509C37.3688 256.836 37.3127 257.173 37.2341 257.496C37.1735 257.743 37.095 257.99 36.9424 258.192C36.6799 258.54 36.2265 258.704 35.7889 258.72C31.0385 258.884 27.6278 255.038 23.306 253.686Z" fill="#826F5F"/>
<path d="M53.5903 91.825C53.5544 91.4366 54.149 91.3783 54.1894 91.7644C54.3016 92.8556 54.416 93.9445 54.5282 95.0356C54.5708 95.442 53.9361 95.5049 53.8979 95.0985C53.7969 94.0074 53.6935 92.9162 53.5903 91.825Z" fill="#CCCCCC"/>
<path d="M71.4333 96.8588C71.5029 97.5638 71.559 98.2711 71.6196 98.9783C71.6532 99.3712 71.0564 99.4318 71.0115 99.0389C70.9307 98.3339 70.8477 97.629 70.7759 96.924C70.7333 96.4996 71.3929 96.4345 71.4333 96.8588Z" fill="#CCCCCC"/>
<path d="M96.9016 103.123C97.5164 103.275 98.1448 103.433 98.6766 103.776C99.2084 104.12 99.637 104.688 99.6438 105.321C99.6483 105.954 99.1118 106.594 98.4813 106.549C98.5441 106.719 98.5262 106.919 98.432 107.074C97.1843 107.564 95.8201 106.888 94.5837 106.371C93.6278 105.972 92.6336 105.664 91.6194 105.449C90.7622 105.267 89.7997 105.098 89.2881 104.389C88.9156 103.87 88.8819 103.174 89.0188 102.55C89.1579 101.926 89.4473 101.349 89.6784 100.756C91.2514 100.889 92.8223 101.024 94.3953 101.156C94.6511 101.178 94.918 101.203 95.1357 101.342C95.3533 101.482 95.4947 101.771 95.3825 102.002C95.0504 102.07 94.7476 102.265 94.5456 102.537C95.3333 102.732 96.1185 102.927 96.9016 103.123Z" fill="#EADDD0"/>
<path d="M35.5398 66.5019C36.3925 59.5307 45.0203 57.2204 47.5828 65.6443C49.9053 73.2734 51.2092 81.1674 55.4659 88.325C57.5079 91.7601 60.8019 94.1692 65.0407 95.1323C73.4846 97.0497 81.9688 98.7672 90.4755 100.278C90.2937 102.079 90.1143 103.877 89.9326 105.678C79.1842 105.13 68.4357 104.582 57.6895 104.034C55.6184 103.929 53.471 103.805 51.5524 102.959C49.6922 102.137 48.2472 100.721 46.9569 99.2904C38.3896 89.7866 34.1732 77.6806 35.5398 66.5019Z" fill="#E8E8E8"/>
<path d="M56.4469 12.9617C60.2167 12.8404 64.2109 11.884 66.7667 9.10895C67.7069 8.0874 68.4225 6.81889 68.5997 5.4426C68.7748 4.06631 68.3576 2.57999 67.3389 1.63702C66.6298 0.979185 65.6917 0.624449 64.7515 0.388706C62.696 -0.125438 60.5173 -0.129905 58.4596 0.377503C56.3189 0.905118 54.3397 1.96931 52.208 2.53285C49.2011 3.32988 46.0013 3.10086 42.963 2.42956C41.601 2.1287 40.111 1.75601 38.8724 2.39588C35.9418 3.91137 37.2207 8.36355 39.8124 9.46592C40.9367 9.94414 42.2022 10.0923 43.3534 10.5122C45.3011 11.2239 47.1996 11.9222 49.2371 12.342C51.6044 12.827 54.0302 13.0402 56.4469 12.9617Z" fill="#E3E62B"/>
<path d="M51.5188 6.72662C49.4723 6.29779 47.4281 5.86897 45.3816 5.44014C43.7548 5.09888 42.092 4.75538 40.4405 4.94398C37.456 5.28524 34.88 7.35752 33.2666 9.89232C31.6532 12.4271 30.8702 15.393 30.2464 18.3341C29.9479 19.7351 29.6808 21.1429 29.443 22.5551C29.1423 24.349 28.8931 26.2192 29.4002 27.9659C30.2619 30.9385 33.1007 32.8896 35.9482 34.102C38.7935 35.3121 41.8835 36.0598 44.4191 37.829C45.3077 38.4486 46.212 39.221 47.2958 39.2097C46.5239 38.0714 45.752 36.9309 44.9801 35.7926C43.986 34.3265 42.947 32.6943 43.1355 30.9318C43.2702 29.6723 44.0309 28.4666 43.7998 27.2205C43.6539 26.4392 43.1377 25.7904 42.6934 25.1303C42.2491 24.4702 41.8496 23.7001 41.9843 22.9165C42.1189 22.133 43.0412 21.4752 43.7255 21.8793C44.0307 22.0611 44.2755 22.4271 44.63 22.3957C45.1573 22.3508 45.1728 21.6031 45.1998 21.0732C45.2514 20.0472 45.947 19.1536 46.7548 18.5205C47.5649 17.8874 48.5075 17.4451 49.34 16.8434C51.483 15.3032 52.8135 12.6921 52.8045 10.054L53.056 7.78634C52.9528 7.133 52.1695 6.86357 51.5188 6.72662Z" fill="#E3E62B"/>
<path d="M63.8894 80.4267C63.7503 79.7419 63.6451 79.0526 63.5396 78.3634C63.5329 78.3252 63.5283 78.287 63.5216 78.2489C63.4565 77.8223 63.3891 77.3957 63.3241 76.9691C62.2851 70.2449 61.1969 63.3724 57.9701 57.3845C57.9634 57.371 57.9544 57.3576 57.9454 57.3441C58.1272 56.8142 58.3112 56.2866 58.493 55.759C58.6478 55.3077 58.8048 54.8497 58.8384 54.3737C58.8564 54.1223 58.8319 53.8506 58.6793 53.6485C58.3741 53.2444 57.7571 53.3185 57.2634 53.433C56.588 53.5902 54.3148 53.7204 54.0994 54.5646C53.9199 55.2696 55.3895 56.4775 56.3477 57.2543C56.3724 58.0693 56.8796 59.3962 56.9851 60.0361C58.0128 66.2866 58.1833 72.6494 59.0921 78.9179C59.1616 79.4029 59.2425 79.9013 59.5095 80.3122C59.864 80.8578 60.4834 81.1586 61.0736 81.4325C62.2471 81.9758 63.4185 82.5214 64.592 83.0648C64.3026 82.2026 64.069 81.3203 63.8894 80.4267Z" fill="#022540"/>
</svg>
