<svg width="423" height="565" viewBox="0 0 423 565" fill="none" xmlns="http://www.w3.org/2000/svg">
<path d="M378.556 200.495C377.47 193.819 357.593 88.1884 281.232 79.8616C239.799 68.2323 193.892 82.0265 159.045 105.023C132.039 122.845 96.6489 177.971 95.8546 179.139C93.5321 180.398 70.2469 197.535 61.6003 205.489C44.7095 221.045 28.4017 238.836 17.7444 259.316C-34.9692 360.607 43.7342 440.563 73.0519 457.347C108.764 477.777 146.557 493.635 187.266 497.38C245.862 502.777 448.05 484.593 420.411 312.791C409.683 246.086 385.825 213.665 378.556 200.495Z" fill="#FF6A6A"/>
<path d="M420.419 312.802C409.682 246.087 385.823 213.666 378.554 200.496C377.589 194.606 361.945 111.549 305.702 86.4983C310.79 92.2576 315.515 98.5506 319.718 105.569C329.943 126.048 319.718 141.403 309.493 161.883C304.385 172.112 314.6 187.477 319.718 197.717C350.383 248.896 432.173 330.805 355.5 366.64C314.61 387.12 273.71 412.714 232.83 438.299C151.05 499.718 94.8176 397.349 28.3701 351.285C23.5441 346.452 11.9115 342.817 0.942505 343.492C7.80945 402.847 52.51 445.618 73.0505 457.369C108.763 477.798 146.556 493.656 187.265 497.402C245.87 502.789 448.058 484.605 420.419 312.802Z" fill="#F75F5F"/>
<path d="M207.755 236.754C191.317 234.327 165.769 232.575 153.996 246.611C149.602 251.847 140.373 249.944 136.944 244.567C129.786 248.967 122.919 253.891 116.323 258.683C96.8386 272.82 74.4079 289.534 73.6438 316.357C72.6082 353.097 89.66 483.96 122.004 481.242C143.761 479.419 174.758 360.417 196.505 361.918C224.988 363.871 238.812 356.944 260.61 339.323C269.025 332.527 279.27 326.828 286.348 318.672C297.951 305.331 282.658 290.097 275.027 281.146C256.92 259.922 236.721 241.033 207.755 236.754Z" fill="#F15D5D"/>
<path d="M207.168 24.5916C199.828 10.2437 193.605 3.16543 183.239 10.6565C183.36 10.133 175.356 13.6369 174.864 14.0699C168.741 19.5976 158.285 36.3921 157.51 44.2256C152.685 92.7164 165.805 164.698 166.66 165.282C195.716 185.641 238.376 139.596 249.877 109.209C254.291 97.6099 213.029 36.0297 207.168 24.5916Z" fill="#4A2400"/>
<path d="M183.688 231.331C183.085 243.524 172.79 252.908 160.684 252.294C148.579 251.69 139.259 241.319 139.862 229.116L145.905 133.241C146.508 121.048 156.804 111.654 168.909 112.258C181.014 112.862 190.334 123.233 189.731 135.436L183.688 231.331Z" fill="white"/>
<path d="M236.394 137.243C236.394 119.432 234.644 119.12 216.879 119.12C209.067 119.12 181.066 112.565 181.066 112.565C181.066 112.565 166.658 125 166.658 134.978C166.658 152.769 169.242 234.024 187.018 234.024C204.794 234.014 236.394 155.035 236.394 137.243Z" fill="#E0B29D"/>
<path d="M157.125 115.819C164.807 112.084 171.643 111.842 181.064 112.567C181.064 112.567 181.145 153.526 185.769 153.526C202.499 153.526 229.585 124.327 233.738 125.374L233.758 125.334C244.144 129.845 256.218 141.394 263.276 152.217C250.669 173.382 253.997 207.686 253.122 233.039C252.559 248.796 251 265.168 250.628 281.409C229.656 289.887 209.909 295.696 186.021 290.833C179.898 289.585 166.958 283.846 157.92 283.131C158.292 279.456 158.644 275.881 159.026 272.448C161.489 250.75 154.642 217.523 145.794 194.909C132.985 162.165 145.231 145.169 157.125 115.819Z" fill="#EBF2F6"/>
<path d="M263.433 252.412C262.84 264.605 252.535 273.999 240.43 273.385C228.325 272.781 219.004 262.41 219.608 250.207L225.65 154.322C226.253 142.129 236.559 132.745 248.654 133.349C260.759 133.953 270.079 144.334 269.476 156.527L263.433 252.412Z" fill="white"/>
<path d="M193.997 129.196C198.863 130.515 204.061 129.457 208.867 128.118C216.277 126.054 220.54 119.147 220.54 119.147L220.892 100.439L187.874 97.5799L186.708 120.637C187.713 124.483 189.402 127.937 193.997 129.196Z" fill="#E0B29D"/>
<path d="M239.992 79.0967C220.778 97.8748 215.671 113.501 196.508 100.916C177.355 88.3096 162.103 56.6033 166.697 30.1327C171.563 1.98062 212.363 -7.20211 235.236 5.79658C268.495 24.6955 258.622 60.8824 239.992 79.0967Z" fill="#4A2400"/>
<path d="M237.293 68.7257C235.986 77.1532 230.175 101.892 224.012 106.433C215.325 112.817 195.106 122.956 183.695 115.243C168.453 104.933 166.03 77.3446 166.03 50.3404C166.03 23.326 186.601 18.2413 204.105 29.7599C221.589 41.2281 241.476 42.0235 237.293 68.7257Z" fill="#E9C2B0"/>
<path d="M266.635 51.557C261.498 36.5949 251.805 14.1415 236.523 5.92549C219.572 -3.19675 199.695 16.0144 204.42 28.6304C214.193 54.7184 228.822 52.1007 232.381 77.2925C235.297 97.9837 200.469 112.795 213.62 158.909C218.747 176.892 243.46 157.852 260.703 148.518C277.353 139.507 271.481 65.6833 266.635 51.557Z" fill="#4A2400"/>
<path d="M158.177 477.633C163.264 486.041 167.487 494.086 169.729 497.882L173.791 495.213C169.487 486.705 166.411 482.396 162.902 475.982L158.177 477.633Z" fill="#161A1F"/>
<path d="M86.2475 317.931C90.44 324.637 94.6225 331.342 98.795 338.008C105.441 348.64 113.786 358.588 118.36 369.986C129.912 398.783 140.137 427.72 150.222 456.345L157.611 469.747L163.141 510.797L142.43 522.285L140.54 510.797C140.731 493.61 133.371 475.013 131.642 470.19C127.007 457.191 119.707 447.676 111.714 436.228C101.379 421.417 91.003 406.556 80.577 391.644C75.5499 384.445 61.9166 362.797 61.7255 358.729C59.4432 311.195 79.0789 323.902 86.2475 317.931Z" fill="#BA8B75"/>
<path d="M138.48 519.709L139.486 527.059L161.313 520.927C165.074 519.367 167.175 515.722 166.431 512.077L164.34 484.791L162.922 475.991L157.623 469.748C157.623 469.748 159.936 509.207 158.388 509.852C156.839 510.506 143.316 515.671 143.316 515.671L140.552 510.798L138.48 519.709Z" fill="#161A1F"/>
<path d="M113.919 518.665C112.874 529.087 111.225 539.81 110.712 544.502L115.468 545.801C117.197 535.712 117.85 527.133 118.936 519.421L113.919 518.665Z" fill="#161A1F"/>
<path d="M149.456 336.77C148.792 344.775 148.119 352.77 147.445 360.774C146.379 373.531 147.063 386.721 143.886 399.015C135.833 430.329 126.553 461.29 117.253 492.251L118.761 519.85L101.427 555.271L73.6581 550.68C76.1113 551.083 92.047 499.38 93.6356 494.084C97.9086 479.857 97.8382 467.281 98.4113 452.611C99.1452 433.722 99.8792 414.833 100.613 395.944C100.965 386.852 100.885 378.082 103.147 369.282C104.192 365.215 104.987 361.086 105.509 356.918C105.952 353.414 104.816 346.144 106.495 343.174C108.978 338.784 117.152 339.771 121.918 339.328C131.107 338.472 140.287 337.616 149.456 336.77Z" fill="#DEB09D"/>
<path d="M69.9999 548.581L63.2692 560.712L89.5193 564.756C94.2306 565.429 97.354 564.813 99.2363 561.606L113.424 539.344L117.115 533.081L118.25 522.417C118.25 522.417 98.3276 554.531 96.7462 553.973C95.1581 553.422 75.3845 549.929 75.3845 549.929L78.75 539.82L69.9999 548.581Z" fill="#161A1F"/>
<path d="M250.807 275.968C250.515 273.692 187.004 285.1 160.149 266.231C159.315 265.657 159.445 267.238 157.696 269.312C137.105 273.873 83.4867 297.636 71.8842 316.091C68.3955 321.629 51.7057 329.291 58.8742 358.048C60.2717 363.646 122.688 384.438 150.035 383.542C164.633 383.058 164.734 370.966 164.804 370.946C177.915 364.794 234.6 345.734 241.969 337.105C258.579 317.682 253.381 295.682 250.807 275.968Z" fill="#022540"/>
<path d="M222.981 327.929L164.728 360.974C161.993 362.525 157.529 362.474 154.815 360.863L123.989 342.589L132.414 337.806L132.434 335.52L138.145 338.883L138.969 338.42L139.04 333.628L138.949 339.367L151.406 346.707L152.2 346.254V347.18L168.629 356.866L176.33 352.466L176.35 350.422L178.09 351.449L180.674 349.979L185.791 347.059L194.729 341.974L194.759 339.407L196.961 340.706L204.653 336.316L204.683 334.322L206.382 335.329L214.093 330.919L214.174 325.19L206.211 320.488L204.673 321.364L204.693 319.592L196.73 314.89L195.192 315.766L195.212 314.004L187.249 309.302L185.711 310.178L185.741 308.405L177.778 303.703L176.24 304.579L176.26 302.817L168.307 298.125L166.759 299.001L166.779 297.219L158.816 292.527L157.278 293.403L157.298 291.621L149.335 286.939L147.797 287.815L147.817 286.053L139.854 281.351L138.316 282.217L138.336 280.445L130.363 275.743L122.662 280.143L122.631 282.136L120.731 281.009L125.165 278.481V278.471V278.481L125.235 272.732L117.283 268.03L109.571 272.42L109.541 274.403L107.862 273.407L100.14 277.807L100.11 279.8L98.401 278.783L90.6996 283.193L90.6694 285.187L88.9703 284.18L81.2789 288.58L81.2487 290.624L79.4893 289.587L71.7878 293.977L71.7074 299.726L88.5782 309.684L89.5936 309.1L89.654 304.519L89.5836 310.268L100.894 316.944L92.5697 321.666L92.5395 323.952L54.8367 301.589C53.4693 300.773 52.7957 299.716 52.8057 298.679C52.7756 300.592 52.7555 302.505 52.7253 304.418C52.7052 305.465 53.3788 306.533 54.7562 307.338L154.744 366.623C157.459 368.244 161.923 368.284 164.658 366.733L222.901 333.698C224.258 332.913 224.952 331.896 224.962 330.849C224.982 328.946 225.012 327.033 225.042 325.109C225.022 326.136 224.339 327.163 222.981 327.929Z" fill="#024462"/>
<path d="M138.336 280.432L130.625 284.822L122.672 280.119L130.363 275.719L138.336 280.432Z" fill="#F8F9FC"/>
<path d="M127.475 284.948L119.774 289.358L100.148 277.779L107.87 273.379L127.475 284.948Z" fill="#F8F9FC"/>
<path d="M147.82 286.026L140.119 290.416L132.156 285.714L139.857 281.324L147.82 286.026Z" fill="#F8F9FC"/>
<path d="M113.013 287.387L105.311 291.777L90.7025 283.168L98.404 278.758L113.013 287.387Z" fill="#F8F9FC"/>
<path d="M157.315 291.61L149.594 296.011L141.641 291.319L149.342 286.929L157.315 291.61Z" fill="#F8F9FC"/>
<path d="M122.017 292.683L114.316 297.083L106.353 292.39L114.054 287.99L122.017 292.683Z" fill="#F8F9FC"/>
<path d="M145.995 295.888L138.293 300.288L130.31 295.586L138.022 291.196L145.995 295.888Z" fill="#F8F9FC"/>
<path d="M108.594 295.725L100.892 300.115L81.2767 288.546L88.9782 284.146L108.594 295.725Z" fill="#F8F9FC"/>
<path d="M166.77 297.206L159.069 301.606L151.106 296.903L158.807 292.514L166.77 297.206Z" fill="#F8F9FC"/>
<path d="M130.972 297.983L123.27 302.372L115.308 297.681L123.009 293.291L130.972 297.983Z" fill="#F8F9FC"/>
<path d="M96.3644 299.512L88.663 303.902L71.7922 293.954L79.4937 289.554L96.3644 299.512Z" fill="#F8F9FC"/>
<path d="M155.047 301.237L147.345 305.627L139.382 300.935L147.084 296.535L155.047 301.237Z" fill="#F8F9FC"/>
<path d="M117.668 301.071L109.946 305.461L101.994 300.759L109.695 296.369L117.668 301.071Z" fill="#F8F9FC"/>
<path d="M139.937 303.253L132.225 307.653L124.262 302.951L131.974 298.561L139.937 303.253Z" fill="#F8F9FC"/>
<path d="M126.515 306.301L118.803 310.701L110.83 305.989L118.542 301.599L126.515 306.301Z" fill="#F8F9FC"/>
<path d="M185.749 308.405L178.048 312.795L170.075 308.093L177.786 303.703L185.749 308.405Z" fill="#F8F9FC"/>
<path d="M109.82 307.445L102.119 311.845L89.6616 304.495L97.3731 300.095L109.82 307.445Z" fill="#F8F9FC"/>
<path d="M148.911 308.543L141.189 312.943L133.236 308.251L140.948 303.841L148.911 308.543Z" fill="#F8F9FC"/>
<path d="M135.488 311.582L127.787 315.971L119.824 311.279L127.515 306.879L135.488 311.582Z" fill="#F8F9FC"/>
<path d="M195.224 314L187.522 318.39L179.56 313.688L187.271 309.298L195.224 314Z" fill="#F8F9FC"/>
<path d="M157.865 313.843L150.164 318.233L142.191 313.531L149.892 309.141L157.865 313.843Z" fill="#F8F9FC"/>
<path d="M182.254 317.284L174.562 321.674L166.579 316.993L174.301 312.582L182.254 317.284Z" fill="#F8F9FC"/>
<path d="M144.345 316.812L136.633 321.202L128.68 316.51L136.382 312.12L144.345 316.812Z" fill="#F8F9FC"/>
<path d="M204.719 319.585L197.017 323.975L189.044 319.273L196.746 314.883L204.719 319.585Z" fill="#F8F9FC"/>
<path d="M214.213 325.151L206.502 329.561L198.529 324.859L206.24 320.448L214.213 325.151Z" fill="#F8F9FC"/>
<path d="M166.819 319.123L159.108 323.513L151.145 318.821L158.856 314.421L166.819 319.123Z" fill="#F8F9FC"/>
<path d="M191.316 322.634L183.615 327.014L175.652 322.332L183.343 317.922L191.316 322.634Z" fill="#F8F9FC"/>
<path d="M153.604 322.269L145.912 326.67L137.929 321.977L145.641 317.578L153.604 322.269Z" fill="#F8F9FC"/>
<path d="M175.764 324.403L168.072 328.803L160.099 324.101L167.811 319.711L175.764 324.403Z" fill="#F8F9FC"/>
<path d="M162.46 327.491L154.748 331.89L146.786 327.198L154.487 322.798L162.46 327.491Z" fill="#F8F9FC"/>
<path d="M184.738 329.693L177.027 334.083L169.054 329.381L176.765 324.991L184.738 329.693Z" fill="#F8F9FC"/>
<path d="M204.782 330.56L197.071 334.95L184.724 327.67L192.436 323.29L204.782 330.56Z" fill="#F8F9FC"/>
<path d="M171.414 332.78L163.703 337.18L155.74 332.478L163.451 328.088L171.414 332.78Z" fill="#F8F9FC"/>
<path d="M132.503 332.064L121.081 338.548L92.5878 321.643L104.009 315.158L132.503 332.064Z" fill="#F8F9FC"/>
<path d="M159.217 336.569L151.505 340.959L139.068 333.629L146.77 329.229L159.217 336.569Z" fill="#F8F9FC"/>
<path d="M194.825 336.221L185.897 341.326L180.779 344.246L178.195 345.716L164.753 337.791L172.465 333.391L176.587 335.838L185.525 330.733L194.825 336.221Z" fill="#F8F9FC"/>
<path d="M223.007 322.185C225.732 323.786 225.732 326.373 222.987 327.924L164.734 360.969C161.999 362.52 157.535 362.47 154.82 360.859L54.8325 301.574C52.1179 299.963 52.128 297.375 54.8627 295.825L113.106 262.779C115.841 261.229 120.295 261.279 123.019 262.89L223.007 322.185ZM121.079 338.546L132.5 332.062L104.007 315.157L92.5857 321.641L121.079 338.546ZM103.263 312.509L138.241 333.16L145.953 328.76L110.944 308.129L103.263 312.509ZM180.78 344.245L185.898 341.325L194.826 336.231L185.516 330.743L176.588 335.838L172.455 333.401L164.744 337.801L178.176 345.725L180.78 344.245ZM127.473 284.951L107.868 273.392L100.146 277.792L119.762 289.361L127.473 284.951ZM108.602 295.724L88.9863 284.145L81.2949 288.545L100.9 300.104L108.602 295.724ZM71.8038 293.952L88.6746 303.9L96.3861 299.5L79.5053 289.552L71.8038 293.952ZM152.287 341.436L168.705 351.122L176.417 346.722L159.988 337.026L152.287 341.436ZM113.026 287.387L98.417 278.758L90.7156 283.168L105.324 291.777L113.026 287.387ZM89.67 304.494L102.127 311.834L109.828 307.434L97.3814 300.094L89.67 304.494ZM139.066 333.633L151.503 340.963L159.214 336.573L146.767 329.233L139.066 333.633ZM184.721 327.672L197.068 334.952L204.779 330.552L192.433 323.282L184.721 327.672ZM169.067 329.384L177.03 334.086L184.741 329.696L176.769 324.994L169.067 329.384ZM135.486 311.582L127.514 306.88L119.812 311.28L127.775 315.972L135.486 311.582ZM166.785 297.204L158.822 292.512L151.121 296.902L159.083 301.594L166.785 297.204ZM153.604 322.265L145.631 317.563L137.92 321.963L145.892 326.665L153.604 322.265ZM183.354 317.926L175.653 322.336L183.615 327.018L191.327 322.628L183.354 317.926ZM138.342 280.43L130.369 275.728L122.668 280.128L130.63 284.82L138.342 280.43ZM138.03 291.193L130.319 295.583L138.292 300.285L145.993 295.885L138.03 291.193ZM117.671 301.071L109.698 296.369L101.996 300.759L109.949 305.461L117.671 301.071ZM174.305 312.579L166.584 316.989L174.567 321.681L182.258 317.281L174.305 312.579ZM165.237 307.233L157.525 311.633L165.488 316.325L173.199 311.925L165.237 307.233ZM156.168 301.886L148.456 306.286L156.429 310.978L164.131 306.578L156.168 301.886ZM214.2 325.185L206.237 320.483L198.526 324.873L206.488 329.575L214.2 325.185ZM204.719 319.587L196.756 314.885L189.055 319.275L197.018 323.977L204.719 319.587ZM106.35 292.391L114.313 297.083L122.014 292.683L114.051 287.991L106.35 292.391ZM142.193 313.526L150.165 318.228L157.867 313.828L149.894 309.136L142.193 313.526ZM115.318 297.678L123.281 302.38L130.982 297.99L123.019 293.298L115.318 297.678ZM151.151 318.822L159.114 323.524L166.825 319.124L158.862 314.422L151.151 318.822ZM185.757 308.401L177.794 303.699L170.083 308.089L178.056 312.791L185.757 308.401ZM160.109 324.098L168.072 328.8L175.773 324.4L167.81 319.708L160.109 324.098ZM147.823 286.028L139.86 281.326L132.159 285.716L140.121 290.418L147.823 286.028ZM124.266 302.953L132.229 307.656L139.94 303.255L131.978 298.564L124.266 302.953ZM133.234 308.25L141.197 312.942L148.909 308.542L140.946 303.84L133.234 308.25ZM136.934 290.539L128.971 285.847L121.27 290.247L129.233 294.939L136.934 290.539ZM195.228 313.999L187.265 309.297L179.564 313.697L187.526 318.389L195.228 313.999ZM162.472 327.491L154.499 322.799L146.797 327.189L154.76 331.891L162.472 327.491ZM147.099 296.54L139.387 300.94L147.35 305.632L155.062 301.242L147.099 296.54ZM144.344 316.808L136.381 312.116L128.68 316.516L136.643 321.208L144.344 316.808ZM171.43 332.777L163.467 328.075L155.756 332.475L163.718 337.177L171.43 332.777ZM157.314 291.606L149.351 286.924L141.65 291.314L149.612 296.006L157.314 291.606ZM117.299 268.005L109.587 272.395L117.55 277.097L125.251 272.697L117.299 268.005ZM176.266 302.802L168.313 298.11L160.602 302.5L168.564 307.192L176.266 302.802ZM126.528 306.296L118.555 301.604L110.844 305.994L118.807 310.696L126.528 306.296Z" fill="#025A82"/>
<path d="M125.248 272.703L117.546 277.103L109.573 272.391L117.295 268.001L125.248 272.703Z" fill="#F8F9FC"/>
<path d="M136.922 290.539L129.221 294.94L121.258 290.247L128.959 285.847L136.922 290.539Z" fill="#F8F9FC"/>
<path d="M176.255 302.8L168.553 307.19L160.59 302.498L168.302 298.108L176.255 302.8Z" fill="#F8F9FC"/>
<path d="M164.129 306.576L156.427 310.976L148.455 306.284L156.166 301.884L164.129 306.576Z" fill="#F8F9FC"/>
<path d="M173.202 311.935L165.49 316.325L157.527 311.633L165.239 307.233L173.202 311.935Z" fill="#F8F9FC"/>
<path d="M145.94 328.749L138.229 333.149L103.25 312.508L110.942 308.118L145.94 328.749Z" fill="#F8F9FC"/>
<path d="M176.414 346.733L168.712 351.123L152.284 341.437L159.995 337.027L176.414 346.733Z" fill="#F8F9FC"/>
<path d="M197.707 318.735C196.491 309.422 184.868 300.299 179.962 298.688C176.724 300.37 170.662 304.095 164.519 308.868C155.741 315.704 146.803 324.676 145.798 332.841C143.646 350.28 150.805 352.073 158.416 351.851C169.918 351.499 184.406 320.245 197.707 318.735Z" fill="#E9C2B0"/>
<path d="M256.785 237.68C248.299 229.202 234.615 229.222 226.23 237.72L169.073 303.569L188.809 326.214L256.955 268.409C265.351 259.922 265.27 246.148 256.785 237.68Z" fill="white"/>
<path d="M89.3282 282.476L109.064 305.1L159.556 262.258C159.516 247.155 156.339 228.931 151.744 212.76C149.854 213.727 148.064 215.066 146.476 216.647L89.3282 282.476Z" fill="white"/>
<path d="M159.275 289.866L59.2867 230.571C57.9294 229.765 56.6626 229.675 55.7577 230.188C54.0888 231.135 52.4298 232.081 50.7609 233.028C51.6657 232.504 52.9225 232.585 54.2898 233.4L59.4878 236.491C59.3471 236.532 59.2164 236.562 59.0957 236.642H59.0857H59.0957C58.211 237.146 57.1452 237.74 56.1197 238.324C55.4461 238.706 54.7725 239.089 54.0988 239.472C53.5559 239.774 53.2141 240.438 53.204 241.375L52.3595 302.763C52.3293 304.636 53.6263 306.972 55.2751 307.939C56.0694 307.496 56.8436 307.043 57.6278 306.61L55.2751 307.939L151.282 364.877C152.096 365.351 152.85 365.411 153.403 365.089C155.032 364.162 156.671 363.236 158.299 362.32L158.209 368.371C158.189 369.942 157.616 371.039 156.721 371.543C157.555 371.08 158.39 370.596 159.214 370.133C160.049 369.66 160.883 369.187 161.718 368.713C162.613 368.2 163.186 367.103 163.206 365.532L164.131 298.494C164.181 295.363 161.989 291.477 159.275 289.866Z" fill="#024462"/>
<path d="M152.229 296.636L56.2224 239.708C54.5937 238.741 53.2464 239.506 53.2163 241.389L52.3717 302.778C52.3416 304.651 53.6386 306.987 55.2874 307.953L151.294 364.892C152.923 365.848 154.28 365.103 154.3 363.21L155.145 301.822C155.165 299.939 153.848 297.603 152.229 296.636Z" fill="#025A82"/>
<path d="M154.296 292.699L54.3075 233.415C51.5929 231.804 49.3307 233.052 49.2905 236.194L48.3655 303.241C48.3253 306.393 50.5071 310.279 53.2217 311.89L153.21 371.185C155.934 372.806 158.186 371.537 158.227 368.386L159.152 301.348C159.192 298.197 157.01 294.31 154.296 292.699ZM154.306 363.21C154.296 363.915 154.094 364.459 153.763 364.821C153.21 365.415 152.305 365.476 151.289 364.882L83.7962 324.859L55.2828 307.943C55.2425 307.923 55.2023 307.893 55.1621 307.873C55.0616 307.802 54.951 307.732 54.8504 307.641C54.6996 307.54 54.5488 307.41 54.398 307.269C54.1165 306.997 53.8651 306.695 53.6238 306.372C53.463 306.151 53.3222 305.919 53.2016 305.698C52.6788 304.761 52.357 303.704 52.3671 302.768L53.2116 241.379C53.2116 241.258 53.2116 241.147 53.2217 241.037C53.2418 240.926 53.2518 240.825 53.2719 240.724C53.3122 240.523 53.3725 240.342 53.4529 240.181C53.5333 240 53.654 239.839 53.7746 239.718C53.8149 239.677 53.8551 239.637 53.9054 239.597C53.9355 239.577 53.9757 239.547 54.0059 239.526C54.1969 239.396 54.4181 239.315 54.6695 239.285C54.8404 239.275 55.0012 239.275 55.1923 239.295C55.323 239.315 55.4738 239.355 55.6145 239.406C55.6648 239.426 55.705 239.436 55.7553 239.466C55.9061 239.516 56.0569 239.597 56.1977 239.687L152.214 296.616C153.843 297.583 155.15 299.928 155.13 301.811L154.306 363.21Z" fill="#025A82"/>
<path d="M184.14 13.383C173.704 23.5323 157.387 39.1489 164.796 47.8281C176.208 61.1993 190.706 72.5467 213.921 81.8703C217.962 83.4914 225.081 78.5578 230.188 77.2992C231.274 77.0273 236.402 48.6134 211.498 36.2289C190.826 25.9487 229.223 19.6961 206.109 13.2119C205.234 11.5002 185.94 11.6311 184.14 13.383Z" fill="#4A2400"/>
<path d="M235.079 79.0606C232.766 85.7261 229.559 89.6831 225.346 89.1193C221.103 88.5756 218.861 84.0749 219.786 77.057C220.701 70.0492 226.824 64.9142 231.057 65.4679C235.28 66.0016 237.693 71.4889 235.079 79.0606Z" fill="#E9C2B0"/>
</svg>
