<svg width="367" height="138" viewBox="0 0 367 138" fill="none" xmlns="http://www.w3.org/2000/svg">
<path d="M0 23C0 10.2974 10.2975 0 23 0H238C250.703 0 261 10.2974 261 23C261 35.7026 250.703 46 238 46H210.774C200.6 48.4491 193.04 57.6095 193.04 68.5356C193.04 79.4271 200.552 88.5641 210.678 91.0477H343.988C356.697 91.0477 367 101.35 367 114.06C367 126.769 356.697 137.071 343.988 137.071H116.012C103.303 137.071 93 126.769 93 114.06C93 101.35 103.303 91.0477 116.012 91.0477H133.362C143.488 88.5641 151 79.4271 151 68.5356C151 57.6095 143.44 48.4491 133.266 46H23C10.2975 46 0 35.7026 0 23Z" fill="#F2F5FC"/>
</svg>
