<svg width="502" height="456" viewBox="0 0 502 456" fill="none" xmlns="http://www.w3.org/2000/svg">
<path d="M370.798 63.5895V117.16L281.463 69.2457V15.6764L370.798 63.5895Z" fill="#1CD77D"/>
<path d="M304.324 35.0125V33.0582L285.396 22.9076V24.8619L304.324 35.0125Z" fill="#ECF5FF"/>
<path d="M304.324 38.7648V36.8105L285.396 26.6587V28.613L304.324 38.7648Z" fill="#ECF5FF"/>
<path d="M304.324 42.5171V40.5617L285.396 30.411V32.3665L304.324 42.5171Z" fill="#ECF5FF"/>
<path d="M314.941 38.8442V40.7985L333.867 50.9492V48.9949L314.941 38.8442Z" fill="#ECF5FF"/>
<path d="M314.941 44.5506L333.867 54.7013V52.7458L314.941 42.5963V44.5506Z" fill="#ECF5FF"/>
<path d="M314.941 48.3031L333.867 58.4538V56.4983L314.941 46.3477V48.3031Z" fill="#ECF5FF"/>
<path d="M314.941 57.7081L333.867 67.8588V65.9045L314.941 55.7527V57.7081Z" fill="#ECF5FF"/>
<path d="M314.941 61.4594L333.867 71.6112V69.6569L314.941 59.5051V61.4594Z" fill="#ECF5FF"/>
<path d="M314.941 65.2116L333.867 75.3634V73.4091L314.941 63.2573V65.2116Z" fill="#ECF5FF"/>
<path d="M314.941 74.6178L333.867 84.7685V82.813L314.941 72.6624V74.6178Z" fill="#ECF5FF"/>
<path d="M314.941 78.3691L333.867 88.5209V86.5654L314.941 76.4148V78.3691Z" fill="#ECF5FF"/>
<path d="M314.941 82.1214L333.867 92.2721V90.3178L314.941 80.1671V82.1214Z" fill="#ECF5FF"/>
<path d="M304.324 46.2685V44.3142L285.396 34.1636V36.1179L304.324 46.2685Z" fill="#ECF5FF"/>
<path d="M347.967 79.2893L341.276 75.7001V96.0083L347.967 99.5975V79.2893Z" fill="#ECF5FF"/>
<path d="M356.815 73.0335L350.123 69.4454V100.764L356.815 104.353V73.0335Z" fill="#ECF5FF"/>
<path d="M365.661 66.8167L358.97 63.2275V105.519L365.661 109.107V66.8167Z" fill="#ECF5FF"/>
<path d="M296.576 60.0013V48.642C296.368 48.5168 296.159 48.3847 295.947 48.2721C290.14 45.1631 285.416 47.6585 285.396 53.8466C285.376 60.0335 290.069 67.5704 295.879 70.6793C301.687 73.7883 306.412 71.2928 306.431 65.1048C306.431 65.0129 306.421 64.9187 306.419 64.8268L296.576 60.0013Z" fill="#ECF5FF"/>
<path d="M280.747 14.5239V69.6281L281.103 69.8212L371.516 118.312V63.2068L371.158 63.015L280.747 14.5239ZM282.18 16.8275L370.082 63.972V116.007L282.18 68.8618V16.8275Z" fill="#CED9E4"/>
<path d="M99.6741 90.3819V175.858L242.216 99.4055V13.9309L99.6741 90.3819Z" fill="#6EC7EF"/>
<path d="M95.3786 75.7093L235.862 0.35892C236.803 -0.145454 237.859 -0.0880078 238.689 0.342835L238.69 0.341684L238.721 0.357769C238.724 0.360067 238.727 0.361217 238.73 0.363515L244.111 3.25993L240.159 16.3736V102.604C240.159 105.745 238.351 108.649 235.415 110.219L100.062 182.823L98.4893 186.763L93.071 183.848V183.847C91.5416 183.048 90.4448 181.541 90.4448 179.681V83.6276C90.4461 80.3612 92.3261 77.3419 95.3786 75.7093Z" fill="#8CE2FF"/>
<path d="M95.8667 86.5444V182.597C95.8667 186.282 100.167 188.583 103.608 186.742L240.837 113.134C243.771 111.563 245.58 108.66 245.58 105.519V5.57471C245.58 3.53194 243.193 2.25435 241.283 3.27573L100.799 78.6249C97.748 80.2587 95.8667 83.278 95.8667 86.5444Z" fill="#ECF5FF"/>
<path d="M99.6741 90.3819V175.858L242.216 99.4055V13.9309L99.6741 90.3819Z" fill="#FF6A6A"/>
<path d="M432.324 112.935L425.884 116.751L423.014 119.21L356.805 117.805L354.971 116.243L346.847 114.657V199.938C346.836 200.275 347.011 200.617 347.371 200.81L348.675 201.508L388.414 222.819C389.009 223.139 389.744 223.139 390.34 222.821L428.814 202.226L433.813 199.555C434.458 199.209 434.768 198.597 434.746 197.993L434.748 197.991V112.71L432.324 112.935Z" fill="url(#paint0_linear)"/>
<path d="M433.815 111.264L433.739 111.225L394 89.9141C393.405 89.5947 392.672 89.5947 392.074 89.913L355.542 109.467L347.37 113.837C346.67 114.213 346.668 115.152 347.37 115.528L348.674 116.227L388.413 137.538C389.008 137.857 389.743 137.857 390.339 137.539L428.814 116.945L433.813 114.273C435.062 113.605 435.063 111.934 433.815 111.264Z" fill="#ECF5FF"/>
<path d="M118.126 223.854L137.305 235.216L145.851 242.538L472.348 307.585L477.801 302.935L501.994 298.213V308.53C502.021 309.533 501.504 310.55 500.433 311.125L496.552 313.205L378.228 376.658C376.454 377.607 374.269 377.609 372.494 376.66L128.579 246.11L113.695 238.156C111.773 237.129 110.851 235.304 110.914 233.503L110.908 233.501V223.184L118.126 223.854Z" fill="#8CE2FF"/>
<path d="M487.044 309.914V316.619L493.698 313.059V306.354L487.044 309.914Z" fill="#6AA5EC"/>
<path d="M477.972 314.745V321.45L484.626 317.89V311.185L477.972 314.745Z" fill="#6AA5EC"/>
<path d="M468.901 319.578V326.283L475.555 322.722V316.017L468.901 319.578Z" fill="#6AA5EC"/>
<path d="M384.182 365.103V371.808L404.885 360.69V353.983L384.182 365.103Z" fill="#6AA5EC"/>
<path d="M344.574 353.418V360.122L323.871 349.002V342.296L344.574 353.418Z" fill="#6AA5EC"/>
<path d="M473.232 287.36L249.768 167.741L131.443 231.194L354.907 350.813L473.232 287.36Z" fill="url(#paint1_linear)"/>
<path d="M113.696 227.839L128.579 235.793L372.495 366.343C374.27 367.292 376.454 367.29 378.228 366.341L496.552 302.886L500.434 300.807C502.523 299.687 502.522 296.888 500.43 295.77L476.097 282.761L237.968 155.31C236.193 154.359 234.008 154.361 232.233 155.311L113.909 218.765L113.691 218.882C109.973 220.873 109.975 225.852 113.696 227.839ZM131.443 231.194L249.767 167.741L473.232 287.36L354.907 350.813L131.443 231.194Z" fill="#ECF5FF"/>
<path opacity="0.07" d="M277.553 204.475C294.21 204.475 307.713 200.664 307.713 195.962C307.713 191.261 294.21 187.45 277.553 187.45C260.896 187.45 247.393 191.261 247.393 195.962C247.393 200.664 260.896 204.475 277.553 204.475Z" fill="#0C6239"/>
<path d="M187.251 78.0371L195.804 73.4495V113.48L187.251 118.068V78.0371Z" fill="#ECF5FF"/>
<path d="M199.418 71.5606L207.97 66.9741V107.005L199.418 111.592V71.5606Z" fill="#ECF5FF"/>
<path d="M211.583 65.0854L220.137 60.4978V100.528L211.583 105.116V65.0854Z" fill="#ECF5FF"/>
<path d="M223.752 58.6089L232.304 54.0225V94.0529L223.752 98.6405V58.6089Z" fill="#ECF5FF"/>
<path d="M131.443 80.8278V83.3266L107.253 96.3013V93.8024L131.443 80.8278Z" fill="#ECF5FF"/>
<path d="M131.443 88.1219L107.253 101.097V98.5989L131.443 85.623V88.1219Z" fill="#ECF5FF"/>
<path d="M131.443 92.9177L107.253 105.892V103.393L131.443 90.4199V92.9177Z" fill="#ECF5FF"/>
<path d="M131.443 97.7145L107.253 110.689V108.19L131.443 95.2156V97.7145Z" fill="#ECF5FF"/>
<path d="M131.443 105.794V108.292L107.253 121.266V118.767L131.443 105.794Z" fill="#ECF5FF"/>
<path d="M131.443 113.087L107.253 126.062V123.564L131.443 110.589V113.087Z" fill="#ECF5FF"/>
<path d="M131.443 117.884L107.253 130.858V128.359L131.443 115.385V117.884Z" fill="#ECF5FF"/>
<path d="M131.443 122.679L107.253 135.654V133.155L131.443 120.18V122.679Z" fill="#ECF5FF"/>
<path d="M159.693 94.9365C150.534 99.839 143.131 111.723 143.162 121.481C143.192 131.239 150.643 135.175 159.801 130.271C168.961 125.369 176.362 113.483 176.333 103.727C176.303 93.9692 168.853 90.0341 159.693 94.9365Z" fill="#ECF5FF"/>
<path d="M409.225 303.817L394.25 295.801C392.7 294.969 390.775 294.974 389.227 295.809L374.889 303.544C373.942 304.053 373.379 304.964 373.381 305.978C373.384 306.995 373.949 307.904 374.898 308.412L389.76 316.366C390.678 316.858 391.707 317.104 392.736 317.104C393.771 317.104 394.805 316.854 395.729 316.358L409.234 309.071C410.255 308.521 410.863 307.537 410.862 306.442C410.86 305.346 410.249 304.364 409.225 303.817Z" fill="#ECF5FF"/>
<path d="M374.616 322.341L359.642 314.325C358.091 313.493 356.167 313.498 354.619 314.333L340.281 322.068C339.334 322.577 338.77 323.488 338.772 324.502C338.775 325.519 339.34 326.428 340.289 326.936L355.152 334.89C356.07 335.383 357.099 335.628 358.127 335.628C359.162 335.628 360.197 335.378 361.12 334.882L374.625 327.595C375.646 327.045 376.255 326.061 376.254 324.966C376.251 323.87 375.64 322.888 374.616 322.341Z" fill="#ECF5FF"/>
<path d="M443.294 285.519L428.321 277.504C426.77 276.672 424.846 276.676 423.296 277.509L408.959 285.246C408.013 285.755 407.449 286.666 407.449 287.681C407.452 288.697 408.019 289.606 408.967 290.114L423.829 298.068C424.747 298.561 425.776 298.807 426.805 298.807C427.84 298.807 428.876 298.556 429.798 298.06L443.302 290.776C444.324 290.224 444.932 289.24 444.932 288.145C444.93 287.049 444.318 286.066 443.294 285.519Z" fill="#ECF5FF"/>
<path d="M128.405 187.827L118.73 193.558L114.418 197.253L14.958 195.142L12.2067 192.795L0.000506564 190.414V341.451C-0.0131261 341.958 0.248373 342.472 0.788723 342.76L2.74687 343.81L62.4444 375.824C63.3392 376.304 64.4422 376.304 65.337 375.824L123.132 344.889L130.64 340.875C131.61 340.357 132.075 339.435 132.044 338.529L132.047 338.527V187.49L128.405 187.827Z" fill="url(#paint2_linear)"/>
<path d="M130.644 185.319L130.533 185.259L70.8358 153.246C69.9422 152.767 68.8392 152.767 67.9432 153.245L13.0679 182.618L0.792335 189.18C-0.263578 189.745 -0.26358 191.157 0.791094 191.722L2.74924 192.771L62.4468 224.784C63.3416 225.264 64.4446 225.264 65.3394 224.784L123.134 193.85L130.642 189.836C132.519 188.835 132.52 186.324 130.644 185.319Z" fill="#ECF5FF"/>
<path d="M130.64 227.186L123.132 231.202L65.3367 262.136C64.4419 262.614 63.3389 262.614 62.4441 262.134L2.74783 230.122L0.790922 229.072C0.249333 228.782 -0.0109266 228.27 0.00270606 227.762V233.706C-0.0109266 234.213 0.250573 234.725 0.790922 235.016L2.74783 236.066L62.4453 268.078C63.3401 268.559 64.4432 268.559 65.338 268.081L123.133 237.146L130.641 233.132C131.611 232.613 132.076 231.692 132.045 230.786L132.048 230.785V224.84H132.045C132.076 225.749 131.611 226.668 130.64 227.186Z" fill="white"/>
<path d="M130.64 298.668L123.132 302.682L65.3368 333.616C64.442 334.094 63.339 334.094 62.4442 333.616L2.74673 301.604L0.789824 300.553C0.248235 300.264 -0.0120252 299.753 0.00160743 299.244V305.188C-0.0120252 305.696 0.249474 306.21 0.789824 306.498L2.74673 307.548L62.4442 339.562C63.339 340.04 64.442 340.04 65.3368 339.562L123.132 308.625L130.64 304.614C131.61 304.095 132.075 303.173 132.044 302.267L132.046 302.264V296.32L132.044 296.321C132.076 297.228 131.611 298.15 130.64 298.668Z" fill="white"/>
<path d="M128.521 118.97C128.521 118.97 130.706 110.337 135.89 108.739C135.89 108.739 140.659 108.579 139.587 112.543C139.587 112.543 135.744 116.151 136.781 116.529C137.897 116.936 140.479 116.76 138.103 118.155C135.861 119.471 133.729 120.213 131.456 123.218L130.793 124.718L127.021 122.362L128.521 118.97Z" fill="#F7CA82"/>
<path d="M96.1104 134.545C96.1104 134.545 116.742 134.741 128.291 116.913C128.291 116.913 132.728 116.094 134.681 120.821C134.681 120.821 122.07 145.311 97.4327 144.625C97.4339 144.625 89.041 138.751 96.1104 134.545Z" fill="#1CD87D"/>
<path d="M142.99 206.339C142.99 206.339 146.555 205.349 148.441 205.205C150.455 205.053 153.14 208.626 149.505 210.898C145.87 213.171 140.895 215.136 138.938 214.811C136.982 214.486 135.301 213.857 135.132 213.424C134.963 212.99 135.526 205.701 135.526 205.701L142.99 206.339Z" fill="#C6704E"/>
<path d="M120.288 172.23C120.288 172.23 133.033 169.7 139.854 169.107C142.334 168.892 144.496 170.712 144.613 173.124C144.904 179.107 145.438 197.209 144.548 206.188L138.725 208.542C136.494 208.979 134.327 208.473 134.217 206.33L133.457 185.417C132.703 184.866 131.261 185.511 129.775 186.126C125.387 187.943 113.667 191.574 109.121 190.031C109.121 190.031 95.306 185.399 95.306 176.181L120.288 172.23Z" fill="#2367E9"/>
<path d="M94.1072 136.32C95.3921 134.918 97.5759 134.149 99.4298 134.684L102.703 135.628L113.327 140.427L120.679 144.164L121.308 166.96L122.755 176.431L117.69 181.667C112.489 186.386 94.4197 176.959 94.4197 176.959C91.7354 168.336 90.9547 146.011 90.9547 146.011C91.0917 141.128 92.4314 138.148 94.1072 136.32Z" fill="#4B9FD8"/>
<path d="M106.289 115.9C108.827 115.497 110.266 115.028 112.72 115.731C116.847 116.913 119.041 120.709 120.037 124.507C121.041 128.336 121.338 133.915 119.077 137.47C117.664 139.694 114.516 139.278 112.268 138.699C109.55 138 105.995 136.864 103.766 135.231C100.662 132.956 99.0189 127.976 98.8296 124.377C98.6678 121.276 102.412 116.516 106.289 115.9Z" fill="#F7CA82"/>
<path d="M112.268 138.699C109.55 138 105.995 136.864 103.766 135.231C103.392 134.957 103.04 134.639 102.708 134.291L102.702 134.29V137.912C103.424 139.328 105.184 139.916 106.738 140.088C108.798 140.316 110.437 141.194 113.327 140.425L113.652 138.989C113.171 138.908 112.701 138.81 112.268 138.699Z" fill="#F7B378"/>
<path d="M102.48 134.993L101.652 137.406C101.652 137.406 106.528 143.995 114.725 141.137L113.546 139.709C113.546 139.709 105.895 139.904 102.48 134.993Z" fill="#ECF5FF"/>
<path d="M140.666 166.235C140.666 166.235 142.297 165.873 143.248 165.938C144.199 166.004 144.833 167.124 145.604 167.541C146.375 167.958 147.664 169.43 147.687 171.033C147.709 172.636 146.939 174.394 146.033 174.393C145.128 174.39 144.924 174.569 144.653 173.91C144.381 173.251 142.773 170.989 142.773 170.989L140.666 166.235Z" fill="#F7CA82"/>
<path d="M141.51 165.321C139.581 165.81 128.864 166.566 128.864 166.566C128.864 166.566 127.561 153.355 126.049 149.206C124.539 145.058 120.44 144.084 120.44 144.084C113.31 147.419 117.028 156.054 117.028 156.054C119.778 163.479 121.12 169.642 121.71 172.942C121.97 174.395 123.387 175.365 124.889 175.128C134.384 173.63 143.321 171.53 143.321 171.53C143.322 167.854 141.51 165.321 141.51 165.321Z" fill="#1CD87D"/>
<path d="M119.845 117.513C113.993 112.783 105.961 115.369 105.961 115.369V115.375C105.32 115.503 104.719 115.683 104.198 115.942C101.459 117.305 98.6691 121.278 98.8309 124.378C99.0202 127.976 100.664 132.956 103.768 135.232C105.482 136.487 107.98 137.447 110.278 138.143C110.913 137.848 111.864 134.488 111.864 134.488C110.564 133.757 109.557 129.567 110.942 128.835C112.325 128.103 113.247 130.706 113.247 130.706C114.044 130.422 115.261 129.526 114.59 127.981C113.919 126.435 114.59 124.809 114.59 124.809C120.379 124.662 121.115 126.645 121.115 126.645C123.614 121.409 119.845 117.513 119.845 117.513Z" fill="#B64D50"/>
<path d="M303.464 322.217L288.788 330.911L282.248 336.513L131.379 333.312L127.205 329.752L108.69 326.137V403.316C108.669 404.084 109.065 404.862 109.885 405.3L112.855 406.893L203.409 455.454C204.766 456.182 206.438 456.182 207.796 455.454L295.466 408.531L306.855 402.44C308.325 401.654 309.031 400.258 308.983 398.881L308.988 398.878V321.703L303.464 322.217Z" fill="url(#paint3_linear)"/>
<path d="M306.861 318.411L306.693 318.32L216.136 269.76C214.779 269.032 213.106 269.032 211.749 269.758L128.509 314.313L109.887 324.269C108.286 325.125 108.284 327.266 109.884 328.123L112.854 329.716L203.408 378.276C204.765 379.005 206.437 379.005 207.796 378.279L295.465 331.352L306.854 325.265C309.702 323.743 309.706 319.934 306.861 318.411Z" fill="#ECF5FF"/>
<path d="M306.857 359.89L295.467 365.977L207.798 412.903C206.44 413.632 204.768 413.629 203.411 412.901L112.856 364.341L109.887 362.75C109.066 362.307 108.671 361.531 108.692 360.762V366.991C108.671 367.76 109.066 368.538 109.887 368.978L112.856 370.571L203.411 419.132C204.768 419.86 206.44 419.86 207.798 419.132L295.467 372.208L306.857 366.118C308.326 365.332 309.033 363.935 308.985 362.559L308.99 362.557V356.327L308.985 356.33C309.032 357.707 308.326 359.105 306.857 359.89Z" fill="#ECF5FF"/>
<path d="M268.686 295.088C266.685 292.45 264.556 294.614 264.556 294.614C261.729 293.708 260.322 299.569 260.322 299.569L264.268 303.983C271.052 302.333 270.685 297.727 268.686 295.088Z" fill="#F7CA82"/>
<path d="M242.753 335.16C243.035 332.313 240.255 332.644 240.255 332.644C238.904 330.524 234.326 333.74 234.326 333.74L234.26 338.822C239.869 341.318 242.472 338.008 242.753 335.16Z" fill="#F7CA82"/>
<path d="M226.308 308.789C226.308 308.789 246.111 311.964 260.418 297.953L264.79 304.08C264.79 304.08 251.882 320.668 225.962 318.747L226.308 308.789Z" fill="#F45C5C"/>
<path d="M253.547 392.214C253.547 392.214 253.732 396.583 256.158 397.253C258.585 397.922 262.412 399.085 261.419 402.887C260.466 406.541 255.473 404.977 254.48 404.488C253.487 403.996 248.205 402.147 246.22 401.471C244.236 400.796 244.367 397.302 245.095 394.173C245.825 391.044 253.547 392.214 253.547 392.214Z" fill="#C6704E"/>
<path d="M238.803 397.931C238.803 397.931 238.887 402.213 241.312 402.882C243.738 403.552 248.925 405.473 246.676 408.602C244.425 411.73 240.802 410.774 239.81 410.284C238.817 409.792 232.878 407.835 230.894 407.159C228.909 406.484 229.144 403.326 229.873 400.2C230.598 397.071 238.803 397.931 238.803 397.931Z" fill="#C6704E"/>
<path d="M226.698 346.149C226.698 346.149 242.492 354.394 252.02 363.226C252.02 363.226 255.906 380.153 255.245 392.909C255.245 392.909 251.805 397.489 243.337 395.855L240.19 367.513L214.625 354.901L212.388 346.926L226.698 346.149Z" fill="#2367E9"/>
<path d="M212.388 349.829C212.388 349.829 235.494 364.943 237.964 368.46C237.964 368.46 241.484 389.885 240.867 399.453C240.867 399.453 234.074 404.113 228.164 401.168C228.164 401.168 224.645 376.229 224.38 373.692C224.38 373.692 206.69 366.757 203.868 363.894C201.045 361.032 201.554 353.539 202.886 351.11L212.388 349.829Z" fill="#2367E9"/>
<path d="M207.219 306.268L206.823 311.216C206.823 311.216 207.792 314.61 212.556 315.101C217.32 315.593 219.128 312.28 219.128 312.28V308.149L207.219 306.268Z" fill="#F7B378"/>
<path d="M206.823 311.216C206.823 311.216 200.516 314.529 196.941 318.086C196.941 318.086 201.828 329.155 202.885 351.11C202.885 351.11 215.704 353.716 227.184 346.15C227.184 346.15 227.999 321.061 226.306 308.789C226.306 308.789 221.928 309.561 219.127 309.929L206.823 311.216Z" fill="#506BD6"/>
<path d="M206.032 304.417C206.032 304.417 207.874 312.005 215.458 311.886C224.207 311.749 224.55 301.151 223.353 296.197C222.231 291.566 216.125 286.135 210.13 289.75C205.63 292.465 204.17 297.459 206.032 304.417Z" fill="#F7CA82"/>
<path d="M212.8 287.442C212.8 287.442 205.136 287.861 203.577 296.689C203.577 296.689 202.425 304.024 208.382 308.789C208.382 308.789 208.172 305.754 208.606 305.16C209.04 304.565 207.306 302.858 207.465 301.695C207.623 300.537 207.773 298.415 209.216 299.441L209.738 299.921C210.201 300.35 210.981 299.997 210.914 299.392C210.815 298.506 210.844 297.529 211.284 296.904C212.252 295.527 217.772 297.99 223.663 296.902C223.663 296.902 224.751 295.867 224.544 293.731C224.544 293.731 222.856 285.398 212.8 287.442Z" fill="#C6704E"/>
<path d="M208.897 310.047L213.84 311.137L219.128 312.674L218.678 314.885L216.305 315.857L211.282 313.734L208.378 311.137L208.897 310.047Z" fill="#F7B378"/>
<path d="M206.946 309.662L205.665 311.479L213.826 318.746L216.305 315.857L206.946 309.662Z" fill="#F1F2F2"/>
<path d="M216.305 315.857L219.257 318.279L220.648 310.047L216.305 315.857Z" fill="#F1F2F2"/>
<path d="M210.913 299.538C210.913 299.538 209.939 306.945 212.452 308.703C212.452 308.703 216.521 310.971 221.445 309.135C221.445 309.135 223.529 311.378 221.778 312.817C220.026 314.255 212.665 313.955 210.952 312.257C209.238 310.557 208.828 303.091 209.739 299.923L210.501 299.176L210.913 299.538Z" fill="#C6704E"/>
<path d="M196.943 318.086C196.943 318.086 201.32 318.339 204.224 324.104C207.127 329.869 221.954 334.773 235.329 332.658C235.329 332.658 235.949 336.407 234.809 339.578C234.809 339.578 213.244 342.846 202.771 335.54C202.771 335.541 187.063 324.954 196.943 318.086Z" fill="#F45C5C"/>
<path d="M297.945 87.2983C297.945 87.2983 299.998 85.5795 300.927 85.0005C302.737 83.8757 303.681 81.9099 303.558 80.9333C303.436 79.9556 302.557 78.3471 301.805 78.0323C301.055 77.7198 300.422 79.9326 299.849 80.7128C298.601 82.4097 297.68 82.3833 297.678 82.3833C297.731 82.3856 297.973 81.6181 297.997 81.5641C298.232 81.008 298.507 80.4703 298.767 79.9269C298.789 79.8832 298.81 79.8361 298.795 79.7856C298.779 79.7224 298.711 79.6753 298.646 79.6603C297.792 79.4685 296.855 80.3704 296.635 81.0103C296.41 81.664 293.682 85.0591 293.682 85.0591L297.945 87.2983Z" fill="#F7CA82"/>
<path d="M266.009 92.9662C266.009 92.9662 282.394 95.7317 294.095 83.6393C294.095 83.6393 297.738 83.5796 298.626 87.4227C298.626 87.4227 285.138 104.446 265.638 100.801C265.64 100.801 259.791 95.2686 266.009 92.9662Z" fill="#18BC6C"/>
<path d="M321.434 91.6379C321.434 91.6379 323.696 89.7445 324.721 89.1068C326.71 87.8672 327.752 85.7026 327.617 84.6272C327.482 83.5518 326.514 81.7791 325.686 81.4333C324.859 81.0874 324.162 83.5254 323.531 84.3837C322.158 86.2518 321.143 86.2254 321.141 86.2254C321.198 86.2277 321.467 85.3832 321.491 85.3212C321.749 84.7088 322.053 84.1183 322.34 83.5197C322.363 83.4714 322.386 83.4197 322.371 83.3634C322.354 83.2933 322.28 83.2416 322.205 83.2244C321.265 83.013 320.232 84.008 319.992 84.7111C319.744 85.4315 316.741 89.17 316.741 89.17L321.434 91.6379Z" fill="#F7CA82"/>
<path d="M269.169 188.596C269.169 188.596 270.354 189.679 272.248 188.596C273.425 187.92 274.778 187.433 276.15 187.248C276.925 187.145 277.725 187.141 278.49 187.313C279.047 187.438 280.184 187.771 280.423 188.313C281.064 189.772 280.271 191.059 279.099 191.997C275.911 194.544 272.06 196.456 267.817 196.806C265.996 196.955 263.756 196.988 262.064 196.248C262.064 196.248 261.78 189.802 262.561 188.958L269.169 188.596Z" fill="#B64D50"/>
<path d="M265.399 128.364C265.399 128.364 263.059 136.557 263.319 142.943L261.304 188.306C261.304 188.306 265.231 191.539 272.768 190.335L274.897 128.803L265.399 128.364Z" fill="#2367E9"/>
<path d="M284.706 192.525C284.706 192.525 285.89 193.61 287.784 192.525C288.963 191.851 290.315 191.362 291.688 191.179C292.461 191.075 293.263 191.071 294.027 191.243C294.583 191.368 295.721 191.7 295.96 192.243C296.602 193.703 295.808 194.988 294.636 195.925C291.448 198.473 287.598 200.385 283.355 200.735C281.535 200.885 279.293 200.916 277.603 200.177C277.603 200.177 277.318 193.73 278.1 192.887L284.706 192.525Z" fill="#B64D50"/>
<path d="M273.341 127.699C273.341 127.699 271.813 133.819 273.711 141.37L276.968 193.502C276.968 193.502 282.166 195.624 288.536 193.502L285.742 132.1L273.341 127.699Z" fill="#2367E9"/>
<path d="M287.029 129.305C286.986 124.123 287.333 119.072 287.37 113.885C287.405 109.485 288.008 105.293 287.897 100.894C287.873 99.9894 287.851 99.0852 287.815 98.1821L279.665 93.8841L269.868 91.7747L266.266 92.6134C264.708 92.7076 263.423 93.7657 263.139 95.1881C262.624 97.7444 262.058 101.862 262.8 105.23C263.291 107.453 263.827 111.541 264.284 115.538C264.33 115.954 264.967 123.839 264.631 127.056C264.631 127.056 264.55 127.708 265.399 128.363C271.897 133.906 285.74 132.098 285.74 132.098C287.302 131.951 287.041 130.565 287.029 129.305Z" fill="#1CD87D"/>
<path d="M271.247 72.3004C273.589 71.9443 276.784 71.8776 279.047 72.4969C282.853 73.539 284.933 75.7943 285.85 79.1434C286.778 82.5189 287.053 88.1451 284.968 91.2794C283.666 93.2405 280.763 92.8729 278.69 92.3628C276.182 91.7458 272.906 90.744 270.851 89.3044C267.988 87.2995 266.473 82.9084 266.299 79.7374C266.149 77.0029 267.672 72.8439 271.247 72.3004Z" fill="#F7CA82"/>
<path d="M269.876 88.4773C270.182 88.7829 270.505 89.0621 270.851 89.3045C272.906 90.7441 276.184 91.746 278.69 92.3629C279.088 92.4606 279.523 92.5479 279.965 92.6191L279.667 93.8852C277.003 94.5619 274.516 94.3712 272.674 93.8979C271.302 93.5452 269.868 93.0075 269.868 91.6713V88.4773H269.876Z" fill="#F7B378"/>
<path d="M280.728 84.5181C280.728 84.5181 281.644 88.7978 283.255 89.5572C284.867 90.3155 285.744 89.7376 285.744 89.7376C285.744 89.7376 286.068 90.983 285.744 91.7758C285.419 92.5685 284.18 94.2712 283.441 94.3263C282.702 94.3803 279.924 93.3337 279.965 91.9102C280.007 90.4867 279.593 85.3154 279.593 85.3154L279.965 84.7053L280.728 84.5181Z" fill="#B64D50"/>
<path d="M287.632 72.2614C287.632 72.2614 284.621 73.5344 280.054 71.772C277.733 70.877 271.261 71.116 269.438 72.9623H269.439C267.158 74.3662 266.179 77.52 266.3 79.7374C266.407 81.6768 267.017 84.0677 268.126 86.0944C270.452 91.5448 274.625 91.1507 274.625 91.1507C275.211 90.8911 278.318 88.6507 278.318 88.6507C277.118 88.0038 276.191 84.3124 277.469 83.6667C278.743 83.021 279.596 85.3165 279.596 85.3165C280.331 85.0661 281.452 84.2768 280.833 82.9153C280.214 81.5515 280.833 80.1177 280.833 80.1177C283.094 80.1591 284.962 78.978 285.678 78.6034C285.677 78.6011 288.689 76.6687 287.632 72.2614Z" fill="#B64D50"/>
<path d="M269.869 90.0225L268.973 91.9779C268.973 91.9779 273.181 97.2468 280.717 94.5205L279.816 93.2498C279.816 93.2498 272.901 94.1907 269.869 90.0225Z" fill="#ECF5FF"/>
<path d="M286.263 97.88C286.263 97.88 304.309 100.926 317.196 87.6087C317.196 87.6087 321.209 87.5421 322.185 91.7747C322.185 91.7747 307.332 110.523 285.855 106.507C285.855 106.507 279.417 100.416 286.263 97.88Z" fill="#1CD87D"/>
<path d="M379.691 198.144L311.424 161.528C310.968 161.283 310.455 161.311 310.051 161.52V161.519L310.036 161.527C310.035 161.528 310.033 161.529 310.031 161.529L307.417 162.937L309.338 169.309V211.211C309.338 212.738 310.216 214.147 311.643 214.911L377.416 250.194L378.181 252.111L380.812 250.694V250.692C381.555 250.304 382.088 249.572 382.088 248.668V201.992C382.088 200.405 381.174 198.938 379.691 198.144Z" fill="#8CE2FF"/>
<path d="M379.453 203.411V250.088C379.453 251.876 377.363 252.993 375.691 252.1L309.007 216.33C307.581 215.567 306.702 214.156 306.702 212.631V164.064C306.702 163.07 307.861 162.45 308.79 162.947L377.058 199.562C378.54 200.356 379.453 201.823 379.453 203.411Z" fill="#2367E9"/>
<path d="M377.604 205.275V246.81L308.335 209.658V168.124L377.604 205.275Z" fill="#FF6A6A"/>
<path d="M262.155 237.388L302.929 215.419C303.81 214.947 305.249 214.947 306.134 215.419L377.568 253.653C378.452 254.126 378.457 254.902 377.579 255.373L336.803 277.342C335.921 277.816 334.484 277.816 333.598 277.342L262.165 239.109C261.28 238.634 261.276 237.861 262.155 237.388Z" fill="#ECF5FF"/>
<path d="M336.803 277.342L377.578 255.374C378.014 255.139 378.233 254.83 378.234 254.521L378.23 257.558C378.229 257.868 378.01 258.176 377.575 258.413L336.799 280.379L336.803 277.342Z" fill="#D8D2D6"/>
<path d="M261.498 238.242C261.498 238.556 261.723 238.871 262.166 239.108L333.599 277.341C334.485 277.814 335.923 277.814 336.804 277.341L336.8 280.378C335.921 280.851 334.482 280.851 333.597 280.378L262.162 242.146C261.718 241.907 261.495 241.594 261.495 241.279L261.498 238.242Z" fill="#C9C4CC"/>
<path d="M314.579 228.118C314.874 228.277 314.875 228.534 314.584 228.691L311.513 230.348C311.221 230.505 310.741 230.505 310.447 230.343L298.723 224.046C298.426 223.887 298.426 223.633 298.719 223.474L301.787 221.822C302.082 221.662 302.559 221.662 302.853 221.82L314.579 228.118Z" fill="#8CBEF1"/>
<path d="M307.052 229.914C307.347 230.071 307.35 230.328 307.056 230.487L303.986 232.137C303.695 232.295 303.213 232.295 302.921 232.137L293.519 227.111C293.227 226.952 293.227 226.694 293.517 226.537L296.586 224.885C296.879 224.729 297.355 224.729 297.651 224.885L307.052 229.914Z" fill="#8CBEF1"/>
<path d="M306.79 235.146C307.085 235.303 307.086 235.56 306.796 235.719L303.724 237.369C303.43 237.529 302.952 237.529 302.658 237.369L288.792 229.945C288.497 229.785 288.493 229.531 288.788 229.372L291.856 227.719C292.15 227.561 292.625 227.561 292.92 227.719L306.79 235.146Z" fill="#8CBEF1"/>
<path d="M329.461 252.894C329.755 253.052 329.755 253.306 329.463 253.463L326.394 255.117C326.1 255.276 325.623 255.276 325.325 255.117L297.573 240.287C297.277 240.13 297.277 239.873 297.572 239.713L300.642 238.063C300.933 237.906 301.41 237.906 301.707 238.063L329.461 252.894Z" fill="#8CBEF1"/>
<path d="M371.441 252.55C371.735 252.707 371.736 252.963 371.441 253.123L368.374 254.775C368.077 254.932 367.603 254.932 367.309 254.775L358.831 250.232C358.536 250.075 358.536 249.822 358.827 249.665L361.898 248.011C362.189 247.854 362.668 247.854 362.963 248.011L371.441 252.55Z" fill="#8CBEF1"/>
<path d="M365.953 255.505C366.248 255.662 366.249 255.917 365.954 256.077L362.887 257.729C362.591 257.886 362.116 257.886 361.821 257.729L358.832 256.131C358.537 255.973 358.537 255.718 358.828 255.563L361.899 253.908C362.191 253.753 362.669 253.753 362.964 253.908L365.953 255.505Z" fill="#8CBEF1"/>
<path d="M361.344 253.03C361.638 253.187 361.639 253.442 361.345 253.602L358.278 255.255C357.982 255.413 357.507 255.413 357.211 255.255L354.223 253.655C353.928 253.498 353.927 253.245 354.219 253.087L357.289 251.434C357.579 251.277 358.059 251.277 358.355 251.434L361.344 253.03Z" fill="#8CBEF1"/>
<path d="M356.735 250.558C357.029 250.714 357.031 250.969 356.735 251.128L353.668 252.782C353.371 252.939 352.897 252.939 352.602 252.782L349.613 251.183C349.32 251.026 349.319 250.771 349.609 250.614L352.68 248.96C352.971 248.803 353.451 248.803 353.746 248.96L356.735 250.558Z" fill="#8CBEF1"/>
<path d="M352.126 248.085C352.419 248.24 352.421 248.497 352.127 248.657L349.06 250.309C348.764 250.467 348.288 250.467 347.994 250.309L345.004 248.711C344.709 248.554 344.709 248.299 345.001 248.144L348.071 246.488C348.362 246.331 348.841 246.331 349.137 246.488L352.126 248.085Z" fill="#8CBEF1"/>
<path d="M347.518 245.61C347.812 245.768 347.813 246.023 347.518 246.183L344.451 247.836C344.156 247.993 343.68 247.991 343.385 247.836L340.397 246.235C340.102 246.08 340.102 245.825 340.393 245.668L343.463 244.015C343.754 243.857 344.233 243.857 344.529 244.015L347.518 245.61Z" fill="#8CBEF1"/>
<path d="M342.908 243.137C343.202 243.294 343.204 243.549 342.909 243.709L339.842 245.362C339.546 245.519 339.071 245.519 338.777 245.362L335.787 243.764C335.492 243.607 335.492 243.351 335.783 243.194L338.854 241.541C339.144 241.383 339.624 241.383 339.919 241.541L342.908 243.137Z" fill="#8CBEF1"/>
<path d="M338.3 240.663C338.591 240.823 338.594 241.075 338.3 241.237L335.231 242.89C334.936 243.047 334.46 243.047 334.167 242.89L331.177 241.291C330.882 241.134 330.881 240.879 331.175 240.724L334.245 239.068C334.536 238.913 335.014 238.913 335.309 239.068L338.3 240.663Z" fill="#8CBEF1"/>
<path d="M333.69 238.191C333.983 238.348 333.985 238.603 333.69 238.763L330.624 240.415C330.326 240.572 329.852 240.572 329.557 240.415L326.567 238.817C326.274 238.659 326.274 238.404 326.565 238.249L329.636 236.594C329.925 236.439 330.406 236.439 330.7 236.594L333.69 238.191Z" fill="#8CBEF1"/>
<path d="M329.083 235.717C329.376 235.874 329.378 236.129 329.083 236.289L326.016 237.941C325.72 238.101 325.244 238.101 324.949 237.941L321.959 236.343C321.664 236.188 321.664 235.933 321.957 235.775L325.027 234.122C325.318 233.965 325.796 233.965 326.093 234.122L329.083 235.717Z" fill="#8CBEF1"/>
<path d="M324.473 233.246C324.766 233.401 324.768 233.656 324.473 233.815L321.405 235.469C321.11 235.626 320.634 235.626 320.341 235.469L317.351 233.871C317.055 233.713 317.055 233.458 317.346 233.301L320.418 231.647C320.709 231.49 321.187 231.49 321.483 231.647L324.473 233.246Z" fill="#8CBEF1"/>
<path d="M319.862 230.771C320.156 230.926 320.159 231.183 319.865 231.343L316.796 232.995C316.5 233.153 316.025 233.153 315.73 232.995L312.741 231.397C312.447 231.24 312.446 230.985 312.737 230.83L315.807 229.174C316.097 229.017 316.578 229.017 316.873 229.174L319.862 230.771Z" fill="#8CBEF1"/>
<path d="M316.184 223.174C316.478 223.332 316.479 223.588 316.184 223.747L313.118 225.4C312.822 225.558 312.346 225.557 312.051 225.4L309.063 223.801C308.769 223.644 308.768 223.388 309.06 223.232L312.13 221.577C312.42 221.421 312.898 221.421 313.195 221.577L316.184 223.174Z" fill="#8CBEF1"/>
<path d="M310.837 220.396C311.131 220.553 311.131 220.81 310.839 220.97L307.771 222.623C307.474 222.78 306.999 222.779 306.704 222.623L303.715 221.025C303.42 220.867 303.419 220.611 303.713 220.455L306.782 218.8C307.074 218.644 307.553 218.644 307.848 218.8L310.837 220.396Z" fill="#8CBEF1"/>
<path d="M349.171 252.471C349.464 252.628 349.466 252.883 349.173 253.043L346.105 254.696C345.809 254.853 345.332 254.853 345.038 254.696L342.049 253.096C341.754 252.938 341.754 252.685 342.046 252.528L345.116 250.875C345.407 250.717 345.886 250.717 346.182 250.875L349.171 252.471Z" fill="#8CBEF1"/>
<path d="M344.561 249.999C344.855 250.154 344.856 250.41 344.562 250.57L341.495 252.222C341.199 252.38 340.723 252.38 340.429 252.222L337.44 250.624C337.145 250.467 337.145 250.212 337.437 250.057L340.508 248.401C340.798 248.244 341.277 248.244 341.573 248.401L344.561 249.999Z" fill="#8CBEF1"/>
<path d="M339.953 247.524C340.246 247.679 340.248 247.937 339.953 248.097L336.886 249.749C336.59 249.906 336.115 249.906 335.819 249.749L332.83 248.151C332.536 247.993 332.536 247.738 332.827 247.583L335.897 245.927C336.188 245.772 336.668 245.772 336.964 245.927L339.953 247.524Z" fill="#8CBEF1"/>
<path d="M335.343 245.051C335.636 245.208 335.638 245.463 335.344 245.623L332.275 247.275C331.98 247.435 331.504 247.432 331.211 247.275L328.221 245.677C327.927 245.522 327.927 245.264 328.217 245.109L331.288 243.456C331.579 243.299 332.057 243.299 332.355 243.456L335.343 245.051Z" fill="#8CBEF1"/>
<path d="M330.734 242.577C331.029 242.734 331.03 242.99 330.736 243.149L327.668 244.803C327.371 244.96 326.897 244.96 326.602 244.803L323.614 243.204C323.319 243.047 323.318 242.792 323.61 242.634L326.68 240.981C326.97 240.824 327.451 240.824 327.746 240.981L330.734 242.577Z" fill="#8CBEF1"/>
<path d="M326.125 240.105C326.42 240.262 326.421 240.515 326.126 240.677L323.059 242.329C322.762 242.487 322.288 242.487 321.993 242.329L319.003 240.731C318.71 240.574 318.708 240.319 319 240.163L322.071 238.508C322.362 238.35 322.84 238.35 323.135 238.508L326.125 240.105Z" fill="#8CBEF1"/>
<path d="M321.517 237.631C321.808 237.788 321.811 238.043 321.517 238.203L318.45 239.855C318.153 240.015 317.678 240.013 317.384 239.855L314.393 238.257C314.1 238.1 314.098 237.847 314.392 237.689L317.462 236.034C317.753 235.879 318.231 235.879 318.528 236.034L321.517 237.631Z" fill="#8CBEF1"/>
<path d="M316.907 235.158C317.2 235.315 317.203 235.57 316.907 235.73L313.84 237.383C313.543 237.54 313.068 237.54 312.773 237.383L309.784 235.783C309.49 235.627 309.49 235.372 309.782 235.215L312.853 233.562C313.143 233.404 313.622 233.404 313.917 233.562L316.907 235.158Z" fill="#8CBEF1"/>
<path d="M344.248 255.148C344.543 255.305 344.544 255.56 344.249 255.719L341.181 257.373C340.885 257.53 340.411 257.53 340.116 257.373L337.126 255.775C336.833 255.617 336.833 255.361 337.124 255.204L340.195 253.55C340.485 253.393 340.965 253.393 341.26 253.55L344.248 255.148Z" fill="#8CBEF1"/>
<path d="M339.638 252.675C339.933 252.83 339.936 253.088 339.641 253.248L336.572 254.9C336.277 255.058 335.803 255.058 335.506 254.9L332.517 253.302C332.222 253.145 332.222 252.888 332.513 252.733L335.583 251.078C335.875 250.92 336.354 250.92 336.65 251.078L339.638 252.675Z" fill="#8CBEF1"/>
<path d="M338.871 258.18C339.164 258.338 339.166 258.594 338.872 258.754L335.805 260.407C335.509 260.564 335.033 260.564 334.739 260.407L331.75 258.809C331.454 258.651 331.454 258.395 331.745 258.24L334.816 256.584C335.107 256.427 335.586 256.427 335.882 256.584L338.871 258.18Z" fill="#8CBEF1"/>
<path d="M343.967 261.006C344.26 261.161 344.262 261.419 343.969 261.579L340.901 263.231C340.604 263.391 340.128 263.388 339.833 263.231L336.844 261.633C336.55 261.475 336.55 261.219 336.841 261.064L339.912 259.409C340.202 259.253 340.683 259.253 340.978 259.409L343.967 261.006Z" fill="#8CBEF1"/>
<path d="M349.171 263.871C349.464 264.03 349.466 264.285 349.173 264.444L346.105 266.097C345.809 266.254 345.332 266.254 345.038 266.097L342.049 264.498C341.754 264.341 341.754 264.085 342.046 263.93L345.116 262.274C345.407 262.119 345.886 262.119 346.182 262.274L349.171 263.871Z" fill="#8CBEF1"/>
<path d="M334.154 255.621C334.448 255.776 334.451 256.031 334.154 256.193L331.088 257.845C330.792 258.002 330.316 258.002 330.021 257.845L327.032 256.247C326.738 256.089 326.738 255.834 327.03 255.677L330.101 254.024C330.391 253.866 330.87 253.866 331.165 254.024L334.154 255.621Z" fill="#8CBEF1"/>
<path d="M335.032 250.201C335.324 250.359 335.325 250.615 335.032 250.775L331.963 252.428C331.668 252.585 331.192 252.583 330.9 252.428L327.911 250.827C327.616 250.67 327.614 250.414 327.906 250.259L330.977 248.603C331.268 248.448 331.746 248.448 332.041 248.603L335.032 250.201Z" fill="#8CBEF1"/>
<path d="M330.421 247.727C330.715 247.884 330.716 248.14 330.423 248.3L327.355 249.953C327.058 250.111 326.584 250.111 326.289 249.953L323.299 248.355C323.005 248.198 323.004 247.941 323.296 247.784L326.366 246.131C326.656 245.973 327.137 245.973 327.431 246.131L330.421 247.727Z" fill="#8CBEF1"/>
<path d="M325.812 245.255C326.106 245.41 326.109 245.667 325.812 245.829L322.746 247.481C322.45 247.638 321.974 247.638 321.679 247.481L318.69 245.883C318.396 245.725 318.395 245.469 318.687 245.314L321.759 243.658C322.049 243.503 322.527 243.503 322.823 243.658L325.812 245.255Z" fill="#8CBEF1"/>
<path d="M321.202 242.782C321.496 242.939 321.498 243.195 321.203 243.355L318.136 245.007C317.841 245.165 317.365 245.165 317.07 245.007L314.081 243.409C313.786 243.252 313.786 242.995 314.078 242.84L317.148 241.185C317.438 241.03 317.917 241.03 318.214 241.185L321.202 242.782Z" fill="#8CBEF1"/>
<path d="M316.595 240.307C316.889 240.464 316.892 240.72 316.595 240.88L313.528 242.532C313.232 242.692 312.757 242.69 312.462 242.532L309.473 240.934C309.179 240.779 309.179 240.521 309.469 240.365L312.538 238.712C312.829 238.555 313.309 238.555 313.604 238.712L316.595 240.307Z" fill="#8CBEF1"/>
<path d="M311.985 237.836C312.28 237.991 312.28 238.247 311.988 238.407L308.919 240.06C308.623 240.217 308.148 240.217 307.854 240.06L304.864 238.462C304.569 238.304 304.568 238.048 304.86 237.891L307.931 236.236C308.221 236.079 308.701 236.079 308.997 236.236L311.985 237.836Z" fill="#8CBEF1"/>
<path d="M299.76 236.975C300.053 237.132 300.055 237.387 299.76 237.547L296.693 239.2C296.397 239.358 295.921 239.358 295.626 239.2L292.637 237.6C292.343 237.442 292.342 237.19 292.634 237.031L295.705 235.378C295.995 235.22 296.474 235.22 296.77 235.378L299.76 236.975Z" fill="#8CBEF1"/>
<path d="M295.15 234.503C295.442 234.658 295.445 234.913 295.15 235.073L292.083 236.726C291.788 236.883 291.312 236.883 291.018 236.726L288.029 235.128C287.733 234.97 287.733 234.715 288.025 234.559L291.095 232.905C291.386 232.747 291.865 232.747 292.162 232.905L295.15 234.503Z" fill="#8CBEF1"/>
<path d="M290.541 232.029C290.835 232.184 290.837 232.442 290.541 232.601L287.473 234.253C287.177 234.411 286.703 234.411 286.408 234.253L283.418 232.655C283.125 232.498 283.125 232.243 283.415 232.086L286.486 230.431C286.776 230.275 287.255 230.275 287.55 230.431L290.541 232.029Z" fill="#8CBEF1"/>
<path d="M312.182 232.623C312.476 232.78 312.478 233.036 312.183 233.196L309.116 234.849C308.82 235.007 308.345 235.007 308.05 234.849L305.061 233.251C304.766 233.093 304.765 232.838 305.057 232.68L308.128 231.027C308.418 230.87 308.898 230.87 309.193 231.027L312.182 232.623Z" fill="#8CBEF1"/>
<path d="M360.664 246.778C360.958 246.935 360.959 247.191 360.665 247.351L357.598 249.003C357.3 249.16 356.826 249.16 356.532 249.003L348.055 244.46C347.759 244.303 347.759 244.05 348.05 243.893L351.122 242.237C351.412 242.082 351.891 242.082 352.187 242.237L360.664 246.778Z" fill="#8CBEF1"/>
<path d="M349.888 241.008C350.18 241.163 350.181 241.419 349.888 241.579L346.82 243.231C346.524 243.388 346.05 243.388 345.755 243.231L337.276 238.688C336.983 238.533 336.981 238.278 337.273 238.12L340.342 236.467C340.634 236.31 341.115 236.31 341.409 236.467L349.888 241.008Z" fill="#8CBEF1"/>
<path d="M339.109 235.234C339.403 235.39 339.405 235.647 339.11 235.805L336.043 237.458C335.748 237.615 335.271 237.615 334.976 237.458L326.499 232.915C326.204 232.76 326.204 232.505 326.497 232.347L329.566 230.694C329.858 230.537 330.337 230.537 330.633 230.694L339.109 235.234Z" fill="#8CBEF1"/>
<path d="M328.332 229.462C328.626 229.618 328.627 229.874 328.332 230.033L325.265 231.686C324.968 231.844 324.494 231.844 324.199 231.686L315.722 227.144C315.427 226.987 315.427 226.73 315.718 226.574L318.788 224.92C319.078 224.763 319.556 224.763 319.852 224.92L328.332 229.462Z" fill="#8CBEF1"/>
<path d="M360.197 258.449C360.491 258.607 360.491 258.861 360.2 259.02L357.132 260.672C356.837 260.83 356.358 260.832 356.065 260.675L347.586 256.135C347.293 255.976 347.29 255.721 347.584 255.561L350.655 253.911C350.947 253.749 351.424 253.749 351.718 253.911L360.197 258.449Z" fill="#8CBEF1"/>
<path d="M355.024 261.126C355.316 261.286 355.32 261.541 355.029 261.698L351.998 263.469C351.706 263.628 351.189 263.507 350.894 263.349L342.413 258.811C342.122 258.651 342.12 258.395 342.412 258.235L345.482 256.583C345.774 256.426 346.25 256.426 346.547 256.583L355.024 261.126Z" fill="#8CBEF1"/>
<path d="M320.379 255.173C320.686 255.337 320.688 255.604 320.384 255.768L309.998 261.364C309.695 261.528 309.197 261.528 308.889 261.364L287.542 249.918C287.237 249.753 287.234 249.484 287.539 249.32L297.924 243.727C298.227 243.563 298.727 243.563 299.034 243.727L320.379 255.173Z" fill="#8CBEF1"/>
<path d="M333.227 189.071V187.047L313.631 176.536V178.561L333.227 189.071Z" fill="#ECF5FF"/>
<path d="M333.227 192.957V190.932L313.631 180.422V182.445L333.227 192.957Z" fill="#ECF5FF"/>
<path d="M333.227 196.842V194.817L313.631 184.306V186.33L333.227 196.842Z" fill="#ECF5FF"/>
<path d="M370.916 208.554V206.53L351.317 196.02V198.044L370.916 208.554Z" fill="#ECF5FF"/>
<path d="M370.916 212.439V210.415L351.317 199.904V201.928L370.916 212.439Z" fill="#ECF5FF"/>
<path d="M370.916 216.324V214.3L351.317 203.79V205.812L370.916 216.324Z" fill="#ECF5FF"/>
<path d="M370.916 225.12V223.097L351.317 212.586V214.61L370.916 225.12Z" fill="#ECF5FF"/>
<path d="M370.916 229.005V226.983L351.317 216.471V218.496L370.916 229.005Z" fill="#ECF5FF"/>
<path d="M370.916 232.89V230.867L351.317 220.356V222.38L370.916 232.89Z" fill="#ECF5FF"/>
<path d="M321.405 203.888V195.4C321.25 195.307 321.094 195.21 320.936 195.125C316.595 192.803 313.066 194.667 313.052 199.289C313.039 203.913 316.546 209.543 320.886 211.867C325.225 214.19 328.755 212.325 328.769 207.702C328.769 207.634 328.761 207.563 328.758 207.494L321.405 203.888Z" fill="#ECF5FF"/>
<defs>
<linearGradient id="paint0_linear" x1="469.517" y1="143.179" x2="326.398" y2="185.403" gradientUnits="userSpaceOnUse">
<stop stop-color="#8CE2FF"/>
<stop offset="0.3082" stop-color="#86D9FD"/>
<stop offset="0.8164" stop-color="#77C0F6"/>
<stop offset="1" stop-color="#71B5F3"/>
</linearGradient>
<linearGradient id="paint1_linear" x1="543.95" y1="316.591" x2="116.564" y2="198.624" gradientUnits="userSpaceOnUse">
<stop stop-color="#1FDE82"/>
<stop offset="1" stop-color="#13C971"/>
</linearGradient>
<linearGradient id="paint2_linear" x1="188.85" y1="243.565" x2="-34.6577" y2="309.506" gradientUnits="userSpaceOnUse">
<stop stop-color="#8CE2FF"/>
<stop offset="0.3082" stop-color="#86D9FD"/>
<stop offset="0.8164" stop-color="#77C0F6"/>
<stop offset="1" stop-color="#71B5F3"/>
</linearGradient>
<linearGradient id="paint3_linear" x1="364.844" y1="338.482" x2="82.2346" y2="421.86" gradientUnits="userSpaceOnUse">
<stop stop-color="#8CE2FF"/>
<stop offset="0.3082" stop-color="#86D9FD"/>
<stop offset="0.8164" stop-color="#77C0F6"/>
<stop offset="1" stop-color="#71B5F3"/>
</linearGradient>
</defs>
</svg>
