<svg width="499" height="550" viewBox="0 0 499 550" fill="none" xmlns="http://www.w3.org/2000/svg">
<path d="M105.652 473.499C102.332 473.75 99.0293 474.037 95.7467 474.368C80.8225 475.87 66.5932 478.845 57.2643 483.442C37.7774 493.045 58.0668 497.691 70.8079 503.788C71.8137 504.269 72.8479 504.77 73.3823 505.421C73.8039 505.934 73.881 506.504 73.8909 507.061C74.1848 523.571 35.6184 519.352 16.1708 524.217C5.15937 526.972 -2.48968 532.097 0.749714 536.903C7.86073 547.45 45.8702 547.744 68.3764 548.131C169.689 549.87 271.274 551.918 372.035 546.488C393.765 545.317 455.021 543.871 476.658 542.488C486.561 541.856 498.956 540.195 499 536.443C499.031 533.831 492.497 531.877 486.055 530.852C474.774 529.055 460.046 527.487 462.186 521.649C462.967 519.519 466.642 517.568 471.745 516.574C475.686 515.807 480.219 515.607 484.491 515.147C488.764 514.687 493.144 513.839 494.943 512.321C499.785 508.233 487.608 505.785 479.034 505.403C468.766 504.946 460.397 502.061 463.943 497.725C466.413 494.704 474.442 492.667 476.886 489.644C477.871 488.426 477.87 487.115 477.216 485.866C475.313 482.227 468.031 479.217 459.433 477.358C450.835 475.499 401.325 474.602 391.562 473.923C353.339 471.265 314.25 470.994 275.384 471C244.325 471.005 213.267 471.183 182.223 471.532C156.634 471.82 130.655 471.613 105.652 473.499Z" fill="#F2F5FC"/>
<path d="M403.806 361.161L406.089 414.225L399.397 504.451L389.384 505.164L377.22 423.218L360.39 353.874L403.806 361.161Z" fill="#5E5B5C"/>
<path d="M389.742 509.392L400.955 514.047L405.984 508.235L400.185 503.195L389.357 503.966L389.742 509.392Z" fill="#426362"/>
<path d="M332.926 342.383L330.729 382.494L337.249 501.756L347.274 502.259L362.3 424.038L375.553 338.259L332.926 342.383Z" fill="#5E5B5C"/>
<path d="M347.005 506.493L335.893 511.383L330.743 505.679L336.435 500.517L347.276 501.06L347.005 506.493Z" fill="#426362"/>
<path d="M391.22 224.222L359.934 220.863C359.934 220.863 342.53 222.726 330.721 264.153C324.15 287.201 322.151 323.513 321.669 351.197C322.408 355.146 326.701 372.443 344.852 369.509C376.022 364.471 392.612 359.431 406.187 361.951C417.75 364.471 416.772 348.514 415.501 336.337L410.894 298.661L391.22 224.222Z" fill="#88DCFE"/>
<path d="M373.525 182.74C365.475 183.382 357.259 184.264 350.165 188.072C348.611 188.906 347.012 190.026 346.551 191.731C346.372 192.392 346.383 193.087 346.406 193.772C346.663 201.453 347.451 212.714 354.105 217.828C355.374 218.803 356.87 219.427 358.398 219.839C360.44 220.388 362.562 220.538 364.645 220.325C364.776 222.215 364.737 224.116 364.526 225.997C367.047 228.078 375.196 225.926 375.923 222.97C375.348 220.78 374.771 218.589 374.196 216.4C375.055 215.703 375.856 214.93 376.566 214.071C379.316 210.746 380.534 206.604 380.676 202.343C380.831 197.704 381.633 193.093 381.639 188.411C381.642 186.706 381.476 184.81 380.228 183.651C378.899 182.416 376.862 182.481 375.056 182.621C374.547 182.659 374.036 182.699 373.525 182.74Z" fill="#EBCEB1"/>
<path d="M349.659 194.48C352.655 190.936 357.932 188.191 361.514 187.373C372.346 184.9 378.603 191.511 382.144 201.103C383.93 196.492 387.984 190.137 386.857 185.251C385.935 181.251 383.767 176.076 380.548 173.362C377.535 170.824 371.767 170.689 368.093 169.808C364.63 168.977 361.166 168.147 357.703 167.317C356.983 167.144 356.244 166.97 355.509 167.062C354.64 167.171 353.863 167.64 353.116 168.098C346.723 172.02 340.331 175.941 333.937 179.863C332.709 180.617 331.344 181.586 331.246 183.026C331.186 183.902 331.628 184.724 332.057 185.489C333.945 188.86 336.583 192.088 338.071 195.631C339.142 197.627 343.725 208.133 347.097 205.727C347.649 203.583 347.137 201.307 347.406 199.108C347.604 197.485 348.444 195.917 349.659 194.48Z" fill="#4A2400"/>
<path d="M391.105 224.391L404.679 231.445L418.253 274.779L413.728 284.857L397.64 273.771L391.105 224.391Z" fill="#88DCFE"/>
<path d="M359.934 220.863L348.371 224.39L306.141 268.732L303.627 283.345L323.815 316.754L329.267 304.508L320.72 279.818L334.294 270.244L352.393 229.429L359.934 220.863Z" fill="#88DCFE"/>
<path d="M358.801 241.649L344.103 240.32C343.28 240.246 342.631 241.009 342.834 241.812L349.224 267.065C349.349 267.559 349.771 267.921 350.278 267.966L360.906 268.927C361.652 268.994 362.277 268.366 362.207 267.619L359.887 242.733C359.833 242.156 359.377 241.701 358.801 241.649Z" fill="#131323"/>
<path d="M363.644 267.089L352.487 262.9L353.902 258.602L362.118 259.973L361.725 257.588L370.877 262.202L370.085 266.895L363.644 267.089Z" fill="#EBCEB1"/>
<path d="M368.279 259.73L367.238 269.151L413.872 284.981L403.249 264.41L368.279 259.73Z" fill="#88DCFE"/>
<path d="M289.583 495.201L290.399 501.567L278.513 509.569L271.346 504.022L276.88 496.838L288.766 488.835L289.583 495.201Z" fill="#2E4661"/>
<path d="M289.984 493.064L280.818 411.881L291.847 320.996L289.366 301.663L240.106 299.788L238.329 331.254L246.598 412.005L277.71 497.213L289.984 493.064Z" fill="#5D82A4"/>
<path d="M235.483 209.963L210.705 216.727L182.048 267.62L195.622 280.217L214.726 257.542L235.483 209.963Z" fill="#536FDE"/>
<path d="M263.914 213.226L278.575 216.727L311.756 267.115L298.182 282.232L284.106 278.201L267.012 237.386L263.914 213.226Z" fill="#536FDE"/>
<path d="M203.961 308.885L203.831 390.81L220.284 496.273L232.127 496.155L238.636 398.626L253.872 301.009L203.961 308.885Z" fill="#5D82A4"/>
<path d="M232.109 501.16L219.366 507.706L212.899 501.353L219.238 494.871L232.045 494.743L232.109 501.16Z" fill="#2E4661"/>
<path d="M296.944 336.749C296.831 333.198 296.635 330.236 296.606 329.178C296.353 319.654 295.506 310.153 294.316 300.696C293.251 292.223 291.905 271.186 290.458 262.765C289.263 255.812 285.101 238.456 282.093 232.007C274.613 215.968 276.924 214.487 244.067 209.724C229.668 207.637 226.264 216.632 214.491 226.975C213.331 227.995 213.394 234.069 213.125 235.678C212.65 238.51 212.142 241.338 211.56 244.152C211.102 246.364 210.596 248.569 210.029 250.76L210.03 250.759C210.03 250.759 200.147 295.837 193.612 305.411C187.076 314.985 173.574 328.369 196.16 336.542C200.163 337.839 204.19 339.073 208.357 339.732C208.357 339.732 226.829 337.675 236.328 337.746C245.077 337.811 253.862 338.699 262.464 340.185C268.215 341.149 274.085 342.549 279.23 345.243C284.139 347.813 287.681 351.593 292.662 354.255C293.134 354.507 293.651 354.767 294.188 354.693C297.048 354.295 297.182 344.221 296.944 336.749Z" fill="#506BD6"/>
<path d="M251.504 249.104C251.504 249.104 246.327 250.007 245.987 249.507C245.648 249.007 241.249 241.653 241.249 241.653L242.695 238.4L241.594 234.697C241.594 234.697 235.101 231.798 234.55 229.947C234 228.095 242.541 231.793 242.541 231.793L246.837 234.744L251.884 240.896L251.504 249.104Z" fill="#EBCEB1"/>
<path d="M233.482 221.879L216.992 223.133C216.068 223.203 215.491 224.167 215.864 225.016L227.582 251.746C227.812 252.269 228.345 252.59 228.914 252.546L240.837 251.64C241.675 251.576 242.249 250.766 242.034 249.953L234.882 222.877C234.716 222.25 234.128 221.83 233.482 221.879Z" fill="#59595B"/>
<path d="M224.733 250.275L234.365 242.918L231.407 238.655L223.699 242.229L223.233 239.563L215.757 246.865L218.234 251.712L224.733 250.275Z" fill="#EBCEB1"/>
<path d="M223.513 252.874L215.788 242.757L189.192 258.832L195.748 280.295L223.513 252.874Z" fill="#536FDE"/>
<path d="M294.663 256.03L251.846 244.985L241.532 253.683L298.182 282.232L294.663 256.03Z" fill="#536FDE"/>
<path d="M244.03 214.246C245.688 215.067 249.601 215.361 253.683 213.759C254.505 213.436 255.06 212.641 255.049 211.756C255.016 209.271 254.817 206.788 254.452 204.33C257.514 203.252 261.051 201.634 261.585 198.425C261.752 197.414 261.578 196.382 261.404 195.373C260.685 191.199 259.965 187.026 259.246 182.853C258.997 181.409 258.733 179.923 257.949 178.687C256.575 176.516 253.908 175.567 251.381 175.127C244.933 174.005 237.907 175.405 232.908 179.638C231.577 180.765 230.374 182.119 229.788 183.763C228.883 186.297 229.559 189.092 230.242 191.696C230.871 194.098 231.501 196.502 232.13 198.904C232.854 201.668 233.899 204.81 236.556 205.846C237.967 206.397 239.632 206.235 240.91 207.05C243.162 208.486 242.858 211.843 244.03 214.246Z" fill="#EACDB0"/>
<path d="M206.816 172.627C206.183 171.585 205.501 170.579 204.737 169.636C203.084 167.593 201.047 165.841 199.716 163.574C198.385 161.306 197.917 158.232 199.514 156.144C200.544 154.796 202.216 154.123 203.841 153.643C209.195 152.064 214.974 151.957 220.383 153.337C225.535 154.651 230.146 156.828 235.332 154.887C240.204 153.063 243.724 153.806 248.817 155.627C254.328 157.598 261.726 158.063 266.715 160.845C268.798 162.007 270.46 163.823 271.756 165.828C276.245 172.777 276.27 182.359 271.817 189.331C270.818 190.895 269.622 192.325 268.366 193.69C265.766 196.516 262.656 200.007 259.08 201.054C258.995 197.847 261.909 187.736 259.452 185.107C255.552 180.936 246.735 182.391 241.898 183.418C236.621 184.538 231.918 188.283 226.687 189.083C222.922 189.659 218.118 187.809 214.917 185.858C210.967 183.451 209.127 176.431 206.816 172.627Z" fill="#3A3029"/>
<path d="M123.782 226.804L107.694 232.347L86.0759 266.107L92.6115 286.767L107.191 277.697L123.782 226.804Z" fill="#F86767"/>
<path d="M189.642 276.689L168.023 239.402L153.592 231.457L149.863 235.191L165.51 266.107L169.532 277.697L184.111 281.224L189.642 276.689Z" fill="#F86767"/>
<path d="M92.1056 501.569L91.5593 506.958L101.767 513.443L107.69 508.602L102.859 502.665L92.6519 496.18L92.1056 501.569Z" fill="#59595B"/>
<path d="M91.7107 337.169L90.0509 353.536L104.632 426.678L91.7187 499.775L102.168 502.999L135.953 416.089L137.806 389.519L133.23 334.479L91.7107 337.169Z" fill="#304351"/>
<path d="M170.899 342.741L171.234 411.885L157.638 500.942L147.643 500.875L141.88 418.578L128.753 336.231L170.899 342.741Z" fill="#304351"/>
<path d="M147.672 505.1L158.445 510.589L163.886 505.209L158.517 499.756L147.708 499.684L147.672 505.1Z" fill="#59595B"/>
<path d="M179.322 332.594C172.112 310.206 171.343 286.697 169.246 263.376C168.624 256.495 167.964 249.462 165.106 243.175C161.825 235.956 156.399 232.145 150.079 230.063C142.035 227.413 132.542 227.565 124.177 227.055C116.241 226.804 109.22 256.706 101.125 271.201C96.1637 280.084 91.0513 287.941 87.7048 297.631C84.4933 306.93 81.4093 316.393 79.5403 326.069C76.7192 340.679 69.5039 350.879 76.395 355.849C77.027 356.058 77.635 356.265 78.2122 356.473C89.516 360.531 101.212 363.535 113.122 365.111C123.688 366.508 134.418 366.763 145.027 365.715C159.549 364.28 173.619 362.224 186.421 354.633C184.054 347.287 181.688 339.94 179.322 332.594Z" fill="#F45C5C"/>
<path d="M126.04 199.33C133.553 187.042 154.031 186.954 154.924 203.493C155.193 208.463 154.856 213.59 152.823 218.131C150.79 222.672 146.823 226.556 141.941 227.467C141.913 227.472 141.886 227.476 141.858 227.481C141.742 228.756 141.627 230.031 141.511 231.307C141.487 231.581 141.45 231.881 141.248 232.068C141.02 232.282 140.668 232.269 140.356 232.244C138.834 232.119 137.312 231.994 135.791 231.869C135.036 231.807 134.252 231.735 133.603 231.345C132.182 230.492 131.974 228.497 132.284 226.865C132.358 226.476 132.453 226.086 132.55 225.696C124.545 220.666 121.128 207.362 126.04 199.33Z" fill="#B99A6F"/>
<path d="M154.981 182.129C158.656 182.433 160.874 186.594 163.727 189.176C166.101 191.323 169.098 192.447 171.632 194.36C174.166 196.272 176.333 199.532 175.63 202.811C178.842 201.989 182.301 201.185 185.364 202.558C188.427 203.93 190.51 208.468 188.492 211.332C186.686 213.897 182.842 213.7 180.963 216.201C177.991 220.157 181.639 228.241 177.374 230.328C176.349 230.829 175.138 230.724 174.122 231.25C172.861 231.903 172.163 233.369 171.374 234.633C167.8 240.362 160.587 242.959 154.597 240.677C151.173 237.968 148.977 233.518 148.601 228.924C148.148 223.388 151.316 222.235 152.908 217.511C154.648 212.349 154.279 206.363 151.919 201.482C150.384 198.307 147.832 195.281 144.64 194.203C143.343 193.765 143.501 194.972 142.248 193.593C141.711 193.001 141.227 191.126 141.232 190.282C145.476 188.241 150.146 181.73 154.981 182.129Z" fill="#8A6239"/>
<path d="M114.973 179.966C113.022 180.047 111.05 179.505 109.126 179.863C106.235 180.4 105.757 183.164 104.462 185.359C103.027 187.789 101.011 191.03 98.8084 192.665C97.2213 193.843 95.2847 194.272 93.5044 195.051C91.7241 195.83 89.9402 197.178 89.495 199.23C89.0727 201.174 89.9661 203.219 89.7047 205.198C89.2625 208.136 88.4199 209.496 88.6186 212.653C88.7212 214.281 88.8571 216.013 89.754 217.318C90.9357 219.037 93.0806 219.512 95.0317 219.639C96.9828 219.764 99.046 219.698 100.752 220.757C104.451 223.052 102.751 226.948 103.023 230.611C103.437 236.184 108.736 240.624 113.762 239.856C118.024 239.204 121.338 235.2 122.207 230.682C122.643 228.42 122.24 226.123 122.699 223.865C123.143 221.686 125.059 218.976 123.504 216.801C123.125 216.27 122.565 215.907 122.248 215.33C121.992 214.863 121.921 214.301 121.921 213.757C121.922 211.872 122.77 210.014 124.142 208.892C125.127 208.085 126.378 207.621 127.119 206.543C127.967 205.307 127.918 203.618 128.18 202.094C128.811 198.411 131.626 195.312 134.973 194.619C137.179 194.161 139.099 194.036 141.167 193.038C141.482 192.886 146.258 190.31 146.183 191.091C146.313 189.731 145.815 188.398 145.284 187.157C144.412 185.118 143.387 183.092 141.829 181.627C136.792 176.893 134.682 184.654 130.247 182.527C129.177 182.014 128.57 180.779 127.699 179.922C126.054 178.304 123.602 178.169 121.437 178.585C119.271 178.999 117.171 179.874 114.973 179.966Z" fill="#8A6239"/>
<path d="M142.613 244.155L158.877 247.158C159.788 247.326 160.259 248.346 159.799 249.151L145.312 274.481C145.029 274.977 144.464 275.239 143.904 275.136L132.144 272.964C131.318 272.812 130.833 271.946 131.132 271.16L141.115 244.998C141.346 244.392 141.976 244.038 142.613 244.155Z" fill="#59595B"/>
<path d="M147.68 275.298L140.129 268.746L142.782 265.389L148.945 268.728L149.465 266.557L155.245 272.953L152.957 276.816L147.68 275.298Z" fill="#B99A6F"/>
<path d="M189.551 277.309L189.454 276.345L154.012 270.13L149.862 278.027L184.069 296.482C184.184 296.454 184.3 296.426 184.415 296.398L184.413 296.394L189.551 277.309Z" fill="#F86767"/>
<path d="M139.79 264.889L147.605 258.654L145.092 255.191L138.797 258.273L138.367 256.082L132.328 262.234L134.456 266.188L139.79 264.889Z" fill="#B99A6F"/>
<path d="M133.676 259.464L91.6909 264.618C91.6455 264.593 91.6007 264.569 91.5559 264.544L93.0997 286.559L137.497 267.526L133.676 259.464Z" fill="#F86767"/>
<path d="M192.251 0L335.723 0.0369335C336.276 0.0369335 336.724 0.526569 336.724 1.1305L336.696 110.22C336.696 110.824 336.248 111.313 335.695 111.313L303.266 111.305L281.002 142.596C280.351 143.509 278.914 143.06 278.898 141.938L278.449 111.298L222.36 111.284C205.162 111.279 191.225 96.0513 191.23 77.2705L191.249 1.09257C191.25 0.489137 191.698 0 192.251 0Z" fill="#1FDE82"/>
<path d="M210.033 21.9413L299.402 21.9644L299.403 18.2319L210.034 18.2089L210.033 21.9413Z" fill="#FFFFF3"/>
<path d="M210.025 50.3989L316.617 50.4263L316.618 46.6939L210.026 46.6665L210.025 50.3989Z" fill="#FFFFF3"/>
<path d="M210.018 78.8564L316.609 78.8838L316.61 75.1514L210.019 75.124L210.018 78.8564Z" fill="#FFFFF3"/>
<path d="M199.949 98.3091C199.87 85.7553 189.722 75.6297 177.229 75.5673C177.243 75.1725 177.254 74.7772 177.252 74.3784C177.157 59.0455 164.678 46.6933 149.379 46.7886C141.055 46.8405 133.618 50.5725 128.576 56.4291C123.848 51.0945 116.942 47.7464 109.263 47.7939C95.597 47.8792 84.4994 58.6761 83.84 72.1918C83.2614 72.1513 82.6787 72.1254 82.0886 72.1289C69.476 72.2077 59.3151 82.519 59.3938 95.1607C59.457 105.33 66.129 113.904 75.3015 116.829C74.177 119.509 73.562 122.455 73.5815 125.545C73.6577 137.779 83.614 147.634 95.8192 147.558C96.7549 147.552 97.6762 147.485 98.5805 147.366L98.7279 171.06C98.7493 172.087 100.067 172.49 100.436 171.963L115.29 150.8C118.799 153.103 122.997 154.436 127.506 154.407C135.685 154.357 142.792 149.856 146.573 143.214C150.38 145.571 154.87 146.923 159.674 146.893C173.304 146.808 184.285 135.665 184.2 122.004C184.196 121.41 184.164 120.822 184.12 120.239C193.356 117.26 200.012 108.55 199.949 98.3091Z" fill="#2570FF"/>
<path d="M130.205 101.361C126.396 101.332 126.344 107.265 130.159 107.294C133.968 107.323 134.02 101.391 130.205 101.361Z" fill="white"/>
<path d="M96.9077 101.104C93.0986 101.075 93.0468 107.008 96.8619 107.037C100.671 107.066 100.723 101.134 96.9077 101.104Z" fill="white"/>
<path d="M163.697 101.361C159.888 101.332 159.836 107.265 163.651 107.294C167.46 107.323 167.512 101.391 163.697 101.361Z" fill="white"/>
<path d="M390.569 27.9813C354.752 27.7048 325.559 48.0733 325.364 73.4754C325.236 90.1305 337.606 104.814 356.235 113.03L356.037 138.803C356.045 139.941 357.5 140.408 357.917 139.831L373.426 118.35C378.672 119.364 384.179 119.927 389.862 119.971C425.678 120.247 454.872 99.8788 455.067 74.4767C455.262 49.0745 426.385 28.2578 390.569 27.9813Z" fill="#FF6A6A"/>
<path d="M393.175 71.8927C389.437 71.8637 389.386 77.686 393.13 77.7149C396.867 77.7434 396.918 71.9211 393.175 71.8927Z" fill="white"/>
<path d="M360.499 71.6407C356.761 71.6118 356.71 77.434 360.454 77.463C364.192 77.4919 364.243 71.6697 360.499 71.6407Z" fill="white"/>
<path d="M426.042 71.8927C422.304 71.8637 422.253 77.686 425.997 77.7149C429.735 77.7434 429.786 71.9211 426.042 71.8927Z" fill="white"/>
</svg>
