<svg width="92" height="92" viewBox="0 0 92 92" fill="none" xmlns="http://www.w3.org/2000/svg">
<circle cx="46" cy="46" r="46" fill="#1FDE82"/>
<path d="M64 34.1858V43.9895C64 46.3108 62.0927 48.1944 59.714 48.1944H48.1388C47.9125 48.1944 47.7261 48.1931 47.5702 48.1899C47.4069 48.1866 47.223 48.1854 47.1513 48.1931C47.0766 48.2415 46.8936 48.4051 46.7171 48.5638C46.6472 48.6266 46.5681 48.6957 46.4827 48.7717L43.2078 51.6846C42.9465 51.9171 42.5601 51.9773 42.2366 51.8382C41.9131 51.6989 41.686 51.3863 41.686 51.0413V41.807H32.3359C30.9413 41.807 29.7851 42.9222 29.7851 44.2829V54.0866C29.7851 55.4474 30.9414 56.5173 32.3359 56.5173H45.2655C45.4882 56.5173 45.6964 56.6171 45.8609 56.7636L48.5289 59.1641V50.8858C48.5289 50.4047 48.9285 50.0148 49.4215 50.0148C49.9145 50.0148 50.314 50.4047 50.314 50.8858V61.1383C50.314 61.4833 50.1117 61.7912 49.7881 61.9305C49.6724 61.9804 49.5562 62 49.4345 62C49.2159 62 49.0003 61.9124 48.8326 61.763L44.9195 58.2592H32.3359C29.9571 58.2592 28 56.4079 28 54.0865V44.2829C28 41.9616 29.9571 40.065 32.3359 40.065H41.686V34.1858C41.686 31.8644 43.658 30 46.0368 30H59.7141C62.0927 30 64 31.8644 64 34.1858ZM62.2149 34.1858C62.2149 32.825 61.1084 31.742 59.714 31.742H46.0368C44.6423 31.742 43.4711 32.825 43.4711 34.1858V40.9441V49.0671L45.2656 47.4845C45.3487 47.4105 45.4419 47.3427 45.5098 47.2815C46.3293 46.5447 46.5389 46.4269 47.6078 46.4484C47.7536 46.4514 47.9272 46.4524 48.1388 46.4524H59.714C61.1084 46.4524 62.2149 45.3503 62.2149 43.9896V34.1858Z" fill="white"/>
</svg>
