<svg width="92" height="92" viewBox="0 0 92 92" fill="none" xmlns="http://www.w3.org/2000/svg">
<circle cx="46" cy="46" r="46" fill="#1FDE82"/>
<path d="M28.4391 43.2026L37.6442 35.9343C38.2297 35.4717 39.1791 35.4717 39.7644 35.9343C40.3497 36.3965 40.3497 37.1461 39.7644 37.6083L31.6193 44.0396L39.7642 50.4707C40.3495 50.9331 40.3495 51.6827 39.7642 52.1448C39.1788 52.6072 38.2295 52.6072 37.644 52.1448L28.4388 44.8764C28.1462 44.6452 28 44.3425 28 44.0396C28 43.7367 28.1464 43.4337 28.4391 43.2026Z" fill="white"/>
<path d="M63.5609 46.9915L54.3558 39.7232C53.7703 39.2606 52.8209 39.2606 52.2356 39.7232C51.6503 40.1854 51.6503 40.935 52.2356 41.3971L60.3807 47.8285L52.2358 54.2596C51.6505 54.722 51.6505 55.4715 52.2358 55.9337C52.8212 56.3961 53.7705 56.3961 54.356 55.9337L63.5612 48.6653C63.8538 48.4341 64 48.1314 64 47.8285C64 47.5255 63.8535 47.2226 63.5609 46.9915Z" fill="white"/>
<path d="M47.7644 34.0805C47.9824 33.3031 48.8189 32.8417 49.6326 33.05C50.4464 33.2583 50.9293 34.0574 50.7113 34.8348L44.2364 57.9195C44.0183 58.6969 43.1819 59.1583 42.3681 58.95C41.5544 58.7417 41.0714 57.9426 41.2895 57.1652L47.7644 34.0805Z" fill="white"/>
</svg>
