<svg width="92" height="92" viewBox="0 0 92 92" fill="none" xmlns="http://www.w3.org/2000/svg">
<circle cx="46" cy="46" r="46" fill="#1FDE82"/>
<path d="M62.1573 42.221L59.6305 41.7924C59.3673 40.9426 59.0289 40.1228 58.6152 39.3407L60.1043 37.2576C60.736 36.3702 60.6382 35.1594 59.8636 34.3923L57.6226 32.1512C57.2014 31.7301 56.6449 31.497 56.0508 31.497C55.5845 31.497 55.1408 31.6399 54.7648 31.9106L52.6742 33.3996C51.862 32.971 51.0122 32.6175 50.1323 32.3543L49.7112 29.8575C49.5307 28.7821 48.6057 28 47.5152 28H44.3492C43.2587 28 42.3337 28.7821 42.1532 29.8575L41.7171 32.4145C40.8748 32.6777 40.0551 33.0236 39.273 33.4447L37.2049 31.9557C36.8289 31.685 36.3776 31.5421 35.9114 31.5421C35.3173 31.5421 34.7533 31.7752 34.3396 32.1964L32.0911 34.4374C31.324 35.2045 31.2187 36.4153 31.8504 37.3027L33.3545 39.4159C32.9409 40.2056 32.61 41.0253 32.3543 41.8751L29.8575 42.2962C28.7821 42.4767 28 43.4017 28 44.4922V47.6582C28 48.7487 28.7821 49.6737 29.8575 49.8542L32.4144 50.2904C32.6776 51.1327 33.0236 51.9524 33.4447 52.7345L31.9632 54.7951C31.3315 55.6825 31.4293 56.8933 32.2039 57.6603L34.4449 59.9014C34.8661 60.3225 35.4226 60.5557 36.0167 60.5557C36.4829 60.5557 36.9266 60.4128 37.3026 60.1421L39.4159 58.638C40.1754 59.0366 40.9726 59.3599 41.7923 59.6156L42.2134 62.1425C42.3939 63.2179 43.3189 64 44.4093 64H47.5829C48.6734 64 49.5984 63.2179 49.7789 62.1425L50.2075 59.6156C51.0573 59.3524 51.877 59.014 52.6591 58.6004L54.7423 60.0894C55.1183 60.3601 55.5695 60.503 56.0358 60.503C56.6299 60.503 57.1864 60.2699 57.6075 59.8488L59.8486 57.6077C60.6156 56.8406 60.7209 55.6298 60.0892 54.7424L58.6002 52.6518C59.0138 51.8621 59.3597 51.0424 59.6154 50.2001L62.1423 49.779C63.2177 49.5985 63.9998 48.6735 63.9998 47.583V44.417C64.0148 43.3265 63.2327 42.4015 62.1573 42.221ZM61.9843 47.583C61.9843 47.6808 61.9167 47.7635 61.8189 47.7786L58.6604 48.305C58.2618 48.3727 57.9459 48.666 57.8482 49.0495C57.5624 50.155 57.1262 51.2154 56.5396 52.2005C56.3366 52.5465 56.3516 52.9751 56.5847 53.306L58.4423 55.9231C58.4949 55.9983 58.4874 56.1111 58.4197 56.1788L56.1787 58.4199C56.126 58.4725 56.0734 58.4801 56.0358 58.4801C55.9906 58.4801 55.953 58.465 55.923 58.4424L53.3134 56.5849C52.99 56.3518 52.5539 56.3367 52.2079 56.5398C51.2228 57.1264 50.1624 57.5626 49.0569 57.8483C48.6658 57.9461 48.3726 58.2695 48.3124 58.6605L47.7785 61.8191C47.7634 61.9169 47.6807 61.9845 47.5829 61.9845H44.4169C44.3191 61.9845 44.2364 61.9169 44.2213 61.8191L43.6949 58.6605C43.6272 58.262 43.3339 57.9461 42.9504 57.8483C41.875 57.5701 40.8372 57.1414 39.8671 56.5849C39.7091 56.4947 39.5287 56.4496 39.3557 56.4496C39.1526 56.4496 38.9421 56.5097 38.7691 56.6376L36.137 58.5101C36.0994 58.5327 36.0618 58.5477 36.0242 58.5477C35.9941 58.5477 35.9339 58.5402 35.8813 58.4876L33.6402 56.2465C33.5726 56.1788 33.565 56.0735 33.6177 55.9908L35.4677 53.3963C35.7008 53.0654 35.7159 52.6292 35.5128 52.2833C34.9262 51.3056 34.475 50.2452 34.1892 49.1398C34.0839 48.7562 33.7681 48.4629 33.377 48.3952L30.1959 47.8538C30.0982 47.8387 30.0305 47.756 30.0305 47.6582V44.4922C30.0305 44.3944 30.0982 44.3117 30.1959 44.2966L33.3319 43.7702C33.7305 43.7025 34.0539 43.4092 34.1516 43.0182C34.4299 41.9127 34.8585 40.8448 35.4376 39.8596C35.6406 39.5137 35.6181 39.085 35.385 38.7616L33.5124 36.1295C33.4598 36.0543 33.4673 35.9415 33.535 35.8738L35.776 33.6328C35.8287 33.5801 35.8813 33.5726 35.9189 33.5726C35.964 33.5726 36.0016 33.5876 36.0317 33.6102L38.6262 35.4602C38.9571 35.6933 39.3933 35.7084 39.7392 35.5053C40.7169 34.9187 41.7772 34.4675 42.8827 34.1817C43.2663 34.0765 43.5595 33.7606 43.6272 33.3695L44.1687 30.1884C44.1837 30.0907 44.2665 30.023 44.3642 30.023H47.5303C47.628 30.023 47.7108 30.0907 47.7258 30.1884L48.2522 33.3244C48.3199 33.723 48.6132 34.0464 49.0043 34.1441C50.1398 34.4299 51.2228 34.8736 52.2305 35.4677C52.5764 35.6708 53.0051 35.6557 53.336 35.4226L55.9305 33.5576C55.9681 33.535 56.0057 33.52 56.0433 33.52C56.0734 33.52 56.1335 33.5275 56.1862 33.5801L58.4272 35.8212C58.4949 35.8889 58.5024 35.9942 58.4498 36.0769L56.5923 38.6864C56.3591 39.0098 56.3441 39.446 56.5471 39.7919C57.1337 40.7771 57.5699 41.8375 57.8557 42.943C57.9534 43.334 58.2768 43.6273 58.6679 43.6875L61.8264 44.2214C61.9242 44.2365 61.9919 44.3192 61.9919 44.417V47.583H61.9843Z" fill="white"/>
<path d="M46.0037 38.2277C41.7171 38.2277 38.2352 41.7096 38.2352 45.9962C38.2352 50.2829 41.7171 53.7648 46.0037 53.7648C50.2902 53.7648 53.7721 50.2829 53.7721 45.9962C53.7721 41.7096 50.2902 38.2277 46.0037 38.2277ZM46.0037 51.7343C42.8376 51.7343 40.2656 49.1623 40.2656 45.9962C40.2656 42.8302 42.8376 40.2582 46.0037 40.2582C49.1697 40.2582 51.7417 42.8302 51.7417 45.9962C51.7417 49.1623 49.1697 51.7343 46.0037 51.7343Z" fill="white"/>
</svg>
