<svg width="92" height="92" viewBox="0 0 92 92" fill="none" xmlns="http://www.w3.org/2000/svg">
<circle cx="46" cy="46" r="46" fill="#1FDE82"/>
<path d="M58.9578 32.125C56.1776 32.125 53.9155 34.5362 53.9155 37.4998C53.9155 40.4635 56.1775 42.8748 58.9578 42.8748C61.7381 42.8748 64 40.4635 64 37.4998C64 34.5362 61.7381 32.125 58.9578 32.125ZM58.9578 40.6251C57.3411 40.6251 56.0259 39.2232 56.0259 37.4998C56.0259 35.7766 57.3411 34.3747 58.9578 34.3747C60.5744 34.3747 61.8896 35.7766 61.8896 37.4998C61.8897 39.2232 60.5744 40.6251 58.9578 40.6251Z" fill="white"/>
<path d="M29.3057 39.3577C29.5118 39.5773 29.7818 39.6871 30.0519 39.6871C30.3219 39.6871 30.592 39.5773 30.7981 39.3577L33.5406 36.4343L36.2832 39.3577C36.4892 39.5773 36.7593 39.6871 37.0293 39.6871C37.2994 39.6871 37.5695 39.5773 37.7755 39.3577C38.1875 38.9186 38.1875 38.2062 37.7755 37.7669L35.0329 34.8436L37.7754 31.9201C38.1874 31.4809 38.1874 30.7686 37.7754 30.3293C37.3633 29.8902 36.6953 29.8902 36.283 30.3293L33.5406 33.2528L30.7981 30.3293C30.3859 29.8902 29.7179 29.8902 29.3057 30.3293C28.8937 30.7685 28.8937 31.4808 29.3057 31.9201L32.0482 34.8436L29.3057 37.7669C28.8937 38.2062 28.8937 38.9184 29.3057 39.3577Z" fill="white"/>
<path d="M51.7299 52.6422C51.3178 52.2031 50.6498 52.2031 50.2376 52.6422L47.4952 55.5655L44.7526 52.6422C44.3405 52.2031 43.6725 52.2031 43.2602 52.6422C42.8482 53.0815 42.8482 53.7937 43.2602 54.233L46.0028 57.1564L43.2602 60.0798C42.8482 60.519 42.8482 61.2313 43.2602 61.6707C43.4663 61.8902 43.7364 62 44.0064 62C44.2765 62 44.5465 61.8902 44.7526 61.6707L47.4952 58.7472L50.2376 61.6705C50.4436 61.89 50.7137 61.9999 50.9838 61.9999C51.2538 61.9999 51.5239 61.89 51.7299 61.6705C52.1419 61.2312 52.1419 60.519 51.7299 60.0797L48.9875 57.1564L51.7299 54.233C52.1421 53.7937 52.1421 53.0814 51.7299 52.6422Z" fill="white"/>
<path d="M51.8121 36.8696L47.5567 32.9264C47.117 32.5187 46.4504 32.5687 46.0681 33.0374C45.6858 33.5061 45.7325 34.2165 46.1722 34.6242L48.429 36.7154C41.7681 37.644 37.8242 41.3545 35.6318 44.4907C33.7114 47.2377 32.8136 49.9434 32.4531 51.2881C29.9496 51.6001 28 53.8738 28 56.6251C28 59.5887 30.2619 62 33.0422 62C35.8224 62 38.0845 59.5888 38.0845 56.6251C38.0845 54.2393 36.6183 52.2128 34.5964 51.5127C34.9761 50.2337 35.7987 47.9944 37.375 45.7625C40.1193 41.8771 43.9315 39.5889 48.7273 38.9382L46.6245 41.5168C46.2422 41.9856 46.2888 42.696 46.7286 43.1036C46.9284 43.2888 47.1749 43.3795 47.4204 43.3795C47.7153 43.3795 48.0086 43.2485 48.2172 42.9926L51.9164 38.4564C52.2987 37.9875 52.252 37.2772 51.8121 36.8696ZM35.9741 56.6251C35.9741 58.3484 34.6589 59.7504 33.0422 59.7504C31.4256 59.7504 30.1104 58.3484 30.1104 56.6251C30.1104 54.9018 31.4256 53.4999 33.0422 53.4999C34.6588 53.4999 35.9741 54.9018 35.9741 56.6251Z" fill="white"/>
</svg>
