<svg width="92" height="92" viewBox="0 0 92 92" fill="none" xmlns="http://www.w3.org/2000/svg">
<circle cx="46" cy="46" r="46" fill="#1FDE82"/>
<path d="M59.1239 46.9108H45.0928V32.8826C45.0928 32.3158 44.6392 31.8623 44.0722 31.8623C35.2121 31.8623 28 39.0729 28 47.9311C28 56.7894 35.2121 64 44.0722 64C52.9324 64 60.1445 56.7894 60.1445 47.9311C60.1445 47.3718 59.6833 46.9108 59.1239 46.9108ZM44.0722 61.9593C36.3385 61.9593 30.0412 55.6632 30.0412 47.9311C30.0412 40.5392 35.7866 34.4623 43.0517 33.9408V47.9311C43.0517 48.498 43.5052 48.9515 44.0722 48.9515H58.0655C57.5439 56.215 51.4658 61.9593 44.0722 61.9593Z" fill="white"/>
<path d="M64 44.016C63.9849 40.1159 62.5561 36.3594 59.9782 33.4344C56.924 29.9803 52.5393 28 47.9278 28C47.3608 28 46.9072 28.4535 46.9072 29.0204V44.0689C46.9072 44.6357 47.3608 45.0892 47.9278 45.0892H62.9795C63.5465 45.0892 64 44.6357 64 44.0689C64 44.0538 64 44.0386 64 44.016ZM48.9484 43.0561V30.0861C52.5922 30.3506 56.0093 32.0361 58.4436 34.7949C60.4847 37.1001 61.6943 40.0025 61.9211 43.0561H48.9484Z" fill="white"/>
</svg>
