<svg width="92" height="92" viewBox="0 0 92 92" fill="none" xmlns="http://www.w3.org/2000/svg">
<circle cx="46" cy="46" r="46" fill="#1FDE82"/>
<path d="M63.5096 29.487C62.4769 28.4614 60.4056 29.0466 56.9911 31.3291C54.0904 33.2682 50.6111 36.205 47.194 39.599C42.1282 44.6304 38.2768 49.5705 36.9944 52.6206C36.7833 52.5446 36.5645 52.4838 36.3386 52.4395C35.0117 52.1788 33.5705 52.5121 32.3844 53.3534C30.6823 54.5606 30.2315 56.2845 30.1661 56.5751C29.8078 57.9042 29.1292 59.1724 28.2029 60.2435C27.905 60.588 27.939 61.106 28.2795 61.4092C29.4697 62.4686 30.9922 63 32.5758 63C34.102 63 35.685 62.5063 37.0812 61.516C37.7359 61.0517 38.2315 60.5383 38.3275 60.4366C39.5138 59.1704 40.0175 57.5102 39.7676 55.9933C42.7805 54.9205 48.033 50.9524 53.3288 45.6924C56.7459 42.2985 59.7028 38.8426 61.655 35.9617C63.9531 32.5701 64.5424 30.5129 63.5096 29.487ZM37.0979 59.298C37.0528 59.3458 36.6412 59.7765 36.1044 60.1571C34.1545 61.5399 31.7672 61.6998 30.0333 60.6351C30.8453 59.5293 31.4488 58.2828 31.7955 56.9859V56.9858C31.7994 56.9713 31.8029 56.9566 31.806 56.9418C31.8089 56.9286 32.1008 55.606 33.3612 54.7121C34.1719 54.137 35.1385 53.9057 36.0128 54.0774C36.7338 54.2189 37.34 54.6277 37.7196 55.2283C38.4646 56.4069 38.2027 58.1189 37.0979 59.298ZM39.195 54.4267C39.1778 54.3981 38.9229 53.8841 38.448 53.5021C38.8571 52.4156 39.7379 50.9472 40.9656 49.2609L43.5991 51.8767C41.7465 53.2013 40.2284 54.0647 39.195 54.4267ZM44.9593 50.8666L41.985 47.9124C42.499 47.2552 43.0551 46.5745 43.6477 45.8783L47.0091 49.2169C46.2977 49.8136 45.6125 50.3643 44.9593 50.8666ZM60.0034 35.4034C58.1102 38.1211 55.3176 41.3559 52.1402 44.5116C50.8062 45.8366 49.5128 47.042 48.284 48.1218L44.7503 44.612C45.8711 43.3527 47.0931 42.0603 48.3827 40.7796C51.56 37.6237 54.8168 34.8501 57.553 32.9694C60.9221 30.654 62.0846 30.6503 62.308 30.6806C62.3386 30.9022 62.3345 32.0573 60.0034 35.4034Z" fill="white"/>
<path d="M36.3852 57.0425C35.9786 56.8202 35.4675 56.9674 35.2436 57.3713C35.221 57.4122 35.1936 57.4504 35.1622 57.4849C35.0994 57.5498 34.8928 57.7481 34.6782 57.9004C34.3526 58.1313 34.0014 58.2967 33.634 58.3922C33.185 58.5089 32.9162 58.965 33.0337 59.4111C33.1326 59.7863 33.4732 60.0347 33.8462 60.0347C33.9166 60.0347 33.9881 60.0259 34.0595 60.0074C34.6254 59.8603 35.1623 59.6087 35.6551 59.2592C35.9714 59.0348 36.3913 58.624 36.3942 58.6209C36.5192 58.4863 36.6276 58.3367 36.7165 58.1763C36.9402 57.7724 36.7919 57.2647 36.3852 57.0425Z" fill="white"/>
</svg>
