<svg id="Layer_1" data-name="Layer 1" xmlns="http://www.w3.org/2000/svg" xmlns:xlink="http://www.w3.org/1999/xlink" viewBox="0 0 241.71 221.95"><defs><linearGradient id="linear-gradient" y1="81.7" x2="241.71" y2="81.7" gradientUnits="userSpaceOnUse"><stop offset="0" stop-color="#68e1fd"/><stop offset="1" stop-color="#69b9eb"/></linearGradient><linearGradient id="linear-gradient-2" x1="52.44" y1="48.85" x2="211.87" y2="48.85" xlink:href="#linear-gradient"/><linearGradient id="linear-gradient-3" x1="27.21" y1="174.32" x2="192.22" y2="174.32" gradientTransform="translate(283.44 63.66) rotate(89.69)" gradientUnits="userSpaceOnUse"><stop offset="0.29" stop-color="#185c93"/><stop offset="0.5" stop-color="#4bacd4"/><stop offset="0.64" stop-color="#68e1fd"/></linearGradient><linearGradient id="linear-gradient-4" x1="107.33" y1="-9.98" x2="112.37" y2="362.5" gradientTransform="matrix(1, 0, 0, 1, 0, 0)" xlink:href="#linear-gradient-3"/><linearGradient id="linear-gradient-5" x1="45.85" y1="157.01" x2="46.93" y2="217.06" gradientUnits="userSpaceOnUse"><stop offset="0" stop-color="#185c93"/><stop offset="0.59" stop-color="#4bacd4"/><stop offset="1" stop-color="#68e1fd"/></linearGradient><linearGradient id="linear-gradient-6" x1="182.39" y1="132.85" x2="132.86" y2="248.64" gradientUnits="userSpaceOnUse"><stop offset="0.11" stop-color="#185c93"/><stop offset="0.6" stop-color="#4bacd4"/><stop offset="0.73" stop-color="#68e1fd"/></linearGradient><linearGradient id="linear-gradient-7" x1="149.38" y1="128.03" x2="166.28" y2="220.94" gradientTransform="matrix(1, 0, 0, 1, 0, 0)" xlink:href="#linear-gradient-3"/><linearGradient id="linear-gradient-8" x1="74.25" y1="124.17" x2="19.81" y2="211.26" gradientTransform="matrix(1, 0, 0, 1, 0, 0)" xlink:href="#linear-gradient-3"/><linearGradient id="linear-gradient-9" x1="-1004.23" y1="-668.13" x2="-1018.76" y2="-679.22" gradientTransform="matrix(0.93, -0.37, 0.37, 0.93, 1325.69, 392.01)" xlink:href="#linear-gradient-3"/><linearGradient id="linear-gradient-10" x1="-976.77" y1="-660.52" x2="-1004.05" y2="-666" gradientTransform="matrix(0.93, -0.37, 0.37, 0.93, 1325.69, 392.01)" xlink:href="#linear-gradient-3"/><linearGradient id="linear-gradient-11" x1="152.6" y1="140.67" x2="152.95" y2="157.6" gradientTransform="matrix(1, 0, 0, 1, 0, 0)" xlink:href="#linear-gradient-3"/><linearGradient id="linear-gradient-12" x1="-1006.38" y1="-702.51" x2="-963.21" y2="-685.43" gradientTransform="matrix(0.93, -0.37, 0.37, 0.93, 1325.69, 392.01)" xlink:href="#linear-gradient-3"/><linearGradient id="linear-gradient-13" x1="-977.19" y1="-732.02" x2="-967.58" y2="-728.27" gradientTransform="matrix(0.93, -0.37, 0.37, 0.93, 1325.69, 392.01)" gradientUnits="userSpaceOnUse"><stop offset="0.29" stop-color="#185c93"/><stop offset="0.97" stop-color="#4bacd4"/></linearGradient><linearGradient id="linear-gradient-14" x1="-994.77" y1="-689.82" x2="-989.8" y2="-689.82" gradientTransform="matrix(0.93, -0.37, 0.37, 0.93, 1325.69, 392.01)" gradientUnits="userSpaceOnUse"><stop offset="0" stop-color="#4bacd4"/><stop offset="1" stop-color="#185c93"/></linearGradient><linearGradient id="linear-gradient-15" x1="-989.33" y1="-701.04" x2="-984.36" y2="-701.04" xlink:href="#linear-gradient-14"/><linearGradient id="linear-gradient-16" x1="-984.36" y1="-711.36" x2="-979.39" y2="-711.36" xlink:href="#linear-gradient-14"/><linearGradient id="linear-gradient-17" x1="53.63" y1="139.55" x2="34.2" y2="151.03" gradientUnits="userSpaceOnUse"><stop offset="0" stop-color="#ecc4d7"/><stop offset="0.42" stop-color="#efd4d1"/><stop offset="1" stop-color="#f2eac9"/></linearGradient><linearGradient id="linear-gradient-18" x1="837.4" y1="45.34" x2="769.08" y2="63.54" gradientTransform="matrix(1, 0.07, -0.07, 1, -726.57, -13.07)" xlink:href="#linear-gradient-17"/><linearGradient id="linear-gradient-19" x1="497.46" y1="387.27" x2="492.31" y2="393.82" gradientTransform="translate(-509.14 -135.95) rotate(-16.79)" gradientUnits="userSpaceOnUse"><stop offset="0.41" stop-color="#68e1fd"/><stop offset="1" stop-color="#69b9eb"/></linearGradient><linearGradient id="linear-gradient-20" x1="734.58" y1="106.52" x2="756.3" y2="106.52" gradientTransform="matrix(1, 0.01, -0.01, 1, -685.72, -11.91)" xlink:href="#linear-gradient-17"/><linearGradient id="linear-gradient-21" x1="487.92" y1="375.55" x2="472.13" y2="379.76" gradientTransform="translate(-509.14 -135.95) rotate(-16.79)" xlink:href="#linear-gradient-17"/><linearGradient id="linear-gradient-22" x1="745.37" y1="83.42" x2="759.53" y2="83.42" gradientTransform="matrix(1, 0.01, -0.01, 1, -685.72, -11.91)" xlink:href="#linear-gradient-17"/><linearGradient id="linear-gradient-23" x1="486.53" y1="378.41" x2="478.35" y2="366.24" gradientTransform="translate(-509.14 -135.95) rotate(-16.79)" gradientUnits="userSpaceOnUse"><stop offset="0" stop-color="#ecc4d7"/><stop offset="0.42" stop-color="#785757"/><stop offset="1" stop-color="#f2eac9"/></linearGradient><linearGradient id="linear-gradient-24" x1="478.72" y1="378.2" x2="483.08" y2="378.2" gradientTransform="translate(-509.14 -135.95) rotate(-16.79)" xlink:href="#linear-gradient"/><linearGradient id="linear-gradient-25" x1="104.94" y1="111.49" x2="108.98" y2="266.7" gradientTransform="matrix(1, 0, 0, 1, 0, 0)" xlink:href="#linear-gradient-3"/><linearGradient id="linear-gradient-26" x1="-1052.94" y1="-680.08" x2="-1080.22" y2="-700.89" gradientTransform="matrix(0.93, -0.37, 0.37, 0.93, 1325.69, 392.01)" xlink:href="#linear-gradient-3"/><linearGradient id="linear-gradient-27" x1="-1001.4" y1="-665.8" x2="-1052.61" y2="-676.09" gradientTransform="matrix(0.93, -0.37, 0.37, 0.93, 1325.69, 392.01)" xlink:href="#linear-gradient-3"/><linearGradient id="linear-gradient-28" x1="108.54" y1="148.23" x2="109.2" y2="179.99" gradientTransform="matrix(1, 0, 0, 1, 0, 0)" xlink:href="#linear-gradient-3"/><linearGradient id="linear-gradient-29" x1="-1056.99" y1="-744.61" x2="-975.96" y2="-712.56" gradientTransform="matrix(0.93, -0.37, 0.37, 0.93, 1325.69, 392.01)" xlink:href="#linear-gradient-3"/><linearGradient id="linear-gradient-30" x1="-1002.2" y1="-799.99" x2="-984.17" y2="-792.95" xlink:href="#linear-gradient-13"/><linearGradient id="linear-gradient-31" x1="-1035.2" y1="-720.79" x2="-1025.87" y2="-720.79" xlink:href="#linear-gradient-14"/><linearGradient id="linear-gradient-32" x1="-1024.99" y1="-741.84" x2="-1015.66" y2="-741.84" xlink:href="#linear-gradient-14"/><linearGradient id="linear-gradient-33" x1="-1015.66" y1="-761.23" x2="-1006.32" y2="-761.23" xlink:href="#linear-gradient-14"/><linearGradient id="linear-gradient-34" x1="1016.65" y1="334.79" x2="1067.52" y2="334.79" gradientTransform="translate(-843.49 -491.81) rotate(15.33)" xlink:href="#linear-gradient-17"/><linearGradient id="linear-gradient-35" x1="590.6" y1="729.77" x2="621.98" y2="729.77" gradientTransform="translate(-605.92 -568.83) rotate(-5.28)" xlink:href="#linear-gradient"/><linearGradient id="linear-gradient-36" x1="169.17" y1="125.01" x2="170.48" y2="222.14" gradientTransform="matrix(1, 0, 0, 1, 0, 0)" xlink:href="#linear-gradient-3"/><linearGradient id="linear-gradient-37" x1="169.16" y1="123.08" x2="170.47" y2="220.21" gradientTransform="matrix(1, 0, 0, 1, 0, 0)" xlink:href="#linear-gradient-3"/><linearGradient id="linear-gradient-38" x1="158.29" y1="157.52" x2="168.48" y2="182.44" gradientTransform="matrix(1, 0, 0, 1, 0, 0)" xlink:href="#linear-gradient-3"/><linearGradient id="linear-gradient-39" x1="157.54" y1="169.8" x2="162.75" y2="192.11" gradientUnits="userSpaceOnUse"><stop offset="0" stop-color="#185c93"/><stop offset="0.89" stop-color="#68e1fd"/></linearGradient><linearGradient id="linear-gradient-40" x1="49.31" y1="114.4" x2="50.98" y2="238.28" gradientTransform="matrix(1, 0, 0, 1, 0, 0)" xlink:href="#linear-gradient-3"/><linearGradient id="linear-gradient-41" x1="49.67" y1="133.49" x2="50.57" y2="200.18" gradientTransform="matrix(1, 0, 0, 1, 0, 0)" xlink:href="#linear-gradient-3"/><linearGradient id="linear-gradient-42" x1="40.62" y1="167.95" x2="51.7" y2="215.42" xlink:href="#linear-gradient-39"/><linearGradient id="linear-gradient-43" x1="169.17" y1="109.26" x2="170.48" y2="206.39" gradientTransform="matrix(1, 0, 0, 1, 0, 0)" xlink:href="#linear-gradient-3"/><linearGradient id="linear-gradient-44" x1="169.16" y1="107.33" x2="170.47" y2="204.46" gradientTransform="matrix(1, 0, 0, 1, 0, 0)" xlink:href="#linear-gradient-3"/><linearGradient id="linear-gradient-45" x1="158.29" y1="141.77" x2="168.48" y2="166.69" gradientTransform="matrix(1, 0, 0, 1, 0, 0)" xlink:href="#linear-gradient-3"/><linearGradient id="linear-gradient-46" x1="157.54" y1="154.05" x2="162.75" y2="176.36" xlink:href="#linear-gradient-39"/><linearGradient id="linear-gradient-47" x1="181.93" y1="-3.37" x2="169.92" y2="181.71" gradientTransform="matrix(1, 0, 0, 1, 0, 0)" xlink:href="#linear-gradient-3"/><linearGradient id="linear-gradient-48" x1="184.06" y1="-62.83" x2="172.05" y2="122.25" gradientTransform="matrix(1, 0, 0, 1, 0, 0)" xlink:href="#linear-gradient-3"/><linearGradient id="linear-gradient-49" x1="135.02" y1="127" x2="112.84" y2="256.68" gradientUnits="userSpaceOnUse"><stop offset="0" stop-color="#185c93"/><stop offset="0.22" stop-color="#4bacd4"/><stop offset="0.47" stop-color="#68e1fd"/></linearGradient><linearGradient id="linear-gradient-50" x1="43.65" y1="175.19" x2="45.06" y2="144.85" gradientUnits="userSpaceOnUse"><stop offset="0.06" stop-color="#185c93"/><stop offset="0.72" stop-color="#4bacd4"/></linearGradient><linearGradient id="linear-gradient-51" x1="43.66" y1="168.53" x2="46.48" y2="167.54" xlink:href="#linear-gradient-50"/><linearGradient id="linear-gradient-52" x1="43.76" y1="165.24" x2="45.87" y2="171.02" gradientTransform="translate(55.22 -5.25) rotate(18.76)" xlink:href="#linear-gradient-50"/><linearGradient id="linear-gradient-53" x1="48.28" y1="163.81" x2="58.94" y2="163.81" xlink:href="#linear-gradient"/><linearGradient id="linear-gradient-54" x1="55.71" y1="157.93" x2="51.58" y2="169.57" xlink:href="#linear-gradient"/><linearGradient id="linear-gradient-55" x1="43.14" y1="152.58" x2="39.56" y2="173.51" xlink:href="#linear-gradient-49"/></defs><title>Custom Prices</title><path d="M241.71,36.35a13.39,13.39,0,0,1-6.89,11.7L181.37,77.74a40.28,40.28,0,0,1-13.31,12.12l-50.54,28.53L78.8,140.24l-10.88,5.84a7.88,7.88,0,0,1-8.42-.63l-.32-.26a13.06,13.06,0,0,1-16.13-19.42,4.22,4.22,0,0,0-1.17-5.83l-.06,0a8.71,8.71,0,0,1,.73-14.52l3.38-2.6.68-.52a4.37,4.37,0,0,0,1.89-2c1.86-4.47-3.56-15-14.64-8.58-.54.31-1.17.47-1.73.77L9.4,104.59a6.63,6.63,0,0,1-6.84-.52,6.39,6.39,0,0,1,.73-10.71L47,69,56.08,64l75.7-42.61a38.22,38.22,0,0,1,55.48,22.9l34.94-19.4A13.13,13.13,0,0,1,241.71,36.35Z" opacity="0.1" fill="url(#linear-gradient)" style="isolation:isolate"/><path d="M211.87,10.44h0a10.61,10.61,0,0,1-5.46,9.28L82.07,88.79,67.69,96.47a10.35,10.35,0,0,1-9.91-18.18l138.62-77A10.42,10.42,0,0,1,211.87,10.44Z" opacity="0.1" fill="url(#linear-gradient-2)" style="isolation:isolate"/><ellipse cx="109.72" cy="174.32" rx="47.63" ry="82.5" transform="translate(-65.19 283.09) rotate(-89.69)" fill="url(#linear-gradient-3)"/><path d="M168.23,200.22c-32.11,18.54-84.35,18.45-116.67-.21a63.71,63.71,0,0,1-13.28-10h0l-.7-.72c-.54-.56-1.11-1.19-1.69-1.86l-.35-.4-.17-.2a36.34,36.34,0,0,1-6.66-11.66,29.25,29.25,0,0,1-1.23-5.28c-1.83-13.36,6.07-27.06,23.72-37.25,32.12-18.55,84.36-18.45,116.68.21S200.35,181.68,168.23,200.22Z" fill="url(#linear-gradient-4)"/><path d="M64.86,180.53c-.11.92-15.77,11.42-24.31,10.11a9.87,9.87,0,0,1-2.27-.62h0l-.7-.72c-.54-.56-1.11-1.19-1.69-1.86l-.35-.4-.17-.2a36.34,36.34,0,0,1-6.66-11.66,29.25,29.25,0,0,1-1.23-5.28c1.57-1,8.61-2.63,13.66,1.52,3.07,2.52,8.07.23,11.6,2.05,2.28,1.17,4.21,2.91,6.48,4.1C60.62,178.3,65.12,178.47,64.86,180.53Z" fill="url(#linear-gradient-5)"/><path d="M151.17,176.63c2.41.74,5,1.12,7.22,2.21,3.18,1.53,5.93,4.46,9.46,4.4a11.89,11.89,0,0,0,4.57-1.36c5.87-2.64,12-5.44,16.06-10.42a1.53,1.53,0,0,0,.46-1.08,1.27,1.27,0,0,0-.53-.78c-1.49-1.21-4.31-3.89-6.23-3.84-6.4.15-6.05-5.42-12.46-5.27-3.62.09-13.58,8.33-17.06,9.5-2.57.86-7.83,3.25-10.53,3.81C143.18,176,148.92,176,151.17,176.63Z" fill="url(#linear-gradient-6)"/><path d="M170.66,155.16a5.8,5.8,0,0,0-2.75-3.63c-1.3-.86-2.77-1.44-4.08-2.29-2.26-1.48-4-3.7-6.24-5.16s-5.64-1.93-7.45.08c-2,2.2-2.62,3.49-5.72,4.2-1.57.36-5.68-.57-6.84.57-1.82,1.79,1.31,2.53,3.22,3.27a36.19,36.19,0,0,0,11.89,2.4C154.61,154.64,170.33,153.23,170.66,155.16Z" opacity="0.56" fill="url(#linear-gradient-7)"/><path d="M59.77,137.21c-1.5-.11-3.19-.2-4.31.8a10.79,10.79,0,0,1-1.08,1.06,4.12,4.12,0,0,1-1.87.52,23,23,0,0,0-7.42,2.22,11.93,11.93,0,0,0-4.06,3,6.56,6.56,0,0,1-1.48,1.62,15.47,15.47,0,0,1-1.92.79,1.65,1.65,0,0,0-1.12,1.58,2.07,2.07,0,0,0,.51.94c1.38,1.72,2.88,3.52,5,4.18a15.06,15.06,0,0,0,3.8.4c6.18.33,11.86,3.33,17.85,4.89,2.39.62,5,1,7.25,0a11.32,11.32,0,0,0,2.4-1.58A41.74,41.74,0,0,0,83,146.43a2.85,2.85,0,0,0,.52-1.49c0-1.21-1.38-1.85-2.46-2.41-2.91-1.52-3.92-4.75-7.32-5C69.08,137.29,64.42,137.58,59.77,137.21Z" fill="url(#linear-gradient-8)"/><path d="M145.22,121.12c3.55-1,.94,17.09-.73,19.08s-10.81,15.13-12.94,14S137,123.43,145.22,121.12Z" fill="url(#linear-gradient-9)"/><path d="M160,121.52c-3.25-1.34-1.13,16.51.34,18.64s9.37,16,11.4,15.14S167.53,124.64,160,121.52Z" fill="url(#linear-gradient-10)"/><ellipse cx="152.63" cy="142" rx="5.63" ry="2.98" fill="url(#linear-gradient-11)"/><path d="M158.16,74.36s4.87,18.91,4.72,35.32a207.19,207.19,0,0,1-2.1,28.37c0,2.77-3.67,5-8.17,4.94s-8.13-2.32-8.12-5.09c0,0-7.11-32.68,3.35-63.64Z" fill="url(#linear-gradient-12)"/><path d="M158.16,74.36c0,1.65-2.33,3-5.18,3s-5.14-1.39-5.13-3a8.81,8.81,0,0,1,.24-1.61v0c.69-2.65,2.38-7.39,4-8.73a.76.76,0,0,1,.19-.12,1.56,1.56,0,0,1,.79-.23C155.91,63.58,158.17,72.7,158.16,74.36Z" fill="url(#linear-gradient-13)"/><path d="M152.26,63.76h0l-.2.13Z" fill="#fff" opacity="0.34" style="isolation:isolate"/><circle cx="150.74" cy="114.68" r="2.49" fill="url(#linear-gradient-14)"/><circle cx="151.67" cy="102.24" r="2.49" fill="url(#linear-gradient-15)"/><circle cx="152.5" cy="90.81" r="2.49" fill="url(#linear-gradient-16)"/><path d="M43.41,141.68a2.06,2.06,0,0,0-.94-.48,10.42,10.42,0,0,0-2.72-.42,1.08,1.08,0,0,0-.51.08c-.25.14-1.09.83-1.16,1.11a37.09,37.09,0,0,0-1,5.84,5.57,5.57,0,0,0,2,3.6,6.94,6.94,0,0,0,3.83,1,1.77,1.77,0,0,0,1-1.31c.3-1.58-1.55-3.53-1.53-3.72l.16-1.37a4.86,4.86,0,0,1,.29-1.36C43.22,143.91,44.17,142.46,43.41,141.68Z" fill="#161e51"/><path d="M46.78,143.29l-3.67-.67a2.52,2.52,0,0,0-1.3,3.32l.46,1.07,2.25,1.08Z" fill="url(#linear-gradient-17)"/><path d="M81.26,127.1l-5.77,13.68,0-13.4L62,131.23l10.29,13.9s1.66,9-3.91,10S44.52,149.39,44.52,149V146a2.78,2.78,0,0,1,3.32-2.73c4.44.88,11.75,2.28,11.34,1.9-.58-.55-5.23-3.26-12.41-8.47a9.49,9.49,0,0,1-3.86-6,11.6,11.6,0,0,1-.23-2.17A17.62,17.62,0,0,1,44,121.72L61.71,119s19.18-3.24,19.43-2.11S81.26,127.1,81.26,127.1Z" fill="#212c6e"/><path d="M68.39,86.34l7.23,10.55L95.24,94s15.19-1.1,7.44,1.67c-.52.19-5.68,3.2-6.93,3.31s-3.59-1.67-5.32-1.13c-1,.31-5.51,1.89-9.43,3.1-2.79.86-5.3,1.54-6.06,1.44-1.82-.23-5.7-5-5.7-5Z" fill="url(#linear-gradient-18)"/><path d="M85.06,93.93l1.56,6.26L75,103.68s-2.25.23-5.45-3.83.08-13.51.08-13.51l6.46,9.09Z" fill="url(#linear-gradient-19)"/><path d="M65.9,99c-.26.92-2.23,3.75-2.53,5s-1.89,9.13-1.89,9.13-2.38.28-3.88.44c-6.12.66-9.47-2.4-9.47-2.4s3.12-3.33,3.35-6.21-2.3-4.88-.84-8.07c1.64-3.6-.42-5.24,2.7-6.62.95-.43,3-3.62,4.25-4.11.69-.28,1.37-.52,2-.73s1.15-.33,1.71-.45a9.81,9.81,0,0,1,5.55.14,4.72,4.72,0,0,1,2.82,3.19C71.14,92.87,66.16,98,65.9,99Z" fill="url(#linear-gradient-20)"/><path d="M69.17,100.91,61.71,119l-.26,0c-.23,0-.17,3.19-7.73,5.34-1.36.39-5.62-.89-6.73-1.25a15.39,15.39,0,0,1-3-1.31c-.35-.21-.54-.34-.54-.34S47.31,98,48.6,94.77C50.77,89.29,56.93,86,60,84.59c2.58,1.93-1.31,2.4.73,3s4.52,1.78,5.08,0A12.17,12.17,0,0,1,66.47,86c.26-.54.52-1,.65-1.31s.15-.38.11-.46a4.51,4.51,0,0,1,.93.47,4.84,4.84,0,0,1,2,2.72C71.54,92.08,70.54,97.62,69.17,100.91Z" fill="#318ac8"/><path d="M51.48,104.91,47,123l-3.5-1.65s3-26.84,6.81-29.61S51.48,104.91,51.48,104.91Z" fill="#212c6e" opacity="0.25"/><path d="M67,84.68l0,0-.1.34c-.29,1-1,3.38-1.35,4.18-.43,1-3.32.2-4.58-.16a2.46,2.46,0,0,1-1.07-.58,2,2,0,0,1-.55-2.05c0-.23.16-.61.29-1.07.57-2,1.66-5.74,1.66-5.74a6,6,0,0,1,.73.4,17.34,17.34,0,0,1,1.73,1.19c.38.29.78.63,1.22,1C67.08,84.11,67,84.68,67,84.68Z" fill="url(#linear-gradient-21)"/><path d="M72.4,77.15a8.31,8.31,0,0,1-.12,2.14c-.25.9-1.54,5.67-2.66,6A5.64,5.64,0,0,1,67,84.72a18.92,18.92,0,0,1-3.06-1.5h0a4.71,4.71,0,0,1-1.28-1,6.18,6.18,0,0,1-.36-.53,11.52,11.52,0,0,1-1-2h0a2.34,2.34,0,0,1-.53-.18,2.24,2.24,0,0,1-1.13-1.19A11.48,11.48,0,0,1,60.8,69c2.4-3.8,9.11-2.09,11,.25a5.74,5.74,0,0,1,1.49,4.35C73.33,74.93,72.45,76.56,72.4,77.15Z" fill="url(#linear-gradient-22)"/><path d="M63.76,81.24c-.16.94-.18,1.76.16,2-.15-.08-1.37-.75-1.64-1.55l-.93,3.28-1,3.42-.47.15a2,2,0,0,1-.55-2.05c0-.23.16-.61.29-1.07.57-2,1.66-5.74,1.66-5.74a2.8,2.8,0,0,1-.53-.19l-2.34-4.83C63,71.78,64,79.75,63.77,81.17Z" opacity="0.31" fill="url(#linear-gradient-23)" style="isolation:isolate"/><path d="M70.13,87.46c1.41,4.61.41,10.16-1,13.44-.66,1.6-5.36,14.47-7.46,18.08l-1.49,1.94c2-5.1,6.56-19.8,7.74-21.83,1.71-3,.43-12.75.43-12.75l-2.53,1.23L66.47,86,67,84.72h.12l1,0A4.8,4.8,0,0,1,70.13,87.46Z" fill="#fff" opacity="0.37"/><path d="M60,84s-1.85.41-2.15,1.28.74,2.42.74,2.42,1.33,2.24,4.91,2a4,4,0,0,0-2.3-2.43c-1.89-.79-1.76-1.48-1.6-1.86A14.33,14.33,0,0,0,60,84Z" fill="url(#linear-gradient-24)"/><path d="M73,71.27a8.36,8.36,0,0,1-2.48,1,2.45,2.45,0,0,1-1.36-.19,2.23,2.23,0,0,0-1.38-.18c-.7.22-.93,1.2-1.62,1.45-.51.18-1.08-.11-1.62,0a1.68,1.68,0,0,0-1.28,1.28,5.83,5.83,0,0,0-.07,1.91c0,.26,0,.58-.26.63s-.38-.13-.43-.33a2.32,2.32,0,0,1,0-.59A1.32,1.32,0,0,0,61.2,75a1.31,1.31,0,0,0-1.32,1.13,3.65,3.65,0,0,0,.49,1.73,1.41,1.41,0,0,1-.2,1.67A1.87,1.87,0,0,1,57.89,79a1.86,1.86,0,0,0-.47-.57,1.41,1.41,0,0,0-.74-.11,3.84,3.84,0,0,1-2.46-.92.73.73,0,0,1-.31-.5,1.84,1.84,0,0,1,.15-.43,3,3,0,0,0-.14-1.6A3.25,3.25,0,0,1,54.81,72a3.25,3.25,0,0,0,.78-.88c.29-.63-.05-1.39.21-2s.76-.8,1-1.28a4.25,4.25,0,0,0,.28-1.17,3.32,3.32,0,0,1,2.37-2.48,2.75,2.75,0,0,0,1.18-.43,2.78,2.78,0,0,0,.44-.62,2.36,2.36,0,0,1,.33-.45,3.87,3.87,0,0,1,4.48-1c.56.27,1,.67,1.59,1,.87.47,1.87.64,2.78,1a2.89,2.89,0,0,1,1.92,2.08c.06.39,0,.8.07,1.18C72.6,68.38,75,70,73,71.27Z" fill="#161e51"/><path d="M85.06,93.93,84,95.31s-7.08,2.26-8.37,1.58-5.45-8-5.45-8l-.52-2.6,6.46,9.09Z" fill="#fff" fill-rule="evenodd" opacity="0.37"/><path d="M73,71.27a8.36,8.36,0,0,1-2.48,1,2.45,2.45,0,0,1-1.36-.19c.32-.26.89-.35,1.23-.61a1.55,1.55,0,0,0,.65-1.4c-.14-.8-1.06-1.2-1.49-1.89a1.73,1.73,0,0,1-.18-1.42,1.49,1.49,0,0,0,.13-.59c0-.34-.38-.57-.72-.65a5.77,5.77,0,0,1-1-.21c-.87-.37-1.09-1.65-2-1.93-.75-.24-1.68.32-2.3-.16-.15-.11-.29-.3-.48-.29a.59.59,0,0,0-.3.14l-.84.61a1,1,0,0,1-.41-1,.09.09,0,0,1,0-.05,3.87,3.87,0,0,1,4.48-1c.56.27,1,.67,1.59,1,.87.47,1.87.64,2.78,1a2.89,2.89,0,0,1,1.92,2.08c.06.39,0,.8.07,1.18C72.6,68.38,75,70,73,71.27Z" fill="#fff" opacity="0.37"/><path d="M71.83,173.63l16-6.13a9.44,9.44,0,0,1,2.54-.72,10.62,10.62,0,0,1,2.86.3,55.72,55.72,0,0,0,20,.1,27,27,0,0,1,6.49-.76c4.74.29,8.7,3.53,12.94,5.67A29.63,29.63,0,0,0,144,175.18c.06-2-1.86-3.5-3.54-4.65a99.34,99.34,0,0,1-11.12-8.81,3.55,3.55,0,0,1-1-1.16,3.77,3.77,0,0,1-.21-1.74l.23-6.19a10.72,10.72,0,0,0-.6-4.95c-1.3-2.81-4.68-3.91-7.71-4.54-8-1.67-16.66-3.64-23.49.81-2,1.3-4,4.74-4.54,7.08-.39,1.78,0,3.78-1,5.34a6.93,6.93,0,0,1-2,1.86l-13.26,9.51C74,169,71.58,170.2,70,171.61S69.68,174.45,71.83,173.63Z" fill="url(#linear-gradient-25)"/><path d="M94.7,111.52c6.65-1.87,1.76,32.1-1.39,35.82S73,175.73,69,173.68,79.23,115.87,94.7,111.52Z" fill="url(#linear-gradient-26)"/><path d="M122.38,112.28c-6.11-2.51-2.12,31,.64,35s17.58,30,21.4,28.42S136.57,118.13,122.38,112.28Z" fill="url(#linear-gradient-27)"/><ellipse cx="108.59" cy="150.72" rx="10.57" ry="5.59" fill="url(#linear-gradient-28)"/><path d="M119,23.76s9.15,35.51,8.86,66.29a390.25,390.25,0,0,1-3.93,53.27c0,5.19-6.9,9.34-15.34,9.27S93.29,148.22,93.32,143c0,0-13.35-61.34,6.3-119.45Z" fill="url(#linear-gradient-29)"/><path d="M119,23.76c0,3.11-4.36,5.59-9.71,5.54s-9.66-2.61-9.64-5.72a17.39,17.39,0,0,1,.45-3v0c1.29-5,4.46-13.88,7.48-16.39a2.74,2.74,0,0,1,.36-.23,2.83,2.83,0,0,1,1.49-.42C114.75,3.53,119,20.65,119,23.76Z" fill="url(#linear-gradient-30)"/><path d="M107.9,3.86l0,0a2.06,2.06,0,0,0-.37.23Z" fill="#fff" opacity="0.34" style="isolation:isolate"/><circle cx="105.05" cy="99.44" r="4.67" fill="url(#linear-gradient-31)"/><circle cx="106.8" cy="76.1" r="4.67" fill="url(#linear-gradient-32)"/><circle cx="108.36" cy="54.64" r="4.67" fill="url(#linear-gradient-33)"/><path d="M52.5,93.45a3.94,3.94,0,0,0-2.75,5.74c1.86,3.61,5.43,9.57,9.44,11.45,4.3,2,15.93-.29,24-.23a12.68,12.68,0,0,1,2.9.71c2.36,1.56,3.23,1.77,4.33,1.85a10.8,10.8,0,0,0,8-3.14s-.72-2.27-1.88-2.18C90,108.14,89.1,105,89.1,105l-1.22,1.92-23.67-.84s-7.15-6-8.51-10.44C55.11,93.73,53.83,93.23,52.5,93.45Z" fill="url(#linear-gradient-34)"/><path d="M81.15,107.13v2.15a3.08,3.08,0,0,1-.82,1.94,3.12,3.12,0,0,1-2,1c-5.37.45-17,1.21-19.39-.62-3.06-2.38-9.66-9.93-10.14-14.25a5,5,0,0,1,4-5.53,4.44,4.44,0,0,1,3.86,1.23s.1.19.3.53c1.27,2.24,6.26,11,7.4,11.72s10.92.27,15.07.08a1.7,1.7,0,0,1,1.65,1A1.73,1.73,0,0,1,81.15,107.13Z" fill="url(#linear-gradient-35)"/><path d="M81.14,107.51l-.57.14-1.6-.51s-14.87.73-16.56-.1S53,92.27,52.71,91.83a4.44,4.44,0,0,1,3.86,1.23s.1.19.3.53c1.27,2.24,6.26,11,7.4,11.72s10.92.27,15.07.08a1.7,1.7,0,0,1,1.65,1Z" fill="#fff" opacity="0.37"/><path d="M60.22,127.36,62,131.23l13.48-3.85,0,13.4,3.33-8.39s.71-10.17-1.45-10S60.22,127.36,60.22,127.36Z" fill="#161e51"/><path d="M62.62,149.62,44.52,146a2.78,2.78,0,0,1,3.32-2.73c4.44.88,11.75,2.28,11.34,1.9-.58-.55-5.23-3.26-12.41-8.47a9.49,9.49,0,0,1-3.86-6l-.23-2.17s1,3.52,11.55,10.27c5.75,3.68,8.5,6.7,9.83,8.69A1.38,1.38,0,0,1,62.62,149.62Z" fill="#161e51" fill-rule="evenodd"/><path d="M169.71,158.59,148.25,169V171l21.59,12.46,21.46-12.39v-1.94Zm.12,22.52-17.92-10.34,17.81-10.28,17.91,10.35Z" fill="url(#linear-gradient-36)"/><path d="M169.71,156.65,148.25,169l21.59,12.46,21.46-12.39Zm.12,22.52-17.92-10.34,17.81-10.28,17.91,10.35Z" fill="url(#linear-gradient-37)"/><polygon points="169.72 160.49 169.72 158.55 151.91 168.83 153.59 169.8 169.72 160.49" fill="url(#linear-gradient-38)"/><polygon points="169.83 181.5 169.84 183.44 148.25 170.98 148.25 169.04 169.83 181.5" fill="url(#linear-gradient-39)"/><path d="M50.1,157.23l-14.78,7.85v15.29l14.82,8.55,14.74-8.5V165.13Z" fill="url(#linear-gradient-40)"/><path d="M50.05,156.54l-14.73,8.51,14.82,8.56,14.74-8.51ZM50.14,172l-12.31-7.1,12.23-7.06L62.36,165Z" fill="url(#linear-gradient-41)"/><polygon points="50.14 173.63 50.14 188.92 35.32 180.37 35.32 165.08 50.14 173.63" fill="url(#linear-gradient-42)"/><path d="M169.71,142.84,148.25,153.3v1.93l21.59,12.46L191.3,155.3v-1.93Zm.12,22.52L151.91,155l17.81-10.28,17.91,10.35Z" fill="url(#linear-gradient-43)"/><path d="M169.71,140.91,148.25,153.3l21.59,12.46,21.46-12.39Zm.12,22.52-17.92-10.34,17.81-10.28,17.91,10.35Z" fill="url(#linear-gradient-44)"/><polygon points="169.72 144.74 169.72 142.81 151.91 153.09 153.59 154.05 169.72 144.74" fill="url(#linear-gradient-45)"/><polygon points="169.83 165.75 169.84 167.69 148.25 155.23 148.25 153.29 169.83 165.75" fill="url(#linear-gradient-46)"/><path d="M193.57,156.06,154.2,133.33c-2.31-1.33-4.18-4.91-4.18-8V88.45c0-3.08,1.87-4.49,4.18-3.16L193.57,108c2.31,1.33,4.18,4.91,4.18,8V152.9C197.75,156,195.88,157.39,193.57,156.06Z" opacity="0.59" fill="url(#linear-gradient-47)"/><path d="M191.79,156.83,152.42,134.1c-2.31-1.33-4.18-4.9-4.18-8V89.23c0-3.08,1.87-4.5,4.18-3.16l39.37,22.73c2.31,1.33,4.18,4.91,4.18,8v36.89C196,156.75,194.1,158.17,191.79,156.83Z" opacity="0.59" fill="url(#linear-gradient-48)"/><text transform="matrix(0.87, 0.5, 0, 1, 154.99, 104.73)" opacity="0.79" font-size="6.7" fill="#fff" font-family="Avenir-Black, Avenir" font-weight="800">C U S T O M</text><path d="M184.1,139.82,157.22,124.3a7.61,7.61,0,0,1-3.18-6.08h0c0-2.34,1.42-3.42,3.18-2.41l26.88,15.52a7.62,7.62,0,0,1,3.18,6.08h0C187.28,139.76,185.86,140.83,184.1,139.82Z" fill="none" stroke="#fff" stroke-miterlimit="10" opacity="0.79"/><path d="M180,136.23,157.49,123c-1-.58-2.15-3.23-2.15-4.57h0c0-1.34.82-2,1.82-1.38l22.47,13.25a4.38,4.38,0,0,1,1.82,3.48h0C181.45,135.1,181,136.81,180,136.23Z" fill="#f4bd4f" opacity="0.79"/><path d="M96.81,195.77c-4.45,0-8.13-.67-10.48-2.28-4.94-3.4-7.19-7.51-6.33-11.58,1.06-5,6.61-9,14.5-10.54,9.52-1.8,15.71-4.6,17-7.68a2.91,2.91,0,0,0-.4-2.91,10.22,10.22,0,0,1-1.84-8.34l1,.29a9.41,9.41,0,0,0,1.7,7.48,3.93,3.93,0,0,1,.51,3.86c-1.42,3.45-7.72,6.39-17.72,8.28C87.2,173.77,82,177.5,81,182.11c-.77,3.65,1.33,7.4,5.92,10.56,11.51,7.92,59.23-8.83,63.55-12,4.51-3.27,10.5-7.07,16.76-7.4a5.83,5.83,0,0,0,4.32-1.67,3.57,3.57,0,0,0,.81-2.49v-23.5l1,.55v22.89a4.55,4.55,0,0,1-1,3.18c-1,1.23-2.73,1.92-5.05,2-6,.31-11.82,4-16.23,7.21C147.45,184.11,115.42,195.77,96.81,195.77Z" fill="url(#linear-gradient-49)"/><polygon points="50.06 157.85 50.09 172.01 37.83 164.91 50.06 157.85" fill="url(#linear-gradient-50)"/><path d="M45.33,163.94l.71,1.14s-.57.92,0,1.56.85.42,1.13.7a24.23,24.23,0,0,1,1.38,2.92l-.27.69-5.55-3.21s.6-.61-.37-.91l-.68-1.66Z" fill="url(#linear-gradient-51)"/><ellipse cx="43.5" cy="164.56" rx="1.92" ry="0.77" transform="translate(-50.6 22.73) rotate(-18.76)" fill="url(#linear-gradient-52)"/><path d="M48.28,171l3.4-8.69s-2.47-5.75,3.17-6.64c.2,0,.41.15.37.47l-.17.84-1.31,2,2.56,1.22.82-2.26.6-.7a.27.27,0,0,1,.5,0c.66,1.47,2.06,5.63-2.67,6.58l-2.92,6.79L50.1,172Z" fill="url(#linear-gradient-53)"/><path d="M48.55,171.11l3.76-9.19s-2-4.57,2.52-5.28a.21.21,0,0,1,.22.29L54,159.27l2,1,1.13-2.35a.22.22,0,0,1,.4,0c.52,1.18,1.64,4.49-2.13,5.25l-3.26,7.72-2,1.15Z" fill="url(#linear-gradient-54)"/><path d="M42.73,164.59,41.19,159l-.93-.89-.35-3.49,1.2-.42,1.62,2.89-.25,1.37L44,164.32A.8.8,0,0,1,42.73,164.59Z" fill="url(#linear-gradient-55)"/></svg>