<svg id="Layer_1" data-name="Layer 1" xmlns="http://www.w3.org/2000/svg" xmlns:xlink="http://www.w3.org/1999/xlink" viewBox="0 0 358.04 309.98"><defs><style>.cls-1,.cls-2,.cls-3{opacity:0.22;}.cls-1,.cls-12,.cls-2,.cls-20,.cls-3{isolation:isolate;}.cls-1{fill:url(#linear-gradient);}.cls-2{fill:url(#linear-gradient-2);}.cls-3{fill:url(#linear-gradient-3);}.cls-4{fill:url(#linear-gradient-4);}.cls-5{fill:#161f4e;}.cls-6{fill:url(#linear-gradient-5);}.cls-7{fill:url(#linear-gradient-6);}.cls-8{fill:url(#linear-gradient-7);}.cls-9{fill:#488bc4;}.cls-10{fill:url(#linear-gradient-8);}.cls-11{fill:url(#linear-gradient-9);}.cls-12{opacity:0.31;fill:url(#linear-gradient-10);}.cls-13,.cls-15,.cls-20{fill:#fff;}.cls-13,.cls-15{opacity:0.37;}.cls-14{fill:url(#linear-gradient-11);}.cls-15{fill-rule:evenodd;}.cls-16{fill:#212c6e;}.cls-17{fill:url(#linear-gradient-12);}.cls-18{fill:url(#linear-gradient-13);}.cls-19{fill:url(#linear-gradient-14);}.cls-20{opacity:0.34;}.cls-21{fill:url(#linear-gradient-15);}.cls-22{fill:#fcedcf;}.cls-23{fill:#f5be50;}.cls-24{fill:url(#linear-gradient-16);}.cls-25{fill:url(#linear-gradient-17);}.cls-26{fill:url(#linear-gradient-18);}.cls-27{fill:url(#linear-gradient-19);}.cls-28{fill:url(#linear-gradient-20);}.cls-29{fill:url(#linear-gradient-21);}.cls-30{fill:url(#linear-gradient-22);}.cls-31{fill:url(#linear-gradient-23);}.cls-32{fill:url(#linear-gradient-24);}.cls-33{fill:url(#linear-gradient-25);}.cls-34{fill:url(#linear-gradient-26);}.cls-35{fill:url(#linear-gradient-27);}.cls-36{fill:url(#linear-gradient-28);}.cls-37{fill:url(#linear-gradient-29);}.cls-38{fill:url(#linear-gradient-30);}.cls-39{fill:url(#linear-gradient-31);}.cls-40{fill:url(#linear-gradient-32);}.cls-41{fill:url(#linear-gradient-33);}.cls-42,.cls-43{opacity:0.55;}.cls-42{fill:url(#linear-gradient-34);}.cls-43{fill:url(#linear-gradient-35);}</style><linearGradient id="linear-gradient" x1="0.73" y1="399.54" x2="337.13" y2="399.54" gradientTransform="translate(0 -232)" gradientUnits="userSpaceOnUse"><stop offset="0" stop-color="#86e0fa"/><stop offset="1" stop-color="#7ab9e7"/></linearGradient><linearGradient id="linear-gradient-2" x1="82.92" y1="94.02" x2="324.99" y2="94.02" gradientTransform="matrix(1, 0, 0, 1, 0, 0)" xlink:href="#linear-gradient"/><linearGradient id="linear-gradient-3" x1="143.33" y1="365.15" x2="358.77" y2="365.15" xlink:href="#linear-gradient"/><linearGradient id="linear-gradient-4" x1="39.23" y1="-293.51" x2="404.38" y2="-293.51" gradientTransform="matrix(0.55, -0.32, 0.07, 0.13, 83.38, 246.58)" gradientUnits="userSpaceOnUse"><stop offset="0" stop-color="#fff" stop-opacity="0"/><stop offset="0.5" stop-color="#fff"/><stop offset="1" stop-color="#fff" stop-opacity="0"/></linearGradient><linearGradient id="linear-gradient-5" x1="624.42" y1="-364.08" x2="516.74" y2="-335.39" gradientTransform="translate(-254.6 581.72) rotate(-20.63)" gradientUnits="userSpaceOnUse"><stop offset="0" stop-color="#e7c7d7"/><stop offset="0.42" stop-color="#ecd6d3"/><stop offset="1" stop-color="#f2ebcd"/></linearGradient><linearGradient id="linear-gradient-6" x1="366.64" y1="271.74" x2="358.52" y2="282.06" gradientTransform="matrix(0.75, -0.66, 0.66, 0.75, -289.95, 80.43)" gradientUnits="userSpaceOnUse"><stop offset="0.41" stop-color="#86e0fa"/><stop offset="1" stop-color="#7ab9e7"/></linearGradient><linearGradient id="linear-gradient-7" x1="512.22" y1="-249.07" x2="546.44" y2="-249.07" gradientTransform="translate(-239.95 511.08) rotate(-24.1)" xlink:href="#linear-gradient-5"/><linearGradient id="linear-gradient-8" x1="351.6" y1="253.27" x2="326.72" y2="259.9" gradientTransform="matrix(0.75, -0.66, 0.66, 0.75, -289.95, 80.43)" xlink:href="#linear-gradient-5"/><linearGradient id="linear-gradient-9" x1="529.22" y1="-285.48" x2="551.54" y2="-285.48" gradientTransform="translate(-239.95 511.08) rotate(-24.1)" xlink:href="#linear-gradient-5"/><linearGradient id="linear-gradient-10" x1="347.98" y1="256.3" x2="341.24" y2="246.29" gradientTransform="matrix(0.75, -0.66, 0.66, 0.75, -289.95, 80.43)" gradientUnits="userSpaceOnUse"><stop offset="0" stop-color="#e7c7d7"/><stop offset="0.42" stop-color="#735858"/><stop offset="1" stop-color="#f2ebcd"/></linearGradient><linearGradient id="linear-gradient-11" x1="337.11" y1="257.45" x2="343.97" y2="257.45" gradientTransform="matrix(0.75, -0.66, 0.66, 0.75, -289.95, 80.43)" xlink:href="#linear-gradient"/><linearGradient id="linear-gradient-12" x1="535.81" y1="-337.51" x2="616.41" y2="-337.51" xlink:href="#linear-gradient-5"/><linearGradient id="linear-gradient-13" x1="317.31" y1="278.78" x2="366.76" y2="278.78" gradientTransform="matrix(0.75, -0.66, 0.66, 0.75, -289.95, 80.43)" xlink:href="#linear-gradient"/><linearGradient id="linear-gradient-14" x1="-104.63" y1="174.75" x2="-139.95" y2="147.8" gradientTransform="matrix(0.83, 0.55, -0.55, 0.83, 371.46, 147.91)" gradientUnits="userSpaceOnUse"><stop offset="0.29" stop-color="#2a5c90"/><stop offset="0.5" stop-color="#63acd1"/><stop offset="0.64" stop-color="#86e0fa"/></linearGradient><linearGradient id="linear-gradient-15" x1="-37.9" y1="193.23" x2="-104.2" y2="179.91" xlink:href="#linear-gradient-14"/><linearGradient id="linear-gradient-16" x1="-109.86" y1="91.2" x2="-4.96" y2="132.7" xlink:href="#linear-gradient-14"/><linearGradient id="linear-gradient-17" x1="-38.93" y1="19.5" x2="-15.59" y2="28.61" gradientTransform="matrix(0.83, 0.55, -0.55, 0.83, 371.46, 147.91)" gradientUnits="userSpaceOnUse"><stop offset="0.29" stop-color="#2a5c90"/><stop offset="0.97" stop-color="#63acd1"/></linearGradient><linearGradient id="linear-gradient-18" x1="-40.61" y1="13.16" x2="-16.14" y2="22.71" xlink:href="#linear-gradient-14"/><linearGradient id="linear-gradient-19" x1="-81.66" y1="122.05" x2="-69.57" y2="122.05" gradientTransform="matrix(0.83, 0.55, -0.55, 0.83, 371.46, 147.91)" gradientUnits="userSpaceOnUse"><stop offset="0" stop-color="#63acd1"/><stop offset="1" stop-color="#2a5c90"/></linearGradient><linearGradient id="linear-gradient-20" x1="-68.44" y1="94.78" x2="-56.35" y2="94.78" xlink:href="#linear-gradient-19"/><linearGradient id="linear-gradient-21" x1="-56.35" y1="69.69" x2="-44.27" y2="69.69" xlink:href="#linear-gradient-19"/><linearGradient id="linear-gradient-22" x1="402.93" y1="313.21" x2="470.69" y2="326.03" gradientTransform="translate(-287.58 33.15) rotate(-29.03)" xlink:href="#linear-gradient-14"/><linearGradient id="linear-gradient-23" x1="416.14" y1="242.76" x2="416.35" y2="242.8" gradientTransform="translate(-287.58 33.15) rotate(-29.03)" xlink:href="#linear-gradient-14"/><linearGradient id="linear-gradient-24" x1="419.24" y1="315.76" x2="532.7" y2="337.23" gradientTransform="translate(-287.58 33.15) rotate(-29.03)" xlink:href="#linear-gradient-14"/><linearGradient id="linear-gradient-25" x1="-154.2" y1="200.85" x2="-189.52" y2="173.9" xlink:href="#linear-gradient-14"/><linearGradient id="linear-gradient-26" x1="-87.47" y1="219.33" x2="-153.77" y2="206.01" xlink:href="#linear-gradient-14"/><linearGradient id="linear-gradient-27" x1="-159.44" y1="117.3" x2="-54.54" y2="158.8" xlink:href="#linear-gradient-14"/><linearGradient id="linear-gradient-28" x1="-88.51" y1="45.6" x2="-65.16" y2="54.71" xlink:href="#linear-gradient-17"/><linearGradient id="linear-gradient-29" x1="-90.18" y1="39.26" x2="-65.71" y2="48.81" xlink:href="#linear-gradient-14"/><linearGradient id="linear-gradient-30" x1="-131.23" y1="148.14" x2="-119.15" y2="148.14" xlink:href="#linear-gradient-19"/><linearGradient id="linear-gradient-31" x1="-118.01" y1="120.88" x2="-105.93" y2="120.88" xlink:href="#linear-gradient-19"/><linearGradient id="linear-gradient-32" x1="-105.93" y1="95.79" x2="-93.85" y2="95.79" xlink:href="#linear-gradient-19"/><linearGradient id="linear-gradient-33" x1="195.82" y1="40.2" x2="256.87" y2="51.75" gradientTransform="matrix(1, 0, 0, 1, 0, 0)" xlink:href="#linear-gradient-14"/><linearGradient id="linear-gradient-34" x1="79.91" y1="91.07" x2="445.06" y2="91.07" xlink:href="#linear-gradient-4"/><linearGradient id="linear-gradient-35" x1="-76.42" y1="287.58" x2="288.73" y2="287.58" xlink:href="#linear-gradient-4"/></defs><title>2</title><path class="cls-1" d="M337.13,119.21a72.19,72.19,0,0,1-36.72,62.88L141.24,271.92l-19.39,10.42a14,14,0,0,1-13.4-24.57l65.32-36.29c14.66-11.17,0-27.93-15.63-21.22l-66,36.47a15.55,15.55,0,0,1-15.49-27l6-4.63,1.2-.92a9.08,9.08,0,0,0,0-15.6l-2.2-1.3A24,24,0,0,0,58,186.76L17.5,208.35a11.82,11.82,0,0,1-12.2-.92,11.39,11.39,0,0,1,1.3-19.09l77.89-43.42,16.25-9,135-76c45.35-25.53,101.41,7.25,101.41,59.29Z"/><path class="cls-2" d="M318.16,43.87,122.93,154.26l-19.4,10.42a14,14,0,0,1-13.39-24.57L287.75,28.6c5.6-3.16,5.52-3.47,11.51-5.66C315.34,17.05,335.88,33.61,318.16,43.87Z"/><path class="cls-3" d="M358.77,81.25h0a14.35,14.35,0,0,1-7.38,12.54l-168,93.33L163.94,197.5a14,14,0,0,1-13.4-24.57l187.32-104A14.08,14.08,0,0,1,358.77,81.25Z"/><polygon class="cls-4" points="288.14 83.75 86.89 199.95 81.31 192.79 282.58 76.59 288.14 83.75"/><path class="cls-5" d="M224,156.5l2.84,6.88,3.48-1,.7-2.25,4.87.33s8.62-3.69,10.26-6.27c3-4.79-2.8-6.74-6.28-5.67s-4.35,2.89-5.93,3a17.18,17.18,0,0,1-4-.53Z"/><path class="cls-6" d="M146.58,43.17l17.26,10.41,26.25-17s21.06-11.48,11.75-2.45c-.62.6-6.06,8.29-7.77,9.26s-6.25,0-8.38,1.85c-1.24,1.1-6.66,6.3-11.5,10.6-3.45,3.06-6.6,5.66-7.75,6-2.76.85-11.43-3.44-11.43-3.44Z"/><path class="cls-7" d="M175.45,43.19l6.31,8L167.41,63.73s-3.09,1.79-10.32-1.95-8.69-19.43-8.69-19.43l15.18,8.83Z"/><path class="cls-5" d="M156.77,91.22l3.15,1.11c1.62.58,3.79,1.36,6.34,2.3,11.33,4.18,30.06,11.46,40.69,17.54,5.37,3.09,23.94,35.43,23.94,35.43a12.23,12.23,0,0,1-.09,1.87c-.34,2.7-1.82,7.38-7.87,7.24L206.4,130.1a14.45,14.45,0,0,0-12.11-6.84l-13.59-.18-24.94-12.26-6.91-3.4L146.32,99Z"/><path class="cls-8" d="M151.25,62.91c.22,1.5-.76,6.84-.39,8.8S154.1,86,154.1,86s-3.23,2-5.27,3.17c-8.36,4.93-15.15,2.72-15.15,2.72s2.3-6.8.75-11.08-6.48-5.51-6.47-11c0-6.24-4-7.25-.44-11.27,1.09-1.23,2-7.15,3.42-8.67.8-.84,1.63-1.64,2.46-2.37s1.43-1.22,2.16-1.76c2.7-2,5.47-3.31,8.05-3.42a7.45,7.45,0,0,1,6.13,2.72C154.79,50.75,151,61.42,151.25,62.91Z"/><path class="cls-9" d="M149.81,43.65c5,5.69,7.21,14.31,7.4,19.9l1.08,30.81-.4.1-2.56.65c-2.11.51-5.44,1.3-10.26,2.37q-3.28.7-6,1.15a79.39,79.39,0,0,1-9.89,1.06s-5.2-26-5.47-31.52c-.46-9.28,6.21-18.05,9.77-22.07,4.95,1.09-.32,4.3,3,3.8s7.65-.4,7.3-3.31a16.87,16.87,0,0,1-.12-2.6c0-1,.09-1.77.08-2.31,0-.38,0-.64-.14-.74a6.92,6.92,0,0,1,1.64.09A7.55,7.55,0,0,1,149.81,43.65Z"/><path class="cls-10" d="M143.53,41.69a.42.42,0,0,0,0,.07c0,.1,0,.3.08.57.21,1.55.73,5.5.78,6.87.06,1.74-4.63,2.46-6.68,2.76a3.85,3.85,0,0,1-1.9-.13,3.25,3.25,0,0,1-2.13-2.58c-.07-.37-.17-1-.29-1.74-.51-3.3-1.35-9.32-1.35-9.32s.53,0,1.31.1a27,27,0,0,1,3.26.59c.72.17,1.52.39,2.4.65C143.25,40.83,143.53,41.69,143.53,41.69Z"/><path class="cls-11" d="M146.34,27.37a12.78,12.78,0,0,1,1.22,3.15c.22,1.45,1.5,9.14.11,10.37-.54.48-2.2.77-4.13.87a31.65,31.65,0,0,1-5.38-.16h0a7.86,7.86,0,0,1-2.52-.62c-.29-.17-.58-.35-.85-.54a18.36,18.36,0,0,1-2.72-2.25h0a3.75,3.75,0,0,1-.89.08,3.56,3.56,0,0,1-2.4-1,18.11,18.11,0,0,1-4.39-14.07c1-7,11.71-8.94,15.93-6.8s5,5.26,5,5.26C146.22,23.59,146,26.5,146.34,27.37Z"/><path class="cls-12" d="M136.62,38.88c.37,1.45.88,2.64,1.51,2.72-.27,0-2.45-.18-3.36-1.16l.79,5.31.83,5.55-.57.53a3.25,3.25,0,0,1-2.13-2.58c-.07-.37-.17-1-.29-1.74-.51-3.3-1.35-9.32-1.35-9.32a3.84,3.84,0,0,1-.89.08l4.48-5.16A43.62,43.62,0,0,0,136.62,38.88Z"/><path class="cls-13" d="M149.81,43.65c5,5.69,7.21,14.31,7.4,19.9.09,2.73,1.74,24.26,1.08,30.81l-2.09.53c-.44-8.63-2.29-29.46-1.92-33.14.52-5.37-7.71-18.58-7.71-18.58l-2.82,3.42-.12-2.6-.09-2.23.17-.08,1.5-.65A7.55,7.55,0,0,1,149.81,43.65Z"/><path class="cls-14" d="M133.05,45.21s-2.38,1.78-2.25,3.22,2.64,3,2.64,3,3.36,2.33,8.36-.31a6.2,6.2,0,0,0-4.89-2c-3.22.1-3.49-1-3.51-1.64A21.69,21.69,0,0,0,133.05,45.21Z"/><path class="cls-5" d="M143.32,18.56a13.24,13.24,0,0,1-2.9,3.07,3.91,3.91,0,0,1-2.07.61,3.46,3.46,0,0,0-2.09.64c-.87.78-.56,2.34-1.39,3.14-.62.6-1.63.55-2.35,1a2.65,2.65,0,0,0-1,2.67,8.92,8.92,0,0,0,1.16,2.78c.18.35.34.84,0,1.08a.63.63,0,0,1-.83-.19,4.4,4.4,0,0,1-.42-.84,2,2,0,0,0-3.75,1.53c.28.92,1.15,1.5,1.84,2.16s1.26,1.7.79,2.53a2.91,2.91,0,0,1-3.59.75,2.74,2.74,0,0,0-1.06-.51,2.45,2.45,0,0,0-1.12.33,6,6,0,0,1-4.13.28,1.13,1.13,0,0,1-.77-.52,2.32,2.32,0,0,1-.07-.7c0-.86-.75-1.5-1.24-2.2a5.2,5.2,0,0,1-.62-4.74,5.05,5.05,0,0,0,.55-1.77c0-1.08-1-2-1-3,0-.87.57-1.65.62-2.5a6.08,6.08,0,0,0-.36-1.87,5.23,5.23,0,0,1,1.78-5.1c.52-.42,1.16-.78,1.42-1.39a4.11,4.11,0,0,0,.22-1.17,4.25,4.25,0,0,1,.18-.86,6.11,6.11,0,0,1,5.8-4.34c1,0,1.92.29,2.9.35,1.55.11,3.1-.3,4.66-.34a4.59,4.59,0,0,1,4.12,1.73,18.45,18.45,0,0,0,.87,1.65C140.9,14.67,145.34,15.36,143.32,18.56Z"/><path class="cls-15" d="M175.45,43.19l-.65,2.67s-8.67,7.87-11,7.72-13-7.84-13-7.84l-2.42-3.39,15.18,8.83Z"/><path class="cls-5" d="M190.73,169.27s-.57,3.11.2,4.87a61,61,0,0,1,1.89,6s.55.83,2.09.51l1.41-.46a7.4,7.4,0,0,0,2.75,2c1.62.61,14.85,4.91,14.75-2.31s-8.47-6.78-10.48-7.54-5.65-5.05-5.65-5.05Z"/><path class="cls-16" d="M131,99.14l10-1.06s7.19-1.85,7.2-1.84l.08,0a30.5,30.5,0,0,1,5.43,3c3.66,2.84,5.74,8.08,7.38,9.61s23.57,9,26.8,14.46c2.94,5,12.4,40.05,12.4,40.05s-.46,1.65-1.16,3.69c-.44,1.26-.95,2.66-1.51,3.91-1.45,3.26-8.19-.74-8.19-.74s-9.89-35.42-13.57-36.85-12.39-2.59-20.48-5.59c-3.79-1.4-8.78-4.44-13-7.28a22.15,22.15,0,0,1-9.71-16.16Z"/><path class="cls-13" d="M148.23,96.25l.05,0a30.5,30.5,0,0,1,5.43,3c3.66,2.84,5.74,8.08,7.38,9.61s23.57,9,26.8,14.46c2.94,5,12.4,40.05,12.4,40.05s-.46,1.65-1.16,3.69h0s-12.77-41.2-14.7-42.62-23.34-10.77-23.34-10.77-2.8-3.77-6.78-10.09C150.7,97.83,148.59,96.46,148.23,96.25Z"/><path class="cls-13" d="M143.32,18.56a13.24,13.24,0,0,1-2.9,3.07,3.91,3.91,0,0,1-2.07.61c.29-.58,1.05-1.08,1.36-1.68a2.38,2.38,0,0,0,0-2.42c-.72-1.06-2.3-1-3.36-1.74a2.79,2.79,0,0,1-1.19-1.92,2.41,2.41,0,0,0-.19-.93,1.37,1.37,0,0,0-1.47-.47,8.93,8.93,0,0,1-1.59.37c-1.49,0-2.65-1.65-4.13-1.48-1.22.15-2.19,1.56-3.39,1.28-.29-.07-.61-.24-.88-.1a.77.77,0,0,0-.34.39L122.38,15a1.55,1.55,0,0,1-1.23-1.14s0-.05,0-.08a6.11,6.11,0,0,1,5.8-4.34c1,0,1.92.29,2.9.35,1.55.11,3.1-.3,4.66-.34a4.59,4.59,0,0,1,4.12,1.73,18.45,18.45,0,0,0,.87,1.65C140.9,14.67,145.34,15.36,143.32,18.56Z"/><path class="cls-17" d="M127.17,65.1A6.22,6.22,0,0,0,129,75c5.72,2.88,15.79,7.18,22.65,5.87,7.35-1.41,20.05-15.12,30.42-22.53a20.81,20.81,0,0,1,4.35-1.77c4.47-.2,5.76-.74,7.24-1.65C200,51,201,43.46,201,43.46s.9-1.24-.85-.66-6.06-.16-6.06-.16l-9.28,6.91-31,20.84s-14.64-1-20.53-5.44C130.77,63,128.68,63.59,127.17,65.1Z"/><path class="cls-18" d="M176.38,56l.34.49,1.63,2.27a4.94,4.94,0,0,1-.92,6.4c-6.42,5.55-20.63,17.33-25.3,17.16-6.1-.21-21.52-3.73-26.12-8.8A7.9,7.9,0,0,1,126,62.84a7,7,0,0,1,6-2l.87.4c3.7,1.69,18.17,8.23,20.29,8.1,1.93-.13,14.18-9.76,19.3-13.85a2.71,2.71,0,0,1,3.05-.23A2.66,2.66,0,0,1,176.38,56Z"/><path class="cls-9" d="M177.46,46.36l0,0L180.42,50a1.2,1.2,0,0,1,0,1.56l-2.64,2.87h0l-3-4.79-1-1.63,2-1.78A1.2,1.2,0,0,1,177.46,46.36Z"/><path class="cls-13" d="M178.83,53.94l0,0-2.14,2.56-.59.7-2.52.85S155.33,72.75,152.4,73.26,126.67,63.18,126,62.84a7,7,0,0,1,6-2l.87.4c3.7,1.69,18.17,8.23,20.29,8.1,1.93-.13,14.18-9.76,19.3-13.85a2.71,2.71,0,0,1,3.05-.23l1.63-1.43A1.18,1.18,0,0,1,178.83,53.94Z"/><path class="cls-19" d="M223.7,208c6.92,5.68-32.76,25.67-39,25.09s-45.18-.47-46-6.24S207.61,194.82,223.7,208Z"/><path class="cls-20" d="M166.86,212.35s10.72,5.71,26.1,3c10.8-1.92,18.79-10.58,18.83-10.62C199.93,203.49,182.14,207.4,166.86,212.35Z"/><path class="cls-21" d="M243.41,238c-1.86-8.34-34.46,20.74-36.64,26.62s-18.84,40.94-14.3,43.78S247.73,257.35,243.41,238Z"/><path class="cls-22" d="M198.35,249.38a3.36,3.36,0,0,0-3-3.62c-4.42-.54-13.53-1-22.26,4.59s-14.66,16.22-15.65,21.81c-.4,2.27.6,4.86,2.75,5.29,5.69,1.13,16.37.07,24.65-5.5C196.1,264.4,197.9,254.36,198.35,249.38Z"/><path class="cls-23" d="M192,254.43a1.76,1.76,0,0,0-1.56-1.9,17.61,17.61,0,0,0-11.7,2.41c-4.56,2.9-7.71,8.52-8.23,11.46-.21,1.2.32,2.56,1.45,2.78a19,19,0,0,0,13-2.89A15.34,15.34,0,0,0,192,254.43Z"/><path class="cls-24" d="M334.83,168.7s-30.9,36-63.78,58.56-59.45,35.32-59.45,35.32c-5.53,3.82-15-.39-21.21-9.41s-6.69-19.43-1.15-23.25c0,0,55.19-59.66,131.43-81.9Z"/><path class="cls-25" d="M334.83,168.7c-3.31,2.28-9.17-.49-13.07-6.2s-4.4-12.19-1.09-14.48a23.14,23.14,0,0,1,3.54-1.76l.06,0c6.24-2.32,18-5.56,22.93-4.22a3,3,0,0,1,.52.22,3.75,3.75,0,0,1,1.55,1.27C353.18,149.22,338.14,166.41,334.83,168.7Z"/><path class="cls-26" d="M347.2,142c-4.9-1.34-16.69,1.9-22.93,4.22C330.42,143.65,342,140.12,347.2,142Z"/><path class="cls-20" d="M347.74,142.19l0,.05a3,3,0,0,0-.52-.22A5,5,0,0,1,347.74,142.19Z"/><circle class="cls-27" cx="244.2" cy="210.04" r="6.04"/><circle class="cls-28" cx="270.26" cy="194.6" r="6.04"/><circle class="cls-29" cx="294.19" cy="180.34" r="6.04"/><path class="cls-30" d="M304.48,157.07a13.47,13.47,0,0,1-3.78,2.25c-12.6,5.18-44.18,16.34-44.18,16.34l-6.18-29.41s11.69-2.86,12-13.25-38-81.38-45.59-85.57c-7.14-3.94-21.05-4-22.58-4,.22-.09.83-.55,2.4-2.47a1.72,1.72,0,0,1,.47-.38c5.6.17,18.73.91,24.59,4.14,7.56,4.19,45.94,75.18,45.59,85.57s-11,18.21-11,18.21L261.4,173S291.24,162.4,304.48,157.07Z"/><path class="cls-31" d="M194.06,43.43h.14C194.1,43.47,194.07,43.44,194.06,43.43Z"/><path class="cls-32" d="M304.48,157.07C291.24,162.4,261.4,173,261.4,173l-5.14-24.45s10.65-7.82,11-18.21-38-81.38-45.59-85.57c-5.86-3.23-19-4-24.59-4.14,16.48-5.92,28.66,1.88,28.66,1.88S329,136,304.48,157.07Z"/><path class="cls-33" d="M168,202.42c6.92,5.68-32.76,25.67-39,25.09s-45.18-.47-46-6.24S151.86,189.23,168,202.42Z"/><path class="cls-20" d="M111.11,206.76s10.72,5.71,26.1,3C148,207.83,156,199.17,156,199.13,144.18,197.9,126.39,201.81,111.11,206.76Z"/><path class="cls-34" d="M187.66,232.36C185.8,224,153.2,253.1,151,259s-18.84,40.94-14.29,43.78S192,251.76,187.66,232.36Z"/><path class="cls-22" d="M142.6,243.79a3.35,3.35,0,0,0-3-3.62c-4.42-.54-13.54-1-22.26,4.59S102.71,261,101.72,266.57c-.4,2.27.6,4.86,2.75,5.29,5.69,1.13,16.38.07,24.65-5.5C140.35,258.81,142.16,248.77,142.6,243.79Z"/><path class="cls-23" d="M136.26,248.84a1.76,1.76,0,0,0-1.56-1.9,17.61,17.61,0,0,0-11.7,2.41c-4.55,2.9-7.71,8.52-8.22,11.46-.22,1.2.31,2.56,1.44,2.78a19,19,0,0,0,13-2.89A15.34,15.34,0,0,0,136.26,248.84Z"/><path class="cls-35" d="M279.08,163.11s-30.9,36-63.78,58.56S155.86,257,155.86,257c-5.54,3.82-15-.39-21.22-9.41s-6.69-19.43-1.15-23.25c0,0,55.19-59.66,131.44-81.9Z"/><path class="cls-36" d="M279.08,163.11c-3.31,2.28-9.17-.49-13.07-6.2s-4.4-12.19-1.08-14.48a22.9,22.9,0,0,1,3.53-1.76l.06,0c6.24-2.32,18-5.56,22.94-4.22a3.27,3.27,0,0,1,.51.22,3.75,3.75,0,0,1,1.55,1.27C297.43,143.63,282.4,160.82,279.08,163.11Z"/><path class="cls-37" d="M291.46,136.43c-4.91-1.34-16.7,1.9-22.94,4.22C274.67,138.06,286.24,134.53,291.46,136.43Z"/><path class="cls-20" d="M292,136.6l0,.05a3.27,3.27,0,0,0-.51-.22Z"/><circle class="cls-38" cx="188.45" cy="204.45" r="6.04"/><circle class="cls-39" cx="214.52" cy="189.01" r="6.04"/><circle class="cls-40" cx="238.44" cy="174.75" r="6.04"/><path class="cls-41" d="M225.73,42.46s-16.49-13.89-20.35-12.39,1.24-2.31-3.54,4.1A87,87,0,0,1,191,45.89s-4.8,2.5-3.95,4.32,4,0,4,0,3-2.59,6-5,14.4-6.1,24.59-.49S225.73,42.46,225.73,42.46Z"/><polygon class="cls-42" points="338.93 119.67 137.67 235.86 132.1 228.71 333.36 112.51 338.93 119.67"/><polygon class="cls-43" points="266.74 194.68 65.48 310.88 59.91 303.72 261.17 187.53 266.74 194.68"/></svg>