<svg id="Layer_1" data-name="Layer 1" xmlns="http://www.w3.org/2000/svg" xmlns:xlink="http://www.w3.org/1999/xlink" viewBox="0 0 358.04 309.98"><defs><style>.cls-1{fill:url(#linear-gradient);}.cls-2,.cls-3,.cls-5{opacity:0.22;}.cls-11,.cls-15,.cls-2,.cls-3,.cls-5{isolation:isolate;}.cls-2{fill:url(#linear-gradient-2);}.cls-3{fill:url(#linear-gradient-3);}.cls-29,.cls-4{opacity:0.55;}.cls-4{fill:url(#linear-gradient-4);}.cls-5{fill:url(#linear-gradient-5);}.cls-6{fill:#161f4e;}.cls-7{fill:url(#linear-gradient-6);}.cls-8{fill:#488bc4;}.cls-9{fill:url(#linear-gradient-7);}.cls-10{fill:url(#linear-gradient-8);}.cls-11{opacity:0.31;fill:url(#linear-gradient-9);}.cls-12,.cls-15{fill:#fff;}.cls-12{opacity:0.37;}.cls-13{fill:url(#linear-gradient-10);}.cls-14{fill:url(#linear-gradient-11);}.cls-15{opacity:0.34;}.cls-16{fill:url(#linear-gradient-12);}.cls-17{fill:#fcedcf;}.cls-18{fill:#f5be50;}.cls-19{fill:url(#linear-gradient-13);}.cls-20{fill:url(#linear-gradient-14);}.cls-21{fill:url(#linear-gradient-15);}.cls-22{fill:url(#linear-gradient-16);}.cls-23{fill:url(#linear-gradient-17);}.cls-24{fill:#212c6e;}.cls-25{fill:url(#linear-gradient-18);}.cls-26{fill:url(#linear-gradient-19);}.cls-27{fill:url(#linear-gradient-20);}.cls-28{fill:url(#linear-gradient-21);}.cls-29{fill:url(#linear-gradient-22);}</style><linearGradient id="linear-gradient" x1="205.25" y1="68.3" x2="182.42" y2="97.3" gradientUnits="userSpaceOnUse"><stop offset="0.41" stop-color="#86e0fa"/><stop offset="1" stop-color="#7ab9e7"/></linearGradient><linearGradient id="linear-gradient-2" y1="425.52" x2="336.4" y2="425.52" gradientTransform="translate(0 -232)" gradientUnits="userSpaceOnUse"><stop offset="0" stop-color="#86e0fa"/><stop offset="1" stop-color="#7ab9e7"/></linearGradient><linearGradient id="linear-gradient-3" x1="82.19" y1="120.01" x2="324.26" y2="120.01" gradientTransform="matrix(1, 0, 0, 1, 0, 0)" xlink:href="#linear-gradient-2"/><linearGradient id="linear-gradient-4" x1="-74.36" y1="-1582.12" x2="290.79" y2="-1582.12" gradientTransform="matrix(0.55, -0.32, 0.07, 0.13, 251.94, 367.52)" gradientUnits="userSpaceOnUse"><stop offset="0" stop-color="#fff" stop-opacity="0"/><stop offset="0.5" stop-color="#fff"/><stop offset="1" stop-color="#fff" stop-opacity="0"/></linearGradient><linearGradient id="linear-gradient-5" x1="142.6" y1="391.13" x2="358.04" y2="391.13" xlink:href="#linear-gradient-2"/><linearGradient id="linear-gradient-6" x1="271.1" y1="-278.72" x2="305.32" y2="-278.72" gradientTransform="translate(30.33 509.84) rotate(-27.1)" gradientUnits="userSpaceOnUse"><stop offset="0" stop-color="#e7c7d7"/><stop offset="0.42" stop-color="#ecd6d3"/><stop offset="1" stop-color="#f2ebcd"/></linearGradient><linearGradient id="linear-gradient-7" x1="146.71" y1="42.5" x2="121.83" y2="49.13" gradientTransform="translate(23.58 173.92) rotate(-44.24)" xlink:href="#linear-gradient-6"/><linearGradient id="linear-gradient-8" x1="288.1" y1="-315.13" x2="310.42" y2="-315.13" xlink:href="#linear-gradient-6"/><linearGradient id="linear-gradient-9" x1="143.09" y1="45.53" x2="136.35" y2="35.51" gradientTransform="translate(23.58 173.92) rotate(-44.24)" gradientUnits="userSpaceOnUse"><stop offset="0" stop-color="#e7c7d7"/><stop offset="0.42" stop-color="#735858"/><stop offset="1" stop-color="#f2ebcd"/></linearGradient><linearGradient id="linear-gradient-10" x1="132.21" y1="46.68" x2="139.08" y2="46.68" gradientTransform="translate(23.58 173.92) rotate(-44.24)" xlink:href="#linear-gradient-2"/><linearGradient id="linear-gradient-11" x1="156.46" y1="256.12" x2="121.14" y2="229.17" gradientTransform="translate(153.13 -76.76) rotate(37.23)" gradientUnits="userSpaceOnUse"><stop offset="0.29" stop-color="#2a5c90"/><stop offset="0.5" stop-color="#63acd1"/><stop offset="0.64" stop-color="#86e0fa"/></linearGradient><linearGradient id="linear-gradient-12" x1="223.19" y1="274.6" x2="156.89" y2="261.28" xlink:href="#linear-gradient-11"/><linearGradient id="linear-gradient-13" x1="151.23" y1="172.57" x2="256.13" y2="214.07" xlink:href="#linear-gradient-11"/><linearGradient id="linear-gradient-14" x1="192.65" y1="176.15" x2="204.74" y2="176.15" gradientTransform="translate(153.13 -76.76) rotate(37.23)" gradientUnits="userSpaceOnUse"><stop offset="0" stop-color="#63acd1"/><stop offset="1" stop-color="#2a5c90"/></linearGradient><linearGradient id="linear-gradient-15" x1="222.16" y1="100.87" x2="245.5" y2="109.98" gradientTransform="translate(153.13 -76.76) rotate(37.23)" gradientUnits="userSpaceOnUse"><stop offset="0.29" stop-color="#2a5c90"/><stop offset="0.97" stop-color="#63acd1"/></linearGradient><linearGradient id="linear-gradient-16" x1="220.48" y1="94.53" x2="244.95" y2="104.08" xlink:href="#linear-gradient-11"/><linearGradient id="linear-gradient-17" x1="179.43" y1="203.42" x2="191.52" y2="203.42" xlink:href="#linear-gradient-14"/><linearGradient id="linear-gradient-18" x1="204.74" y1="151.06" x2="216.82" y2="151.06" xlink:href="#linear-gradient-14"/><linearGradient id="linear-gradient-19" x1="285.12" y1="-344.86" x2="365.72" y2="-344.86" gradientTransform="matrix(0.91, 0.42, -0.42, 0.91, -254.12, 326.04)" xlink:href="#linear-gradient-6"/><linearGradient id="linear-gradient-20" x1="109.42" y1="50.67" x2="158.86" y2="50.67" gradientTransform="matrix(1, 0.07, -0.07, 1, 43.46, 78.97)" xlink:href="#linear-gradient-2"/><linearGradient id="linear-gradient-21" x1="210.21" y1="59.11" x2="220.7" y2="63.92" gradientTransform="matrix(1, 0, 0, 1, 0, 0)" xlink:href="#linear-gradient-6"/><linearGradient id="linear-gradient-22" x1="-89.24" y1="-968.11" x2="275.91" y2="-968.11" xlink:href="#linear-gradient-4"/></defs><title>1</title><polygon class="cls-1" points="163.71 105.81 207.74 64.51 213.78 72.71 173.47 118.66 163.71 105.81"/><path class="cls-2" d="M336.4,145.19a72.19,72.19,0,0,1-36.72,62.88L140.51,297.91l-19.39,10.41a14,14,0,0,1-13.4-24.57L173,247.46c14.66-11.17,0-27.93-15.63-21.21l-66,36.46a15.55,15.55,0,0,1-15.49-27l6-4.62,1.2-.93a9.07,9.07,0,0,0,0-15.59L81,213.3a24,24,0,0,0-23.64-.55L16.77,234.34a11.81,11.81,0,0,1-12.2-.93,11.39,11.39,0,0,1,1.3-19.09L83.76,170.9l16.25-9,135-76c45.35-25.53,101.41,7.24,101.41,59.28Z"/><path class="cls-3" d="M317.43,69.86,122.2,180.25l-19.4,10.41A14,14,0,0,1,89.4,166.1L287,54.59c5.6-3.16,5.52-3.48,11.51-5.67C314.61,43,335.15,59.59,317.43,69.86Z"/><polygon class="cls-4" points="299.11 77.08 97.84 193.28 92.28 186.13 293.54 69.93 299.11 77.08"/><path class="cls-5" d="M358,107.24h0a14.34,14.34,0,0,1-7.38,12.53l-168,93.33-19.43,10.39a14,14,0,0,1-13.4-24.58l187.32-104A14.08,14.08,0,0,1,358,107.24Z"/><path class="cls-6" d="M246.29,206.78l4,6.26,3.25-1.58.3-2.34,4.84-.54s7.83-5.17,9-8c2.14-5.25-3.95-6.13-7.18-4.46s-3.77,3.62-5.32,4a16.64,16.64,0,0,1-4,.19Z"/><path class="cls-6" d="M168.5,154.52s1.21.18,3.3.52c1.69.29,4,.67,6.65,1.14,11.89,2.09,31.61,5.92,43.15,10,5.84,2.08,29.87,30.6,29.87,30.6a11.41,11.41,0,0,1,.24,1.85c.15,2.73-.47,7.59-6.45,8.53l-21-23.24a14.46,14.46,0,0,0-13.14-4.58l-13.4,2.24L171,174l-7.4-2.12-4-7.88Z"/><path class="cls-7" d="M169.41,125.28c.3,1.48-.39,6.86.08,8.8s4,14.15,4,14.15-3.12,2.12-5.09,3.43c-8.1,5.36-15,3.52-15,3.52s2-6.92.17-11.11-6.75-5.16-7-10.68c-.33-6.23-4.39-7-1-11.23,1-1.28,1.59-7.24,3-8.84.76-.87,1.54-1.71,2.33-2.49a27.31,27.31,0,0,1,2.07-1.87c2.59-2.15,5.29-3.59,7.86-3.84a7.48,7.48,0,0,1,6.26,2.4C172.31,113,169.1,123.8,169.41,125.28Z"/><path class="cls-8" d="M167,106.11c5.34,5.43,8,13.92,8.44,19.5.39,4.54,2.69,30.7,2.69,30.7l-.39.13c-.44.14-1.26.4-2.53.77-2.08.63-5.37,1.6-10.12,2.91-2.16.59-4.15,1.07-6,1.46a79.2,79.2,0,0,1-9.82,1.58s-6.56-25.7-7.11-31.19c-.95-9.24,5.25-18.35,8.6-22.55,5,.83-.09,4.31,3.19,3.64s7.61-.8,7.11-3.69a19.4,19.4,0,0,1-.26-2.59c0-1,0-1.77,0-2.31,0-.38-.06-.64-.18-.73a7,7,0,0,1,1.65,0A7.52,7.52,0,0,1,167,106.11Z"/><path class="cls-9" d="M160.59,104.49a.23.23,0,0,0,0,.07c0,.1,0,.29.11.56.29,1.54,1,5.46,1.14,6.83.14,1.73-4.5,2.69-6.53,3.1a4,4,0,0,1-1.91,0,3.25,3.25,0,0,1-2.26-2.46c-.09-.36-.21-1-.38-1.72-.68-3.27-1.83-9.24-1.83-9.24s.52,0,1.31,0a28.66,28.66,0,0,1,3.29.41c.73.13,1.54.31,2.43.53C160.27,103.64,160.59,104.49,160.59,104.49Z"/><path class="cls-10" d="M162.65,90A12.76,12.76,0,0,1,164,93.13c.29,1.43,2,9,.64,10.35-.51.5-2.15.88-4.07,1.08a31.57,31.57,0,0,1-5.38.12h0a7.68,7.68,0,0,1-2.54-.49c-.3-.15-.59-.31-.88-.49a18.7,18.7,0,0,1-2.83-2.11h0a3.69,3.69,0,0,1-.88.13,3.58,3.58,0,0,1-2.45-.84,18.14,18.14,0,0,1-5.11-13.83c.6-7,11.23-9.53,15.55-7.62s5.25,5,5.25,5C162.34,86.27,162.29,89.18,162.65,90Z"/><path class="cls-11" d="M153.55,102c.45,1.44,1,2.6,1.65,2.64-.27,0-2.46-.05-3.42-1l1.07,5.26,1.12,5.5-.55.55a3.25,3.25,0,0,1-2.26-2.46c-.09-.36-.21-1-.38-1.72-.68-3.27-1.83-9.24-1.83-9.24a3.84,3.84,0,0,1-.89.13l4.21-5.39A43.39,43.39,0,0,0,153.55,102Z"/><path class="cls-12" d="M167,106.11c5.34,5.43,8,13.92,8.44,19.5.39,4.54,2.57,30.74,2.3,30.83l-2.52.78s-.32-2.92-.7-6.71c-.9-8.6-2.28-22.86-2.1-26.55.24-5.39-8.67-18.15-8.67-18.15l-2.64,3.56-.26-2.59-.2-2.22.16-.09,1.47-.73A7.52,7.52,0,0,1,167,106.11Z"/><path class="cls-13" d="M150.32,108.55s-2.29,1.9-2.08,3.34,2.79,2.86,2.79,2.86,3.48,2.16,8.33-.74a6.22,6.22,0,0,0-5-1.73c-3.22.27-3.54-.79-3.6-1.45A21.15,21.15,0,0,0,150.32,108.55Z"/><path class="cls-6" d="M159.18,81.4a13.26,13.26,0,0,1-2.74,3.22,3.83,3.83,0,0,1-2,.71,3.52,3.52,0,0,0-2.05.76c-.82.82-.43,2.36-1.22,3.2-.59.63-1.6.64-2.3,1.13a2.69,2.69,0,0,0-.86,2.72,9.09,9.09,0,0,0,1.3,2.72c.21.34.39.82.09,1.08a.64.64,0,0,1-.84-.15,4.15,4.15,0,0,1-.47-.82,2,2,0,0,0-3.66,1.73c.33.9,1.23,1.43,2,2s1.35,1.64.92,2.49a2.91,2.91,0,0,1-3.55.94,2.76,2.76,0,0,0-1.08-.45,2.27,2.27,0,0,0-1.1.38,6.06,6.06,0,0,1-4.12.5,1.13,1.13,0,0,1-.79-.48,2.28,2.28,0,0,1-.1-.7c-.09-.85-.83-1.46-1.36-2.13a5.18,5.18,0,0,1-.86-4.7,5.49,5.49,0,0,0,.46-1.8c-.06-1.08-1.08-1.91-1.18-3-.07-.86.49-1.67.5-2.53a6.63,6.63,0,0,0-.46-1.84,5.22,5.22,0,0,1,1.51-5.19c.49-.45,1.11-.84,1.34-1.46a3.91,3.91,0,0,0,.16-1.18,4.27,4.27,0,0,1,.14-.87,6.1,6.1,0,0,1,5.56-4.64c1,0,1.94.19,2.91.2,1.56,0,3.09-.47,4.64-.59a4.63,4.63,0,0,1,4.21,1.52,16,16,0,0,0,.95,1.6C156.56,77.64,161,78.1,159.18,81.4Z"/><path class="cls-12" d="M159.18,81.4a13.26,13.26,0,0,1-2.74,3.22,3.83,3.83,0,0,1-2,.71c.27-.59,1-1.12,1.28-1.74a2.38,2.38,0,0,0-.11-2.42c-.78-1-2.35-.91-3.45-1.56a2.82,2.82,0,0,1-1.29-1.86,2.24,2.24,0,0,0-.24-.92,1.36,1.36,0,0,0-1.48-.39,8.31,8.31,0,0,1-1.58.45c-1.48.12-2.73-1.51-4.19-1.26-1.22.21-2.11,1.68-3.33,1.46-.29-.06-.62-.21-.88-.06a.88.88,0,0,0-.32.41l-.73,1.47a1.53,1.53,0,0,1-1.29-1.08s0,0,0-.07a6.1,6.1,0,0,1,5.56-4.64c1,0,1.94.19,2.91.2,1.56,0,3.09-.47,4.64-.59a4.63,4.63,0,0,1,4.21,1.52,16,16,0,0,0,.95,1.6C156.56,77.64,161,78.1,159.18,81.4Z"/><path class="cls-14" d="M160.4,196.34c6.54,6.11-34.36,23.47-40.59,22.48s-45.06-3.42-45.47-9.22S145.21,182.12,160.4,196.34Z"/><path class="cls-15" d="M103.4,197s10.32,6.4,25.85,4.68c10.91-1.2,19.44-9.33,19.49-9.36C137,190.27,119,193,103.4,197Z"/><path class="cls-16" d="M178.12,227.5c-1.31-8.45-35.74,18.44-38.3,24.17s-21.47,39.62-17.12,42.75S181.17,247.13,178.12,227.5Z"/><path class="cls-17" d="M132.41,236a3.36,3.36,0,0,0-2.72-3.81c-4.38-.83-13.45-1.85-22.52,3.13s-15.69,15.23-17,20.74c-.55,2.24.28,4.89,2.4,5.46,5.6,1.5,16.33,1.14,25-3.88C129.18,250.8,131.64,240.9,132.41,236Z"/><path class="cls-18" d="M125.75,240.58a1.77,1.77,0,0,0-1.43-2,17.75,17.75,0,0,0-11.83,1.64c-4.74,2.6-8.25,8-9,10.91-.29,1.18.15,2.57,1.26,2.87a19.14,19.14,0,0,0,13.12-2A15.35,15.35,0,0,0,125.75,240.58Z"/><path class="cls-19" d="M273.86,164.36s-33.18,33.93-67.47,54.27S144.77,250,144.77,250c-5.77,3.46-15-1.36-20.55-10.77s-5.41-19.82.37-23.28c0,0,59-55.92,136.5-73.14Z"/><circle class="cls-20" cx="207.74" cy="185.98" r="6.04"/><path class="cls-21" d="M273.86,164.36c-3.45,2.06-9.11-1.09-12.64-7.05s-3.59-12.45-.13-14.51a22.08,22.08,0,0,1,3.64-1.53l.06,0c6.38-1.91,18.35-4.36,23.16-2.71.18.08.34.16.5.25a3.72,3.72,0,0,1,1.46,1.37C293.44,146.11,277.32,162.29,273.86,164.36Z"/><path class="cls-22" d="M288,138.54c-4.81-1.65-16.78.8-23.16,2.71C271.09,139.07,282.87,136.3,288,138.54Z"/><path class="cls-15" d="M288.48,138.75l0,0c-.16-.09-.32-.17-.5-.25A4.18,4.18,0,0,1,288.48,138.75Z"/><circle class="cls-23" cx="180.72" cy="199.69" r="6.04"/><path class="cls-24" d="M153.31,162.66l11.74-2.54a11.56,11.56,0,0,0,7,6.5s0,0,0,0l.09,0a30.05,30.05,0,0,1,5.78,2.18c4,2.32,6.78,7.22,8.61,8.52S211.18,183,215.13,188c3.6,4.59,17.73,38,17.73,38s-.24,1.69-.65,3.81c-.26,1.3-.59,2.76-1,4.08-1,3.42-8.21.38-8.21.38s-14.61-33.75-18.45-34.67-12.63-.88-21.06-2.75-23.31-10.41-23.31-10.41h0a27.46,27.46,0,0,1-10-16.94c-.56-3.34-1-6.23-1-6.37C149.38,162.81,153.31,162.66,153.31,162.66Z"/><circle class="cls-25" cx="232.55" cy="173.31" r="6.04"/><path class="cls-26" d="M156.59,122.28a6.23,6.23,0,0,0-5.74,8.24c2,6.09,6,16.26,11.79,20.21,6.18,4.22,24.85,3.58,37.42,5.73a20.5,20.5,0,0,1,4.32,1.84c3.29,3,4.58,3.57,6.27,4,7.3,1.76,13.28-2.85,13.28-2.85s1.51-.23-.13-1.07-8.6-4.27-8.6-4.27l1.57-3.11s.49-1.81-.49-2.14-2.71,2.25-4.28,2-3.8,1.41-3.8,1.41l-36.6-7.3S162,133.83,161,126.52C160.59,123.38,158.72,122.29,156.59,122.28Z"/><path class="cls-27" d="M197.68,150.84l-.11.58-.47,2.76a4.94,4.94,0,0,1-5.19,3.85c-8.46-.65-26.82-2.44-30-5.87-4.15-4.48-12.5-17.91-12.15-24.75a7.89,7.89,0,0,1,7.58-7.58,7,7,0,0,1,5.68,2.89l.33.89c1.41,3.82,7,18.7,8.54,20.11s16.92,3.2,23.43,4a2.69,2.69,0,0,1,2.3,2A2.56,2.56,0,0,1,197.68,150.84Z"/><path class="cls-12" d="M200.89,151.09v0l-3.32.28-.91.08-2.38-1.19s-23.29-2.65-25.71-4.37-11-25.37-11.23-26.11a7,7,0,0,1,5.68,2.89l.33.89c1.41,3.82,7,18.7,8.54,20.11s16.92,3.2,23.43,4a2.69,2.69,0,0,1,2.3,2l2.17.15A1.19,1.19,0,0,1,200.89,151.09Z"/><path class="cls-6" d="M225.36,232.48s.34,3.15,1.59,4.61a61.81,61.81,0,0,1,3.52,5.19,2,2,0,0,0,2.15-.11l1.22-.85a7.4,7.4,0,0,0,3.21,1.12c1.73.12,15.63.45,13.46-6.44s-10-4.07-12.2-4.22-6.86-3.22-6.86-3.22Z"/><polygon class="cls-12" points="166.97 107.52 209.33 66.66 207.74 64.51 163.71 105.81 166.97 107.52"/><path class="cls-28" d="M207.74,64.51s4.36-7.14,5.21-9,3.52-2.95,6.19-2.39,3.8,5.61,3.8,5.61-1.4,4.39-3.09,4.81-5.35,3.52-5.35,3.52l-2.76,2.84Z"/><polygon class="cls-29" points="335.96 159.97 134.7 276.16 129.13 269.01 330.39 152.81 335.96 159.97"/></svg>